<svg width="36" height="36" viewBox="0 0 36 36" fill="none" xmlns="http://www.w3.org/2000/svg">
<circle cx="18" cy="18" r="18" fill="#FCBB1D"/>
<path d="M23.9434 17.5179C23.4676 16.79 22.7936 16.2785 22.1196 15.7474C21.406 15.1769 20.7518 14.5474 20.2166 13.8196C20.1967 13.7802 20.1571 13.7409 20.1373 13.7015C19.2254 12.4032 18.6703 10.4754 19.5227 9C19.4633 9.09836 19.1064 9.19672 19.0073 9.25573C18.7496 9.37376 18.4721 9.49179 18.2144 9.64917C17.6593 9.96391 17.1439 10.3573 16.688 10.7901C15.3598 12.0098 14.3686 13.5835 14.2893 15.413C14.2695 16.1015 14.2695 16.8293 14.3884 17.5179C14.5074 18.1867 14.9237 18.7572 14.7651 19.4654C14.7452 19.5637 14.6858 19.6817 14.5867 19.7211C14.5074 19.7408 14.4281 19.7014 14.3488 19.6621C12.9809 18.9342 12.2475 16.6523 12.7431 15.2359C12.2277 16.7113 11.3158 17.931 11.0779 19.5047C10.9193 20.4686 10.9986 21.4719 11.3554 22.3964C11.6924 23.2817 12.2277 24.0685 12.9017 24.7374C13.6153 25.4456 14.4875 26.0357 15.3994 26.4685C15.558 26.5472 15.7364 26.6259 15.9148 26.6849C16.1131 26.7439 16.3113 26.8029 16.5294 26.8423C17.5998 27.039 18.7298 27.0586 19.8003 26.8619C20.6527 26.7046 21.4654 26.3898 22.1989 25.9177C23.0712 25.3472 23.7848 24.58 24.32 23.6751C25.4302 21.8063 25.0932 19.2883 23.9434 17.5179ZM20.7121 22.6128C19.1064 24.8751 16.9258 23.085 16.9258 23.085C19.6417 22.7309 18.5514 17.2228 18.5514 17.2228C22.4368 20.1145 20.7121 22.6128 20.7121 22.6128Z" fill="white"/>
</svg>
