<svg width="20" height="20" viewBox="0 0 20 20" fill="none" xmlns="http://www.w3.org/2000/svg">
<g clip-path="url(#clip0_1704_1293)">
<path d="M11.6984 14.7062C11.5071 14.8974 11.2449 14.9931 10.9117 14.9931C10.5785 14.9931 10.3132 14.8943 10.1158 14.6969L6.46929 11.2818C6.22249 11.0597 6.06053 10.7928 5.98341 10.4813C5.90628 10.1697 5.90628 9.85808 5.98341 9.5465C6.06053 9.23492 6.22249 8.96806 6.46929 8.74594L10.1158 5.34011C10.3379 5.11799 10.6001 5.00847 10.9024 5.01156C11.2048 5.01464 11.4577 5.11491 11.6613 5.31235C11.8896 5.53447 12.0084 5.80286 12.0177 6.11753C12.0269 6.4322 11.9143 6.69751 11.6798 6.91346L8.36656 10.0046L11.6798 13.1143C11.902 13.3179 12.0177 13.577 12.0269 13.8917C12.0362 14.2064 11.9266 14.4779 11.6984 14.7062H11.6984ZM9.99544 20C11.3775 20 12.6717 19.7409 13.8779 19.2226C15.0841 18.7043 16.1454 17.9871 17.0616 17.0708C17.9779 16.1546 18.6967 15.0918 19.218 13.8825C19.7394 12.6732 20.0001 11.3805 20.0001 10.0046C20.0001 8.62873 19.7394 7.33766 19.218 6.13142C18.6967 4.92519 17.9779 3.86241 17.0616 2.94308C16.1454 2.02376 15.0841 1.30341 13.8779 0.782046C12.6717 0.260682 11.3775 0 9.99544 0C8.61953 0 7.32846 0.260682 6.12223 0.782046C4.916 1.30341 3.85322 2.02376 2.93389 2.94308C2.01456 3.86241 1.29576 4.92519 0.777481 6.13142C0.259201 7.33766 6.10352e-05 8.62873 6.10352e-05 10.0046C6.10352e-05 11.3805 0.259201 12.6732 0.777481 13.8825C1.29576 15.0918 2.01456 16.1546 2.93389 17.0708C3.85322 17.9871 4.91754 18.7043 6.12686 19.2226C7.33618 19.7409 8.6257 20 9.99544 20Z" fill="#FFAE14"/>
</g>
<defs>
<clipPath id="clip0_1704_1293">
<rect width="20" height="20" fill="white"/>
</clipPath>
</defs>
</svg>
