<svg width="31" height="31" viewBox="0 0 31 31" fill="none" xmlns="http://www.w3.org/2000/svg">
<circle cx="15.5" cy="15.5" r="15.5" fill="white"/>
<g clip-path="url(#clip0_893_5851)">
<path d="M25.9039 12.7635C26.5621 11.3351 26.7875 9.77552 26.9015 8.17384C26.913 8.0293 26.8732 7.88529 26.7886 7.76496C26.704 7.64463 26.5795 7.55497 26.4351 7.5104C23.9864 6.76774 21.4651 5.92605 19.2236 5.0918C19.1693 5.70028 18.9811 6.29094 18.6711 6.82507C18.3612 7.35919 17.9367 7.82473 17.4253 8.19117C16.9091 8.54994 16.3132 8.79 15.6839 8.89262C15.0547 8.99524 14.4091 8.95767 13.7975 8.78283C13.1866 8.59663 12.6342 8.26702 12.191 7.82417C11.7478 7.38131 11.428 6.83935 11.2607 6.24787C9.16437 7.37672 6.74673 8.59468 4.40423 9.71363C4.2953 9.76451 4.20717 9.84855 4.1537 9.95252C4.10022 10.0565 4.08444 10.1745 4.10884 10.288C4.43693 11.9415 4.94766 13.5572 5.63249 15.1078C5.66298 15.176 5.70761 15.2376 5.76367 15.2889C5.81973 15.3401 5.88608 15.38 5.9587 15.4062C6.03133 15.4323 6.10874 15.4441 6.18628 15.4409C6.26381 15.4377 6.33986 15.4196 6.40986 15.3876C7.48524 14.9073 8.56839 14.2835 9.62303 13.8651C9.66967 16.7219 9.40795 21.1754 8.98558 25.0644C8.977 25.1442 8.98504 25.2247 9.00924 25.3014C9.03344 25.3782 9.07332 25.4496 9.12656 25.5115C9.17981 25.5734 9.24538 25.6246 9.31948 25.6622C9.39357 25.6998 9.47473 25.7229 9.55825 25.7304C14.9066 26.1883 19.8611 25.8121 24.2144 24.1584C24.3539 24.1034 24.4681 24.0025 24.5366 23.874C24.605 23.7456 24.6231 23.5979 24.5875 23.4578C23.6158 19.5316 22.8851 16.0312 21.9963 12.4021C23.0121 12.4714 24.0693 12.8204 25.1058 13.12C25.2615 13.162 25.4278 13.1491 25.5743 13.0836C25.7208 13.0182 25.8378 12.9046 25.9039 12.7635Z" fill="#E27A24"/>
<path d="M23.766 20.0638C23.7013 19.7816 23.5302 19.0439 23.468 18.7666C18.2855 20.7074 10.4548 20.5416 9.40011 20.1975C9.36642 20.6926 9.31719 21.3412 9.27832 21.8437C12.3464 21.9501 18.4151 22.1729 23.766 20.0638Z" fill="#EFB81D"/>
<path d="M9.27832 21.8434C12.3464 21.9498 18.4151 22.1726 23.766 20.0635" stroke="#130081" stroke-width="0.5" stroke-linecap="round" stroke-linejoin="round"/>
<path d="M5.57289 9.15137L4.40423 9.71332C4.2953 9.7642 4.20717 9.84824 4.1537 9.9522C4.10022 10.0562 4.08444 10.1742 4.10884 10.2876C4.43763 11.9392 4.94746 13.553 5.6299 15.1026C5.66035 15.1708 5.70499 15.2323 5.76111 15.2835C5.81723 15.3347 5.88365 15.3745 5.95636 15.4004C6.02906 15.4264 6.10652 15.4379 6.18403 15.4344C6.26155 15.4308 6.3375 15.4123 6.40728 15.3798C6.77006 15.214 7.18465 15.0134 7.39973 14.9119C6.57571 13.4836 5.87607 11.0278 5.57289 9.15137Z" fill="#EFB81D"/>
<path d="M23.3334 18.1824C23.222 17.6873 23.108 17.1922 22.9966 16.7119C21.1132 17.2273 19.1854 17.581 17.2362 17.769C15.7411 17.92 14.2174 18.0784 12.7145 18.1032C11.6472 18.0917 10.5831 17.989 9.53499 17.7962C9.50908 18.3928 9.47539 19.0092 9.43652 19.638C14.1967 20.0242 18.8221 19.4226 23.3334 18.1824Z" fill="#EFB81D"/>
<path d="M25.3209 7.16357C25.4038 8.13151 25.2665 10.9214 24.1833 12.8573L25.0877 13.1222C25.2455 13.1691 25.4159 13.159 25.5664 13.0937C25.7169 13.0284 25.837 12.9126 25.9039 12.7682C26.5621 11.3398 26.7876 9.78022 26.9016 8.17855C26.913 8.03401 26.8732 7.89 26.7886 7.76967C26.704 7.64933 26.5795 7.55967 26.4352 7.5151L25.3209 7.16357Z" fill="#EFB81D"/>
<path d="M13.7924 8.78283C14.404 8.95767 15.0495 8.99524 15.6788 8.89262C16.308 8.78999 16.904 8.54994 17.4202 8.19117C17.9315 7.82473 18.3561 7.35919 18.666 6.82507C18.9759 6.29094 19.1642 5.70028 19.2185 5.0918C19.2185 5.0918 16.3681 6.89151 14.9377 6.98311C13.5074 7.0747 11.2607 6.24787 11.2607 6.24787C11.4275 6.83879 11.7466 7.38039 12.1888 7.8232C12.6311 8.26601 13.1824 8.59593 13.7924 8.78283Z" fill="#EFB81D"/>
<path d="M25.9039 12.7635C26.5621 11.3351 26.7875 9.77552 26.9015 8.17384C26.913 8.0293 26.8732 7.88529 26.7886 7.76496C26.704 7.64463 26.5795 7.55497 26.4351 7.5104C23.9864 6.76774 21.4651 5.92605 19.2236 5.0918C19.1693 5.70028 18.9811 6.29094 18.6711 6.82507C18.3612 7.35919 17.9367 7.82473 17.4253 8.19117C16.9091 8.54994 16.3132 8.79 15.6839 8.89262C15.0547 8.99525 14.4091 8.95767 13.7975 8.78283C13.1866 8.59663 12.6342 8.26702 12.191 7.82417C11.7478 7.38131 11.428 6.83935 11.2607 6.24787C9.16437 7.37672 6.74673 8.59468 4.40423 9.71363C4.2953 9.76451 4.20717 9.84855 4.1537 9.95252C4.10022 10.0565 4.08444 10.1745 4.10884 10.288C4.43693 11.9415 4.94766 13.5572 5.63249 15.1078C5.66298 15.176 5.70761 15.2376 5.76367 15.2889C5.81973 15.3401 5.88608 15.38 5.9587 15.4062C6.03133 15.4323 6.10874 15.4441 6.18628 15.4409C6.26381 15.4377 6.33986 15.4196 6.40986 15.3876C7.48524 14.9073 8.56839 14.2835 9.62303 13.8651C9.66967 16.7219 9.40795 21.1754 8.98558 25.0644C8.977 25.1442 8.98504 25.2247 9.00924 25.3014C9.03344 25.3782 9.07332 25.4496 9.12657 25.5115C9.17981 25.5734 9.24538 25.6246 9.31948 25.6622C9.39357 25.6998 9.47473 25.7229 9.55825 25.7304C14.9066 26.1883 19.8611 25.8121 24.2144 24.1584C24.3539 24.1034 24.4681 24.0025 24.5366 23.874C24.605 23.7455 24.6231 23.5979 24.5875 23.4578C23.6158 19.5316 22.8851 16.0312 21.9963 12.4021C23.0121 12.4714 24.0693 12.8204 25.1058 13.12C25.2615 13.162 25.4278 13.1491 25.5743 13.0836C25.7208 13.0182 25.8378 12.9046 25.9039 12.7635Z" stroke="#130081" stroke-width="0.5" stroke-linecap="round" stroke-linejoin="round"/>
<path d="M13.7924 8.78283C14.404 8.95767 15.0495 8.99524 15.6788 8.89262C16.308 8.78999 16.904 8.54994 17.4202 8.19117C17.9315 7.82473 18.3561 7.35919 18.666 6.82507C18.9759 6.29094 19.1642 5.70028 19.2185 5.0918C19.2185 5.0918 16.3681 6.89151 14.9377 6.98311C13.5074 7.0747 11.2607 6.24787 11.2607 6.24787C11.4275 6.83879 11.7466 7.38039 12.1888 7.8232C12.6311 8.26601 13.1824 8.59593 13.7924 8.78283Z" stroke="#130081" stroke-width="0.5" stroke-linecap="round" stroke-linejoin="round"/>
<path d="M14.3105 7.93591C14.3042 7.95271 14.3042 7.97109 14.3105 7.98789C14.3235 8.00769 14.3546 8.01017 14.3805 8.01265C14.9745 8.05407 15.5713 8.0433 16.1633 7.98046C16.2073 7.98046 16.2617 7.96561 16.2799 7.926C16.289 7.90116 16.289 7.8741 16.2799 7.84926C16.2153 7.50268 16.1217 7.16161 16 6.82934C16 6.81201 15.9845 6.78973 15.9663 6.78478C15.9578 6.78116 15.9485 6.7793 15.9391 6.7793C15.9298 6.7793 15.9205 6.78116 15.9119 6.78478C15.5235 6.95834 15.0995 7.04713 14.6707 7.04471C14.4271 7.04471 14.3002 6.95559 14.2846 7.21552C14.2691 7.47545 14.3053 7.70321 14.3105 7.93591Z" fill="#130081"/>
<path d="M24.1963 12.8524C24.686 11.986 25.4919 8.33705 25.3339 7.15869" stroke="#130081" stroke-width="0.5" stroke-linecap="round" stroke-linejoin="round"/>
<path d="M5.63501 9.12158C5.93819 11.0426 6.64819 13.1023 7.39448 14.9094" stroke="#130081" stroke-width="0.5" stroke-linecap="round" stroke-linejoin="round"/>
<path d="M9.53491 17.7962C9.53491 17.7962 15.3419 18.6107 22.9965 16.7119" stroke="#130081" stroke-width="0.5" stroke-linecap="round" stroke-linejoin="round"/>
<path d="M9.69995 19.9556C9.69995 19.9556 15.8848 20.8518 23.2 18.5" stroke="#130081" stroke-width="0.75" stroke-linecap="round" stroke-linejoin="round"/>
</g>
<defs>
<clipPath id="clip0_893_5851">
<rect width="23" height="21" fill="white" transform="translate(4 5)"/>
</clipPath>
</defs>
</svg>
