<svg width="170" height="40" viewBox="0 0 170 40" fill="none" xmlns="http://www.w3.org/2000/svg">
<path d="M26.3756 15.3586C-11.877 26.5934 -45.2903 -9.13709 -77.3211 2.28193C-96.4474 5.96549 -135.069 13.7378 -136.543 15.3586C-138.018 16.9793 -139.462 52.8694 -140 70.6119L144.129 108C163.486 88.9069 196.715 45.269 174.777 23.4624C147.355 -3.79594 64.6282 4.12371 26.3756 15.3586Z" fill="#5DCCFC" fill-opacity="0.41"/>
<path d="M87.889 14.0189C63.1575 21.4491 38.5083 3.97733 7.35571 9.0124C-1.39534 10.4268 -13.8911 12.6546 -14.8209 14.0189C-15.7506 15.3832 -16.661 45.5937 -17 60.5285L162.125 92C174.328 75.9283 195.277 39.1961 181.446 20.8403C164.159 -2.10445 112.879 6.51087 87.889 14.0189Z" fill="#5DCCFC" fill-opacity="0.41"/>
</svg>
