<svg width="92" height="78" viewBox="0 0 92 78" fill="none" xmlns="http://www.w3.org/2000/svg">
<g style="mix-blend-mode:multiply" opacity="0.8">
<path d="M90.146 45.4828C88.17 41.4004 86.9843 37.0532 85.6644 30.8604C84.3444 24.6676 82.898 17.554 82.898 17.554L75.5236 13.602C75.4406 12.207 72.9943 5.05386 65.2484 0.358887C64.0628 0.564391 63.138 1.0821 62.6242 2.33489C62.3783 3.03086 61.9497 3.64786 61.3833 4.12119C59.9962 5.20404 57.949 5.30679 56.2852 5.6348C53.6374 6.14461 50.9421 6.03 48.2627 5.99048C45.3896 5.95887 42.6153 6.36197 39.7659 6.60699C37.0864 6.84016 34.3161 6.84807 31.7789 5.85216C30.7474 5.45696 29.7199 4.89183 28.6173 4.72189C27.2992 4.54979 25.959 4.7129 24.7206 5.19613C23.5943 5.59133 22.4878 6.12485 21.3535 6.53191C18.101 10.3535 17.4292 13.7364 17.4292 13.7364C17.4292 13.7364 11.9596 16.6332 12.256 22.5612C12.5524 28.4892 8.60045 35.998 5.63645 40.6416C2.67245 45.2852 -0.686743 51.0156 0.400056 53.9796C0.704359 54.8016 1.46709 55.6157 2.43533 56.3745C2.37908 55.3488 2.6177 54.3285 3.12298 53.4342C4.43504 51.2764 6.67977 49.9999 8.13806 47.9726C9.48174 46.0954 10.3512 43.8704 12.0545 42.2659C12.0796 42.2422 12.1105 42.2253 12.144 42.2169C12.1775 42.2086 12.2127 42.209 12.246 42.2181C12.2793 42.2272 12.3098 42.2448 12.3344 42.2691C12.359 42.2933 12.3769 42.3235 12.3865 42.3568C12.8686 44.811 12.015 47.2019 11.8885 49.6482C11.7283 52.1328 11.7839 54.6266 12.0545 57.1017C12.181 58.1727 12.2798 60.2 10.7938 60.3976C10.3517 60.438 9.90613 60.4167 9.46988 60.3344L9.58845 60.4016C10.5764 60.9944 9.09445 65.9344 9.19325 68.5032C9.22705 68.8118 9.3294 69.1089 9.49282 69.3728C9.65624 69.6368 9.8766 69.8608 10.1378 70.0287C9.93923 69.8258 9.78452 69.5843 9.68322 69.3192C9.58192 69.0541 9.53621 68.7709 9.54893 68.4874C9.67539 66.2268 11.8806 64.729 12.592 62.6582C13.1452 61.0497 13.2954 59.3345 13.6274 57.6707C13.8013 56.7776 14.5561 51.4582 16.2594 52.0747C16.6902 52.2328 16.9589 52.7742 17.1249 53.1576C17.5426 54.1563 17.8693 55.1906 18.1011 56.248C18.6567 58.8004 19.0317 61.3888 19.2234 63.9939C19.338 65.3139 19.4131 66.6378 19.5514 67.9459C19.6844 68.8329 19.7069 69.7329 19.6186 70.6254C19.4526 71.7873 18.8915 72.5105 18.0378 72.8504C19.7332 73.7435 18.1603 76.1463 19.5791 77.1976C21.0611 78.2844 24.6851 77.6283 37.9914 77.2331C47.1206 76.9604 60.8379 74.0715 70.5954 71.4118V71.3921C70.8325 71.1984 71.0736 70.9969 71.2949 70.7914C73.1919 68.9695 74.1008 66.622 74.2668 64.0177C74.4486 61.2513 74.4684 58.4098 74.5198 55.6236C74.5198 54.6672 73.8756 48.6602 75.7054 49.0198C76.7368 49.2214 77.2229 50.7627 77.5193 51.6044C78.008 53.0611 78.4144 54.5442 78.7365 56.0465C79.3801 58.9785 80.6042 61.752 82.3368 64.2034C83.3169 61.2157 83.1904 57.6747 82.8624 54.5763C82.6174 52.2881 81.8547 50.1145 81.412 47.8579C81.1236 46.3838 80.428 43.8071 81.6334 42.5544C81.6703 42.5182 81.7199 42.4979 81.7717 42.4979C81.8234 42.4979 81.873 42.5182 81.91 42.5544C83.0956 43.6609 83.2892 45.5618 83.724 47.0438C84.3444 49.1661 85.2534 51.2527 85.9964 53.3394C86.4545 54.7909 87.11 56.1726 87.9447 57.4455C87.2926 55.8054 86.7235 54.3037 86.7235 54.3037C93.1771 49.9604 92.1219 49.5652 90.146 45.4828Z" fill="#EDEBEC"/>
</g>
</svg>
