<svg width="36" height="36" viewBox="0 0 36 36" fill="none" xmlns="http://www.w3.org/2000/svg">
<circle cx="18" cy="18" r="18" fill="#767BF4"/>
<path d="M14.5623 23.8156C13.2148 24.1681 11.9171 23.7071 12.3347 25.2243C12.752 26.7416 14.1827 27.6859 15.5302 27.3334C16.8777 26.9809 17.6315 25.4654 17.214 23.9482C16.7967 22.4309 15.9098 23.4632 14.5623 23.8156Z" fill="white"/>
<path d="M14.3005 22.878C16.8333 22.2157 16.1754 21.3821 16.4545 19.7289C16.7163 18.1788 14.4652 13.4256 11.8856 14.1003C9.30605 14.775 9.81442 19.975 10.8193 21.2028C11.9329 22.5636 11.7676 23.5406 14.3005 22.878Z" fill="white"/>
<path d="M20.8083 19.78C19.4608 19.4275 18.574 18.3953 18.1567 19.9125C17.7393 21.4298 18.4932 22.9455 19.8405 23.2977C21.1879 23.6502 22.6184 22.7059 23.036 21.1887C23.4533 19.6714 22.1556 20.1323 20.8083 19.78Z" fill="white"/>
<path d="M23.4852 10.0651C20.9056 9.39059 18.6545 14.1438 18.9163 15.6937C19.1955 17.3469 18.5376 18.1803 21.0703 18.8428C23.603 19.5052 23.4379 18.5284 24.5517 17.1676C25.5564 15.9398 26.0648 10.7399 23.4852 10.0651Z" fill="white"/>
</svg>
