<svg width="66" height="46" viewBox="0 0 66 46" fill="none" xmlns="http://www.w3.org/2000/svg">
<g clip-path="url(#clip0_867_6185)">
<path d="M-59.144 23.5224C-56.6956 25.3266 -53.7657 26.3419 -50.7313 26.4377C-50.0164 26.4422 -49.3036 26.3465 -48.613 26.1535C-33.4039 38.8171 -10.4378 48.3497 8.11139 45.3606C26.0456 42.4007 41.8485 34.5401 57.129 24.725C60.6477 23.9995 63.8309 22.0912 66.1629 19.3095L66.4739 18.9011C63.1421 16.6235 59.1032 15.6489 55.0995 16.1566C41.2505 6.72761 25.0883 1.35716 8.37437 0.630625C-9.52929 -0.125667 -32.9477 8.73105 -49.1805 18.9261C-49.74 18.8544 -50.3048 18.8312 -50.8689 18.8567C-52.511 18.9055 -54.1204 19.355 -55.5609 20.1671C-57.0013 20.9793 -58.2303 22.1302 -59.144 23.5224Z" fill="url(#paint0_linear_867_6185)"/>
<path d="M-59.1029 23.5811C-56.6552 25.3829 -53.7261 26.3969 -50.6927 26.4926C-49.978 26.497 -49.2654 26.4015 -48.575 26.2087C-33.3704 38.8562 -10.411 48.3766 8.13267 45.3913C26.0616 42.4352 41.8598 34.5845 57.1358 24.782C60.6535 24.0574 63.8358 22.1516 66.167 19.3734C61.8479 20.6899 57.3524 21.2903 52.8549 21.1513C38.853 29.1226 23.6296 34.6216 7.84075 37.4114C7.13707 39.1258 6.02997 40.6419 4.61688 41.8263C3.2038 43.0107 1.52797 43.8272 -0.263273 44.2039C-3.13086 42.1551 -5.23773 39.1923 -6.25214 35.7821C-20.2001 33.5039 -33.7598 29.2957 -46.5528 23.275C-50.7259 23.6802 -54.9199 23.7825 -59.1029 23.5811Z" fill="#778A05"/>
<path d="M-18.9389 11.6303C-11.5235 10.0645 -3.83237 10.7717 3.15121 13.6613C10.3329 10.5197 18.1125 9.06596 25.9035 9.40972C16.2618 9.68219 6.91924 12.9822 -0.832912 18.8535C-0.49773 17.5619 0.228406 16.4065 1.24308 15.5503C-5.19495 13.0478 -12.0273 11.7207 -18.9389 11.6303Z" fill="#778A05"/>
<path style="mix-blend-mode:screen" d="M-25.729 11.2974C-18.1983 8.31181 -9.93683 7.85888 -2.17019 10.0058C-0.0932788 10.5776 2.22843 12.1202 4.33591 11.6188C6.44339 11.1174 8.81909 9.98148 11.1329 9.42295C15.8294 8.27385 20.6466 7.73416 25.4684 7.8169C35.1908 7.92915 44.6895 10.6585 52.992 15.7255C41.1455 7.91436 27.6075 3.09923 13.5056 1.68122C-7.70746 -0.463803 -29.5428 6.52346 -47.0357 19.5281C-39.6453 17.0248 -32.9942 14.1364 -25.729 11.2974Z" fill="url(#paint1_linear_867_6185)"/>
<path style="mix-blend-mode:screen" d="M0.683331 42.8003C-1.19606 41.2656 -2.68347 39.2939 -3.65486 37.0499C-4.07971 36.5078 -4.32181 35.8407 -4.34576 35.146C-4.36971 34.4513 -4.17426 33.7653 -3.78799 33.1883C-3.62799 32.9535 -3.4175 32.7587 -3.17258 32.6187C-2.92766 32.4788 -2.65483 32.3974 -2.37505 32.3808C-2.09527 32.3642 -1.81593 32.4128 -1.55847 32.523C-1.30102 32.6332 -1.0723 32.802 -0.889793 33.0164C1.2217 34.9628 0.820597 40.2121 0.683331 42.8003Z" fill="url(#paint2_linear_867_6185)"/>
</g>
<defs>
<linearGradient id="paint0_linear_867_6185" x1="3.07268" y1="10.7803" x2="5.09966" y2="49.3897" gradientUnits="userSpaceOnUse">
<stop stop-color="#CBED00"/>
<stop offset="1" stop-color="#97A833"/>
</linearGradient>
<linearGradient id="paint1_linear_867_6185" x1="1.37297" y1="-10.0371" x2="3.01652" y2="16.7645" gradientUnits="userSpaceOnUse">
<stop stop-color="#2A8A83"/>
<stop offset="0.14" stop-color="#277F78"/>
<stop offset="0.39" stop-color="#1D605B"/>
<stop offset="0.72" stop-color="#0E2F2D"/>
<stop offset="1"/>
</linearGradient>
<linearGradient id="paint2_linear_867_6185" x1="-9.12018" y1="23.2065" x2="5.64266" y2="47.3887" gradientUnits="userSpaceOnUse">
<stop stop-color="#2A8A83"/>
<stop offset="0.14" stop-color="#277F78"/>
<stop offset="0.39" stop-color="#1D605B"/>
<stop offset="0.72" stop-color="#0E2F2D"/>
<stop offset="1"/>
</linearGradient>
<clipPath id="clip0_867_6185">
<rect width="124" height="46" fill="white" transform="translate(-58)"/>
</clipPath>
</defs>
</svg>
