<svg width="61" height="30" viewBox="0 0 61 30" fill="none" xmlns="http://www.w3.org/2000/svg">
<g clip-path="url(#clip0_893_6213)">
<g style="mix-blend-mode:color-burn" opacity="0.4">
<path d="M22.6664 23.7189C35.1847 23.7189 45.3328 23.1327 45.3328 22.4097C45.3328 21.6867 35.1847 21.1006 22.6664 21.1006C10.1481 21.1006 0 21.6867 0 22.4097C0 23.1327 10.1481 23.7189 22.6664 23.7189Z" fill="#932C2C"/>
</g>
<g style="mix-blend-mode:color-burn" opacity="0.4">
<path d="M23.6498 29.405C30.6044 29.405 36.2422 29.1386 36.2422 28.8099C36.2422 28.4813 30.6044 28.2148 23.6498 28.2148C16.6951 28.2148 11.0573 28.4813 11.0573 28.8099C11.0573 29.1386 16.6951 29.405 23.6498 29.405Z" fill="#932C2C"/>
</g>
<g style="mix-blend-mode:color-burn" opacity="0.4">
<path d="M49 29C53.9706 29 58 28.7761 58 28.5C58 28.2239 53.9706 28 49 28C44.0294 28 40 28.2239 40 28.5C40 28.7761 44.0294 29 49 29Z" fill="#932C2C"/>
</g>
<path d="M41.5195 12.7124C41.5195 12.7124 9.28637 11.9322 6.99036 13.9907C6.99036 13.9907 16.2767 13.8673 19.8275 14.1318C23.3784 14.3962 40.3048 13.6072 41.5195 12.7124Z" fill="#4D648E"/>
<path d="M45.9692 17.887C45.7934 18.8546 45.331 19.7484 44.6408 20.4549C43.9507 21.1613 43.064 21.6484 42.0935 21.8541C41.8879 21.899 41.6799 21.9328 41.4706 21.9555L35.7973 22.5329L31.054 23.0134L29.777 23.1456H9.46437C8.56528 23.1607 7.67722 22.9479 6.88446 22.5275C6.0917 22.107 5.42053 21.4929 4.93465 20.7433C3.94683 19.1433 3.90679 17.1245 8.47211 15.9211C8.47211 15.9211 6.13605 15.6566 6.64776 14.4709C6.75816 14.2389 6.9343 14.0437 7.15473 13.9091C7.37515 13.7744 7.63035 13.7063 7.88921 13.7128H29.9683L35.3078 13.1926L40.3048 12.7034C41.0748 12.6251 41.8528 12.7232 42.5785 12.9899L42.8277 13.0913C44.3272 13.7304 46.4008 15.1497 45.9692 17.887Z" fill="#465B87"/>
<path d="M31.054 23.0135L29.7769 23.1458H9.46436C8.56526 23.1608 7.67721 22.948 6.88445 22.5276C6.09168 22.1071 5.42051 21.493 4.93464 20.7435C3.96017 19.1654 3.91122 17.1775 8.28076 15.9697L8.46765 15.9212C8.46765 15.9212 7.1906 15.7758 6.73229 15.2248C6.51426 14.9603 6.47866 14.5989 6.87023 14.114C6.96946 13.9894 7.09584 13.8886 7.23992 13.8191C7.38401 13.7496 7.54207 13.7133 7.70231 13.7129H28.8781C29.5761 13.7114 30.2605 13.9044 30.853 14.27C31.4455 14.6356 31.9222 15.1589 32.2287 15.7802C33.1853 17.7064 33.8617 20.6465 31.054 23.0135Z" fill="#344266"/>
<path opacity="0.6" d="M29.3809 20.7348C28.2106 22.3568 9.05054 22.2158 7.55546 20.7348C6.80792 19.9942 7.14608 19.289 7.67114 18.7644C8.24904 18.2035 9.02461 17.8873 9.83367 17.8829C13.4601 17.8167 26.502 17.614 26.9025 18.09C26.9025 18.09 13.9585 18.5308 10.6836 18.4206C7.40862 18.3104 7.77349 20.1617 10.154 20.7171C12.5346 21.2725 22.4172 20.8714 22.4172 20.8714C22.4172 20.8714 29.8971 20.8714 29.3364 18.7865C28.7757 16.7016 27.9303 15.4982 26.1549 15.9169C24.731 16.2519 12.6725 16.6663 8.30745 15.9654L8.49433 15.9169C8.49433 15.9169 7.21728 15.7715 6.75897 15.2205C6.75897 15.2205 24.4285 15.4056 26.2484 14.8987C28.0683 14.3918 31.5568 16.706 29.3809 20.7348Z" fill="#273451"/>
<path opacity="0.4" d="M42.0935 21.8542C41.8879 21.899 41.6799 21.9329 41.4706 21.9556L35.7973 22.533C39.891 17.0672 34.7472 13.2324 34.7472 13.2324L40.3048 12.6902C41.0748 12.612 41.8528 12.71 42.5785 12.9767C45.0125 16.1768 44.6966 21.2723 42.0935 21.8542Z" fill="#344266"/>
<path d="M30.569 23.2119H15.8986V26.3151H30.569V23.2119Z" fill="url(#paint0_linear_893_6213)"/>
<path opacity="0.5" d="M30.569 24.5518V26.3149H15.8852V25.0719C22.9245 26.0592 29.9816 24.6708 30.569 24.5518Z" fill="#C86111"/>
<path opacity="0.3" d="M30.569 23.2075V24.0098C28.9627 23.8555 19.6674 22.9915 15.8852 23.6703V23.2075H30.569Z" fill="#F9F5DE"/>
<path d="M17.2868 21.8541V27.6769C17.2864 27.8935 17.2217 28.1051 17.1006 28.2854C16.9795 28.4658 16.8075 28.6067 16.606 28.6908L16.4369 28.7569C16.2965 28.8164 16.1447 28.845 15.992 28.8406H13.5758C13.4326 28.8408 13.2906 28.8138 13.1575 28.7613L12.9751 28.6863C12.7706 28.6044 12.5955 28.4636 12.4726 28.282C12.3496 28.1005 12.2844 27.8867 12.2854 27.6681V21.8541C12.2848 21.6379 12.3487 21.4264 12.469 21.246C12.5894 21.0657 12.7608 20.9245 12.9618 20.8403L13.1086 20.7786C13.2493 20.7196 13.4007 20.6896 13.5536 20.6904H16.0765C16.2304 20.693 16.3819 20.7276 16.5215 20.7918L16.6105 20.8315C16.7655 20.9021 16.902 21.0073 17.0093 21.1388C17.1166 21.2703 17.1918 21.4246 17.229 21.5897C17.2573 21.6756 17.2767 21.7642 17.2868 21.8541Z" fill="url(#paint1_linear_893_6213)"/>
<path opacity="0.5" d="M17.2868 25.6143V27.6595C17.2864 27.8761 17.2217 28.0877 17.1006 28.268C16.9795 28.4483 16.8075 28.5893 16.606 28.6733L16.4369 28.7394C16.2965 28.799 16.1447 28.8275 15.992 28.8232H13.5758C13.4326 28.8233 13.2906 28.7964 13.1575 28.7439L12.9751 28.6689C12.7706 28.5869 12.5955 28.4461 12.4726 28.2646C12.3496 28.0831 12.2844 27.8693 12.2854 27.6507V27.4391C14.6704 28.9422 17.2868 25.6143 17.2868 25.6143Z" fill="#C86111"/>
<path opacity="0.3" d="M17.2646 21.6029C17.2646 21.6029 13.0641 20.2232 12.3077 22.9649V21.8541C12.3071 21.6379 12.371 21.4264 12.4913 21.246C12.6116 21.0657 12.783 20.9245 12.984 20.8403L13.1309 20.7786C13.2716 20.7196 13.423 20.6896 13.5758 20.6904H16.0988C16.2526 20.693 16.4042 20.7276 16.5437 20.7918L16.6327 20.8315C16.7878 20.9021 16.9243 21.0073 17.0316 21.1388C17.1389 21.2703 17.214 21.4246 17.2512 21.5897L17.2646 21.6029Z" fill="#F9F5DE"/>
<path d="M34.9697 21.8541V27.6769C34.9693 27.8935 34.9045 28.1051 34.7835 28.2854C34.6624 28.4658 34.4904 28.6067 34.2889 28.6908L34.1242 28.7569C33.9835 28.8153 33.8319 28.8439 33.6793 28.8406H31.2631C31.1199 28.8408 30.9779 28.8138 30.8449 28.7613L30.6624 28.6863C30.4579 28.6044 30.2828 28.4636 30.1599 28.282C30.0369 28.1005 29.9718 27.8867 29.9727 27.6681V21.8541C29.9727 21.6381 30.0368 21.4268 30.1571 21.2465C30.2773 21.0663 30.4484 20.925 30.6491 20.8403L30.7959 20.7786C30.9367 20.7196 31.0881 20.6896 31.2409 20.6904H33.7638C33.9177 20.693 34.0693 20.7276 34.2088 20.7918L34.2978 20.8315C34.4534 20.9013 34.5905 21.0062 34.6979 21.1379C34.8053 21.2695 34.8801 21.4242 34.9163 21.5897C34.946 21.675 34.964 21.764 34.9697 21.8541Z" fill="url(#paint2_linear_893_6213)"/>
<path opacity="0.5" d="M34.9697 25.6143V27.6595C34.9693 27.8761 34.9045 28.0877 34.7835 28.268C34.6624 28.4483 34.4904 28.5893 34.2889 28.6733L34.1242 28.7394C33.9835 28.7979 33.8319 28.8264 33.6793 28.8232H31.2631C31.1199 28.8233 30.9779 28.7964 30.8449 28.7439L30.6624 28.6689C30.4579 28.5869 30.2828 28.4461 30.1599 28.2646C30.0369 28.0831 29.9718 27.8693 29.9727 27.6507V27.4391C32.3533 28.9422 34.9697 25.6143 34.9697 25.6143Z" fill="#C86111"/>
<path opacity="0.3" d="M34.9474 21.6029C34.9474 21.6029 30.747 20.2232 29.9905 22.9649V21.8541C29.9905 21.6381 30.0546 21.4268 30.1749 21.2465C30.2951 21.0663 30.4662 20.925 30.6669 20.8403L30.8137 20.7786C30.9545 20.7196 31.1059 20.6896 31.2587 20.6904H33.7816C33.9355 20.693 34.0871 20.7276 34.2266 20.7918L34.3156 20.8315C34.4713 20.9013 34.6083 21.0062 34.7157 21.1379C34.8231 21.2695 34.8979 21.4242 34.9341 21.5897L34.9474 21.6029Z" fill="#F9F5DE"/>
<path d="M54.6459 8.10174V25.9845C54.646 26.5447 54.4466 27.0871 54.0827 27.516C53.7189 27.9449 53.214 28.233 52.6569 28.3295C52.5217 28.3523 52.3848 28.3641 52.2476 28.3647H44.8923C44.577 28.3647 44.2647 28.3032 43.9735 28.1835C43.6822 28.0638 43.4176 27.8884 43.1949 27.6673C42.9721 27.4462 42.7955 27.1838 42.6752 26.895C42.555 26.6063 42.4934 26.2969 42.494 25.9845V8.10174C42.4934 7.3658 42.7112 6.64591 43.1202 6.03153C43.5291 5.41714 44.1113 4.93534 44.7944 4.64597C44.9382 4.58138 45.087 4.52833 45.2394 4.48729C45.5858 4.38428 45.9456 4.3323 46.3073 4.33302H50.8548C51.1822 4.33298 51.5081 4.37446 51.8248 4.45644C52.0069 4.50404 52.1854 4.56443 52.3588 4.63716C53.0394 4.931 53.6185 5.41547 54.0248 6.031C54.4311 6.64654 54.647 7.36628 54.6459 8.10174Z" fill="url(#paint3_linear_893_6213)"/>
<path d="M49.4132 0.793457H47.4064V2.38029H49.4132V0.793457Z" fill="#47547C"/>
<path d="M48.8614 0.000139122H47.9715C47.8107 -0.000150146 47.6539 0.0494286 47.523 0.141921C47.3921 0.234413 47.2938 0.365169 47.2417 0.515853L47.1928 0.656908C47.175 0.706873 47.1695 0.760354 47.1769 0.812841C47.1843 0.865328 47.2043 0.915285 47.2353 0.958497C47.2663 1.00171 47.3073 1.03691 47.3549 1.06113C47.4025 1.08536 47.4552 1.0979 47.5087 1.0977H49.3375C49.391 1.09821 49.4438 1.08582 49.4914 1.06158C49.5389 1.03734 49.5798 1.00198 49.6105 0.958578C49.6411 0.915174 49.6607 0.865027 49.6674 0.812464C49.6741 0.759902 49.6678 0.706511 49.649 0.656908L49.6045 0.515853C49.5517 0.363006 49.4513 0.230707 49.3178 0.13802C49.1842 0.0453329 49.0244 -0.00294547 48.8614 0.000139122Z" fill="#DC831E"/>
<path opacity="0.5" d="M52.6569 28.3295C52.5217 28.3526 52.3848 28.3644 52.2476 28.3648H44.8923C44.577 28.3648 44.2647 28.3032 43.9735 28.1835C43.6822 28.0638 43.4176 27.8884 43.1949 27.6673C42.9721 27.4463 42.7955 27.1838 42.6752 26.8951C42.555 26.6063 42.4934 26.2969 42.494 25.9845V8.10175C42.4936 7.28764 42.7596 6.49534 43.2522 5.84367C43.7448 5.192 44.4373 4.71609 45.226 4.4873C45.5011 4.55025 45.7716 4.63124 46.0359 4.72973C46.0359 4.72973 43.5975 6.32097 43.811 8.4059C44.0246 10.4908 40.3047 27.3377 49.9249 28.0342C50.975 28.1091 51.8871 28.2105 52.6569 28.3295Z" fill="#C86111"/>
<path d="M52.3454 4.37277V4.72981H44.7811V4.37277C44.7811 3.84436 44.993 3.33761 45.3701 2.96397C45.7473 2.59033 46.2589 2.38041 46.7923 2.38041H50.3209C50.5861 2.37867 50.8491 2.42892 51.0946 2.52826C51.3402 2.62761 51.5635 2.77408 51.7517 2.95926C51.9398 3.14444 52.0892 3.36467 52.1911 3.60726C52.293 3.84985 52.3454 4.11001 52.3454 4.37277Z" fill="#59648B"/>
<path d="M51.8471 4.72956H45.2972C45.1646 4.72957 45.0374 4.6777 44.9433 4.58524C44.8491 4.49278 44.7956 4.36722 44.7944 4.23589C44.7956 4.10414 44.8489 3.97812 44.943 3.88496C45.037 3.79179 45.1642 3.73894 45.2972 3.73779H51.8471C51.9797 3.73896 52.1064 3.79195 52.1998 3.88524C52.2931 3.97852 52.3455 4.10454 52.3454 4.23589C52.3454 4.36682 52.2929 4.49239 52.1995 4.58497C52.106 4.67756 51.9793 4.72956 51.8471 4.72956Z" fill="#47547C"/>
<path opacity="0.2" d="M54.6459 8.10189V25.9846C54.646 26.5449 54.4465 27.0872 54.0827 27.5162C53.7189 27.9451 53.214 28.2332 52.6569 28.3296C52.5217 28.3525 52.3848 28.3643 52.2476 28.3649H51.4733C51.5117 28.3152 51.5618 28.2756 51.6192 28.2494C51.6765 28.2233 51.7395 28.2115 51.8026 28.215C53.5557 28.0652 53.3021 13.9467 53.1375 9.8959C52.9728 5.84506 51.8293 4.72987 51.8293 4.72987C51.8293 4.63289 51.8293 4.54474 51.7981 4.45658C51.726 3.87973 51.4422 3.34931 51.0007 2.96644C50.5592 2.58356 49.991 2.37499 49.4042 2.38048H50.3209C50.8543 2.38048 51.3658 2.59039 51.743 2.96403C52.1202 3.33767 52.3321 3.84442 52.3321 4.37283V4.63731C53.0177 4.92715 53.6023 5.40991 54.0136 6.02576C54.4249 6.64161 54.6448 7.36347 54.6459 8.10189Z" fill="#F9F5DE"/>
<path d="M48.4075 20.6949C50.258 20.6949 51.7581 19.2089 51.7581 17.3758C51.7581 15.5427 50.258 14.0566 48.4075 14.0566C46.557 14.0566 45.0569 15.5427 45.0569 17.3758C45.0569 19.2089 46.557 20.6949 48.4075 20.6949Z" stroke="#F9F5DE" stroke-miterlimit="10"/>
<path d="M51.994 11.6411C51.994 11.8652 51.9269 12.0842 51.8012 12.2705C51.6756 12.4568 51.497 12.602 51.288 12.6877C51.0791 12.7735 50.8491 12.7959 50.6273 12.7522C50.4055 12.7085 50.2017 12.6006 50.0418 12.4422C49.8819 12.2837 49.7729 12.0819 49.7288 11.8621C49.6847 11.6424 49.7074 11.4146 49.7939 11.2076C49.8805 11.0006 50.027 10.8237 50.2151 10.6992C50.4031 10.5747 50.6242 10.5083 50.8504 10.5083C51.1537 10.5083 51.4446 10.6276 51.659 10.8401C51.8735 11.0525 51.994 11.3407 51.994 11.6411Z" stroke="#F9F5DE" stroke-miterlimit="10"/>
</g>
<defs>
<linearGradient id="paint0_linear_893_6213" x1="23.2227" y1="27.1041" x2="23.2314" y2="24.7503" gradientUnits="userSpaceOnUse">
<stop stop-color="#D6702B"/>
<stop offset="1" stop-color="#D78D2B"/>
</linearGradient>
<linearGradient id="paint1_linear_893_6213" x1="14.7683" y1="30.7713" x2="14.7945" y2="24.7281" gradientUnits="userSpaceOnUse">
<stop stop-color="#D6702B"/>
<stop offset="1" stop-color="#D78D2B"/>
</linearGradient>
<linearGradient id="paint2_linear_893_6213" x1="32.4512" y1="30.7713" x2="32.4817" y2="24.7281" gradientUnits="userSpaceOnUse">
<stop stop-color="#D6702B"/>
<stop offset="1" stop-color="#D78D2B"/>
</linearGradient>
<linearGradient id="paint3_linear_893_6213" x1="42.494" y1="16.3489" x2="54.6459" y2="16.3489" gradientUnits="userSpaceOnUse">
<stop stop-color="#C86111"/>
<stop offset="0.796666" stop-color="#FF9C0A"/>
</linearGradient>
<clipPath id="clip0_893_6213">
<rect width="61" height="30" fill="white"/>
</clipPath>
</defs>
</svg>
