<svg width="17" height="17" viewBox="0 0 17 17" fill="none" xmlns="http://www.w3.org/2000/svg">
<circle cx="8.75024" cy="8.24976" r="8.24976" fill="#95E662"/>
<path d="M9.76299 12.8543L9.68785 12.8619C8.10973 12.9971 6.56766 12.3657 5.55681 11.1711C4.54596 9.97647 4.19464 8.36979 4.61564 6.86786C5.03723 5.36629 6.17786 4.15916 7.67028 3.63501C7.74681 3.60809 7.83176 3.63133 7.88215 3.6937C7.93237 3.75445 7.93766 3.84002 7.89474 3.90688C7.28218 4.89345 7.06713 6.06921 7.29304 7.20143C7.51892 8.33318 8.16964 9.33915 9.11519 10.0199C10.0613 10.701 11.2335 11.0072 12.4009 10.8779C12.5562 10.8622 12.7112 10.8334 12.8631 10.801C12.9412 10.7844 13.0216 10.8179 13.0635 10.8845C13.1054 10.9515 13.1001 11.0371 13.0494 11.0987C12.2387 12.0954 11.0534 12.7284 9.76299 12.8543Z" fill="white"/>
</svg>
