<svg width="184" height="190" viewBox="0 0 184 190" fill="none" xmlns="http://www.w3.org/2000/svg">
<path d="M260 121.882H-76V128.558H260V121.882Z" fill="#222222"/>
<path opacity="0.1" d="M23.5475 3L-28 130H143L89.1071 3H23.5475Z" fill="#F9F5DE"/>
<path d="M93.4158 2.23877H89.6526V74.425H93.4158V2.23877Z" fill="#344266"/>
<path d="M93.4292 2.23877H89.666V74.425H93.4292V2.23877Z" fill="#333333"/>
<path d="M89.6615 4.28174H24.3027V71.3115H89.6615V4.28174Z" fill="white"/>
<path d="M93 0H18V4H93V0Z" fill="#333333"/>
<path d="M95 71H19V78H95V71Z" fill="#333333"/>
<path d="M24.8672 2.23877H21.104V74.425H24.8672V2.23877Z" fill="#333333"/>
<path d="M89.6659 38.3342L24.8672 54.6728L89.6659 7.30127V38.3342Z" fill="#E3FBFF"/>
<path d="M58.0549 2.23877H55.918V74.425H58.0549V2.23877Z" fill="#333333"/>
<path d="M95.7722 8.64047H18.7476L19.8944 5.96143H94.6253L95.7722 8.64047Z" fill="#B1C25E"/>
<path d="M95.7722 11.9109H18.7476L19.8944 9.23633H94.6253L95.7722 11.9109Z" fill="#B1C25E"/>
<path d="M95.7722 15.1859H18.7476L19.8944 12.5068H94.6253L95.7722 15.1859Z" fill="#B1C25E"/>
<path d="M95.7722 25.0062H18.7476L19.8944 22.3271H94.6253L95.7722 25.0062Z" fill="#B1C25E"/>
<path d="M95.7722 28.2767H18.7476L19.8944 25.5977H94.6253L95.7722 28.2767Z" fill="#B1C25E"/>
<path d="M95.7722 31.5466H18.7476L19.8944 28.8721H94.6253L95.7722 31.5466Z" fill="#B1C25E"/>
<path d="M95.7722 34.8215H18.7476L19.8944 32.147H94.6253L95.7722 34.8215Z" fill="#B1C25E"/>
<path d="M95.7722 18.4563H18.7476L19.8944 15.7817H94.6253L95.7722 18.4563Z" fill="#B1C25E"/>
<path d="M95.7722 21.7313H18.7476L19.8944 19.0522H94.6253L95.7722 21.7313Z" fill="#B1C25E"/>
<path opacity="0.3" d="M95 71H19V73H95V71Z" fill="#F9F5DE"/>
<path d="M260 128.521H-76V199.964H260V128.521Z" fill="url(#paint0_radial_893_5277)"/>
<path d="M254.763 125.828C254.763 127.531 238.922 128.915 219.371 128.915C199.82 128.915 183.979 127.531 183.979 125.828C183.979 124.126 199.825 122.742 219.371 122.742C238.917 122.742 254.763 124.144 254.763 125.828Z" fill="#F9D4B2"/>
<defs>
<radialGradient id="paint0_radial_893_5277" cx="0" cy="0" r="1" gradientUnits="userSpaceOnUse" gradientTransform="translate(89.5494 -38.9006) scale(308.39 308.39)">
<stop stop-color="#333333"/>
<stop offset="0.44" stop-color="#333333"/>
<stop offset="1" stop-color="#333333"/>
</radialGradient>
</defs>
</svg>
