<svg width="36" height="36" viewBox="0 0 36 36" fill="none" xmlns="http://www.w3.org/2000/svg">
<circle cx="18" cy="18" r="18" fill="#28F215"/>
<path d="M20.1462 26.3402L20.0135 26.3536C17.2271 26.593 14.5067 25.5026 12.7259 23.4336C10.9451 21.3646 10.3299 18.5788 11.0778 15.9722C11.8268 13.3662 13.8443 11.2688 16.4807 10.3549C16.6159 10.3079 16.7657 10.348 16.8545 10.456C16.943 10.5612 16.9521 10.7096 16.8761 10.8258C15.7916 12.539 15.4082 14.5791 15.8035 16.5424C16.1987 18.5048 17.3443 20.2477 19.0115 21.4256C20.6796 22.6041 22.7481 23.1316 24.8094 22.9035C25.0835 22.8758 25.3573 22.8254 25.6256 22.7688C25.7635 22.7396 25.9054 22.7976 25.9791 22.9129C26.0529 23.0291 26.0433 23.1775 25.9536 23.2845C24.5191 25.016 22.4247 26.1177 20.1462 26.3402Z" fill="white"/>
</svg>
