<svg width="36" height="86" viewBox="0 0 36 86" fill="none" xmlns="http://www.w3.org/2000/svg">
<g clip-path="url(#clip0_711_103733)">
<path d="M9.98138 0.776939L9.98138 72.2734H26.0952L26.0952 0.776939H9.98138Z" fill="#414B54"/>
<g style="mix-blend-mode:multiply" opacity="0.7">
<path d="M9.98138 72.2729H13.9459V4.77566H22.1307V72.2729H26.0903V0.776367H9.98138V72.2729Z" fill="#333333"/>
</g>
<path d="M22.0818 23.7759H13.9905V31.8481H22.0818V23.7759Z" fill="#D5F82C"/>
<g style="mix-blend-mode:multiply" opacity="0.5">
<path d="M13.9948 31.8534H22.0861V23.7812H21.486C21.3503 23.927 21.2375 24.0924 21.1516 24.272C20.8712 24.8314 20.8515 25.5331 20.4088 25.9796C20.035 26.3526 19.4644 26.436 19.0119 26.7157C18.5728 27.0537 18.1979 27.4675 17.9052 27.9376C17.0082 29.085 15.8069 29.9588 14.4375 30.4598L13.9948 30.6217V31.8534Z" fill="#D5F82C"/>
</g>
<g style="mix-blend-mode:screen">
<path d="M13.9905 29.419L14.4775 24.1783L22.0818 23.9084V23.7759H13.9905V29.419Z" fill="#D5F82C"/>
</g>
<g style="mix-blend-mode:screen">
<path d="M14.8853 26.1015C15.1411 26.2487 15.5542 26.0132 15.81 25.5765C16.0658 25.1397 16.0658 24.6588 15.81 24.5116C15.5542 24.3644 15.1411 24.6 14.8853 25.0367C14.6295 25.4734 14.6295 25.9494 14.8853 26.1015Z" fill="#FF5766"/>
</g>
<path d="M22.0818 33.2812H13.9905V41.3534H22.0818V33.2812Z" fill="#D5F82C"/>
<g style="mix-blend-mode:multiply" opacity="0.5">
<path d="M13.9948 41.3534H22.0861V33.2812H21.486C21.3503 33.427 21.2375 33.5924 21.1516 33.772C20.8712 34.3314 20.8515 35.038 20.4088 35.4796C19.9662 35.9213 19.4644 35.936 19.0119 36.2157C18.5728 36.5537 18.1979 36.9675 17.9052 37.4376C17.0085 38.5864 15.8072 39.4619 14.4375 39.9647L13.9948 40.1218V41.3534Z" fill="#D5F82C"/>
</g>
<g style="mix-blend-mode:screen">
<path d="M13.9905 38.9244L14.4775 33.6787L22.0818 33.4088V33.2812H13.9905V38.9244Z" fill="#D5F82C"/>
</g>
<g style="mix-blend-mode:screen">
<path d="M14.8853 35.6029C15.1411 35.7502 15.5542 35.5146 15.81 35.0779C16.0658 34.6412 16.0658 34.1652 15.81 34.013C15.5542 33.8609 15.1411 34.1014 14.8853 34.5381C14.6295 34.9748 14.6295 35.4557 14.8853 35.6029Z" fill="#FF5766"/>
</g>
<path d="M22.0818 42.7808H13.9905V50.853H22.0818V42.7808Z" fill="#D5F82C"/>
<g style="mix-blend-mode:multiply" opacity="0.5">
<path d="M13.9948 50.853H22.0861V42.7808H21.486C21.3503 42.9265 21.2375 43.0919 21.1516 43.2715C20.8712 43.8358 20.8515 44.5375 20.4088 44.9841C20.035 45.3521 19.4644 45.4355 19.0119 45.7152C18.5728 46.0532 18.1979 46.4671 17.9052 46.9371C17.0085 48.086 15.8072 48.9614 14.4375 49.4642L13.9948 49.6262V50.853Z" fill="#D5F82C"/>
</g>
<g style="mix-blend-mode:screen">
<path d="M13.9905 48.4239L14.4775 43.1782L22.0818 42.9083V42.7808H13.9905V48.4239Z" fill="#D5F82C"/>
</g>
<g style="mix-blend-mode:screen">
<path d="M14.8853 45.103C15.1411 45.2502 15.5542 45.0146 15.81 44.5779C16.0658 44.1412 16.0658 43.6652 15.81 43.518C15.5542 43.3708 15.1411 43.6014 14.8853 44.043C14.6295 44.4847 14.6295 44.9558 14.8853 45.103Z" fill="#FF5766"/>
</g>
<g style="mix-blend-mode:multiply" opacity="0.5">
<path d="M22.0818 14.2778H13.9905V22.35H22.0818V14.2778Z" fill="#8D949E"/>
</g>
<g style="mix-blend-mode:multiply" opacity="0.5">
<path d="M13.9948 22.3534H22.0861V14.2812H21.486C21.3494 14.4263 21.2365 14.5919 21.1516 14.772C20.8712 15.3314 20.8515 16.0331 20.4088 16.4796C20.035 16.8526 19.4644 16.9311 19.0119 17.2157C18.5728 17.5519 18.198 17.9641 17.9052 18.4327C17.0085 19.5815 15.8072 20.457 14.4375 20.9598L13.9948 21.1218V22.3534Z" fill="#8D949E"/>
</g>
<g style="mix-blend-mode:multiply" opacity="0.5">
<path d="M22.0818 4.77637H13.9905V12.8486H22.0818V4.77637Z" fill="#8D949E"/>
</g>
<g style="mix-blend-mode:multiply" opacity="0.5">
<path d="M13.9948 12.8485H22.0861V4.77637H21.486C21.3498 4.92169 21.237 5.08723 21.1516 5.26708C20.8712 5.82649 20.8515 6.52821 20.4088 6.97476C20.035 7.34279 19.4644 7.4262 19.0119 7.70591C18.5728 8.04391 18.1979 8.45774 17.9052 8.92777C17.0085 10.0767 15.8072 10.9521 14.4375 11.4549L13.9948 11.6169V12.8485Z" fill="#8D949E"/>
</g>
<path d="M35.3396 68.6975L18.0361 51.4351L0.732695 68.6975L18.0361 85.96L35.3396 68.6975Z" fill="#414B54"/>
<g style="mix-blend-mode:multiply" opacity="0.7">
<path d="M18.0385 51.438L0.734314 68.6963L18.0385 85.9595L35.3426 68.6963L18.0385 51.438ZM18.0385 80.7628L5.94326 68.6963L18.0385 56.6297L30.1337 68.6963L18.0385 80.7628Z" fill="#333333"/>
</g>
<g clip-path="url(#clip1_711_103733)">
<path d="M15.1281 76.6672L17.1362 69.7806L13.9784 70.512L16.201 62.1284H21.7973L20.0202 66.496L22.7879 65.6839L15.1281 76.6672Z" fill="#D5F82C"/>
<path d="M21.3434 62.478H16.4007L14.3902 70.0617L17.5733 69.3248L15.7305 75.3289L22.0135 66.2702L19.5001 67.0071L21.3434 62.478Z" fill="url(#paint0_radial_711_103733)"/>
<path style="mix-blend-mode:screen" d="M14.294 78.2795L14.2648 78.1382L14.2439 78.2116C14.2594 78.233 14.2755 78.2556 14.294 78.2795Z" fill="url(#paint1_radial_711_103733)"/>
</g>
</g>
<defs>
<radialGradient id="paint0_radial_711_103733" cx="0" cy="0" r="1" gradientUnits="userSpaceOnUse" gradientTransform="translate(13.9783 70.2043) rotate(-30.2564) scale(10.1988 12.8244)">
<stop offset="0.42" stop-color="#CBE04F"/>
<stop offset="0.695" stop-color="#A3BA1F"/>
</radialGradient>
<radialGradient id="paint1_radial_711_103733" cx="0" cy="0" r="1" gradientUnits="userSpaceOnUse" gradientTransform="translate(-3.99864 43.9179) scale(64.7475 81.4183)">
<stop stop-color="#FFFD9E"/>
<stop offset="1"/>
</radialGradient>
<clipPath id="clip0_711_103733">
<rect width="34.6034" height="85.1775" fill="white" transform="translate(0.734131 0.776367)"/>
</clipPath>
<clipPath id="clip1_711_103733">
<rect width="8.80952" height="16.1508" fill="white" transform="translate(13.9784 62.1284)"/>
</clipPath>
</defs>
</svg>
