<svg width="20" height="20" viewBox="0 0 20 20" fill="none" xmlns="http://www.w3.org/2000/svg">
<g clip-path="url(#clip0_1704_1377)">
<path d="M11.6983 14.7062C11.507 14.8974 11.2448 14.9931 10.9116 14.9931C10.5784 14.9931 10.3131 14.8943 10.1157 14.6969L6.46923 11.2818C6.22243 11.0597 6.06047 10.7928 5.98335 10.4813C5.90622 10.1697 5.90622 9.85808 5.98335 9.5465C6.06047 9.23492 6.22243 8.96806 6.46923 8.74594L10.1157 5.34011C10.3378 5.11799 10.6 5.00847 10.9024 5.01156C11.2047 5.01464 11.4577 5.11491 11.6613 5.31235C11.8896 5.53447 12.0083 5.80286 12.0176 6.11753C12.0268 6.4322 11.9142 6.69751 11.6798 6.91346L8.3665 10.0046L11.6798 13.1143C11.9019 13.3179 12.0176 13.577 12.0268 13.8917C12.0361 14.2064 11.9266 14.4779 11.6983 14.7062H11.6983ZM9.99538 20C11.3775 20 12.6716 19.7409 13.8778 19.2226C15.0841 18.7043 16.1453 17.9871 17.0616 17.0708C17.9778 16.1546 18.6966 15.0918 19.218 13.8825C19.7393 12.6732 20 11.3805 20 10.0046C20 8.62873 19.7393 7.33766 19.218 6.13142C18.6966 4.92519 17.9778 3.86241 17.0616 2.94308C16.1453 2.02376 15.0841 1.30341 13.8778 0.782046C12.6716 0.260682 11.3775 0 9.99538 0C8.61947 0 7.3284 0.260682 6.12217 0.782046C4.91594 1.30341 3.85316 2.02376 2.93383 2.94308C2.0145 3.86241 1.2957 4.92519 0.77742 6.13142C0.25914 7.33766 0 8.62873 0 10.0046C0 11.3805 0.25914 12.6732 0.77742 13.8825C1.2957 15.0918 2.0145 16.1546 2.93383 17.0708C3.85316 17.9871 4.91748 18.7043 6.1268 19.2226C7.33612 19.7409 8.62564 20 9.99538 20Z" fill="#D5F82C"/>
</g>
<defs>
<clipPath id="clip0_1704_1377">
<rect width="20" height="20" fill="white"/>
</clipPath>
</defs>
</svg>
