<svg width="21" height="21" viewBox="0 0 21 21" fill="none" xmlns="http://www.w3.org/2000/svg">
<g clip-path="url(#clip0_864_4976)">
<path d="M11.8907 14.9095C11.6974 15.1028 11.4323 15.1995 11.0955 15.1995C10.7587 15.1995 10.4905 15.0997 10.2909 14.9001L6.60485 11.4479C6.35537 11.2234 6.19164 10.9536 6.11368 10.6386C6.03572 10.3237 6.03572 10.0087 6.11368 9.69372C6.19164 9.37875 6.35537 9.109 6.60485 8.88446L10.2909 5.44161C10.5155 5.21708 10.7806 5.10637 11.0862 5.10949C11.3918 5.11261 11.6475 5.21396 11.8533 5.41355C12.0841 5.63808 12.2042 5.90939 12.2135 6.22748C12.2229 6.54557 12.109 6.81376 11.872 7.03206L8.52274 10.1568L11.872 13.3003C12.0966 13.5061 12.2135 13.7681 12.2229 14.0862C12.2322 14.4043 12.1215 14.6787 11.8907 14.9095H11.8907ZM10.1693 20.2609C11.5664 20.2609 12.8746 19.9989 14.094 19.475C15.3133 18.9511 16.3861 18.226 17.3123 17.2998C18.2385 16.3736 18.9651 15.2993 19.4922 14.0768C20.0192 12.8544 20.2827 11.5477 20.2827 10.1568C20.2827 8.76597 20.0192 7.46087 19.4922 6.24153C18.9651 5.02218 18.2385 3.94785 17.3123 3.01853C16.3861 2.08921 15.3133 1.36103 14.094 0.834003C12.8746 0.306972 11.5664 0.043457 10.1693 0.043457C8.77846 0.043457 7.47336 0.306972 6.25401 0.834003C5.03467 1.36103 3.96034 2.08921 3.03102 3.01853C2.1017 3.94785 1.37508 5.02218 0.851167 6.24153C0.327254 7.46087 0.0652971 8.76598 0.0652971 10.1568C0.0652971 11.5477 0.327254 12.8544 0.851167 14.0768C1.37508 15.2993 2.1017 16.3736 3.03102 17.2998C3.96034 18.226 5.03623 18.9511 6.25869 19.475C7.48115 19.9989 8.7847 20.2609 10.1693 20.2609Z" fill="white"/>
</g>
<defs>
<clipPath id="clip0_864_4976">
<rect width="20.2174" height="20.2174" fill="white" transform="translate(0.0652466 0.043457)"/>
</clipPath>
</defs>
</svg>
