<svg width="137" height="114" viewBox="0 0 137 114" fill="none" xmlns="http://www.w3.org/2000/svg">
<g clip-path="url(#clip0_893_4512)">
<path d="M51.8535 4.05724V38.6539L55.003 42.5976H80.3256L82.6942 39.2408L82.9285 3.94135L79.9872 0.139648H55.003L51.8535 4.05724Z" fill="#3B3E4C"/>
<g style="mix-blend-mode:multiply" opacity="0.2">
<path d="M51.8535 4.05723V4.0834H72.6842V0.139648H55.003L51.8535 4.05723Z" fill="#3B3E4C"/>
</g>
<g style="mix-blend-mode:multiply" opacity="0.2">
<path d="M51.8535 38.6837V38.6538H72.6842V42.5976H55.003L51.8535 38.6837Z" fill="#3B3E4C"/>
</g>
<path d="M70.2634 42.5976H95.8648L98.2334 39.2445L98.464 3.94135L95.5264 0.139648H70.5423L67.389 4.05724V38.6539L70.2634 42.5976Z" fill="#292B38"/>
<path d="M74.6028 38.9902H92.5591C94.547 38.9902 96.1586 37.3702 96.1586 35.3717V7.19349C96.1586 5.19502 94.547 3.57495 92.5591 3.57495H74.6028C72.6149 3.57495 71.0034 5.19502 71.0034 7.19349V35.3717C71.0034 37.3702 72.6149 38.9902 74.6028 38.9902Z" fill="#272B35" stroke="#323542" stroke-width="2.03163" stroke-miterlimit="10"/>
<path d="M54.3264 38.6538H63.9348V12.1727H54.3264V38.6538Z" fill="#5B5F70"/>
<path d="M54.9324 38.6577H63.2579V12.7448H54.9324V38.6577Z" fill="#292B38"/>
<path d="M58.0261 38.6499H59.4689V18.7928H58.0261V38.6499Z" fill="#DFF848"/>
<path d="M135.403 6.13965H87.3831C86.8231 6.16487 86.296 6.41248 85.9174 6.8281C85.5389 7.24371 85.3398 7.79337 85.364 8.35638V35.2449C85.3408 35.8077 85.5402 36.3568 85.9186 36.7722C86.2969 37.1876 86.8235 37.4355 87.3831 37.4617H106.808V40.7101C106.803 40.81 106.787 40.9091 106.76 41.0054L103.201 43.4278H119.562L116.026 41.0279C115.993 40.915 115.978 40.7977 115.982 40.6802V37.4803H135.403C135.962 37.4532 136.488 37.205 136.866 36.7898C137.245 36.3747 137.444 35.8261 137.422 35.2636V8.35638C137.445 7.79363 137.246 7.24453 136.868 6.82913C136.489 6.41374 135.963 6.16584 135.403 6.13965Z" fill="#292B38"/>
<path d="M117.978 43.4275H101.599L105.161 41.0015H114.42L117.978 43.4275Z" fill="#292B38"/>
<path d="M114.371 36.4409H105.206V41.4276H114.371V36.4409Z" fill="#292B38"/>
<path d="M135.816 8.35638V35.2449C135.839 35.8077 135.64 36.3568 135.261 36.7722C134.883 37.1876 134.356 37.4355 133.797 37.4617H85.7806C85.2209 37.4355 84.6944 37.1876 84.316 36.7722C83.9377 36.3568 83.7383 35.8077 83.7615 35.2449V8.35638C83.7373 7.79337 83.9363 7.24371 84.3149 6.8281C84.6934 6.41248 85.2206 6.16487 85.7806 6.13965H133.797C134.357 6.16487 134.884 6.41248 135.262 6.8281C135.641 7.24371 135.84 7.79337 135.816 8.35638Z" fill="#3B3E4C"/>
<path d="M85.5165 33.2332V8.87912C85.5165 8.6154 85.6207 8.36248 85.8062 8.176C85.9917 7.98953 86.2433 7.88477 86.5056 7.88477H133.079C133.341 7.88575 133.591 7.99095 133.776 8.17732C133.961 8.36369 134.064 8.61604 134.064 8.87912V33.2407C134.064 33.5034 133.961 33.7554 133.776 33.9411C133.591 34.1269 133.34 34.2313 133.079 34.2313H86.5056C86.2991 34.2324 86.0975 34.1684 85.9292 34.0481C85.8011 33.955 85.6967 33.8325 85.625 33.6908C85.5532 33.5491 85.516 33.3922 85.5165 33.2332Z" fill="#6D6E70"/>
<path opacity="0.1" d="M118.287 34.2244L134.064 11.1451V8.87975C134.064 8.61668 133.961 8.36433 133.776 8.17796C133.591 7.99159 133.341 7.88639 133.079 7.8854H128.55L110.538 34.2244H118.287ZM106.678 34.2244L124.69 7.87793H120.816L102.792 34.2244H106.678ZM92.6485 34.2244L110.661 7.87793H106.786L88.7739 34.2244H92.6485Z" fill="#FFFFFA"/>
<path d="M105.734 40.6538H105.202C105.196 40.9363 105.111 41.2113 104.957 41.4478C104.803 41.6843 104.587 41.8728 104.332 41.9921C103.588 42.392 106.005 42.1005 106.005 41.9921C106.005 41.8837 105.734 40.6538 105.734 40.6538Z" fill="#292B38"/>
<path d="M113.847 40.6538H114.375C114.383 40.936 114.468 41.2105 114.622 41.4467C114.776 41.683 114.991 41.8718 115.245 41.9921C115.989 42.392 113.576 42.1005 113.576 41.9921C113.576 41.8837 113.847 40.6538 113.847 40.6538Z" fill="#292B38"/>
<path d="M90.9492 36.4669C91.0771 36.4669 91.2022 36.4287 91.3086 36.3573C91.415 36.2858 91.4979 36.1842 91.5469 36.0654C91.5959 35.9465 91.6087 35.8157 91.5837 35.6896C91.5588 35.5634 91.4971 35.4475 91.4066 35.3565C91.3162 35.2656 91.2009 35.2036 91.0754 35.1785C90.9499 35.1534 90.8198 35.1663 90.7015 35.2155C90.5833 35.2648 90.4823 35.3481 90.4112 35.4551C90.3401 35.5621 90.3021 35.6878 90.3021 35.8165C90.3021 35.989 90.3703 36.1544 90.4916 36.2764C90.613 36.3984 90.7776 36.4669 90.9492 36.4669Z" fill="#DFF848"/>
<path d="M88.4801 36.4669C88.6081 36.4669 88.7332 36.4287 88.8396 36.3573C88.946 36.2858 89.0289 36.1842 89.0779 36.0654C89.1269 35.9465 89.1397 35.8157 89.1147 35.6896C89.0897 35.5634 89.0281 35.4475 88.9376 35.3565C88.8471 35.2656 88.7319 35.2036 88.6064 35.1785C88.4809 35.1534 88.3508 35.1663 88.2325 35.2155C88.1143 35.2648 88.0133 35.3481 87.9422 35.4551C87.8711 35.5621 87.8331 35.6878 87.8331 35.8165C87.8331 35.989 87.9013 36.1544 88.0226 36.2764C88.144 36.3984 88.3085 36.4669 88.4801 36.4669Z" fill="#DFF848"/>
<path d="M86.011 36.4669C86.139 36.4669 86.2641 36.4287 86.3705 36.3573C86.4769 36.2858 86.5598 36.1842 86.6088 36.0654C86.6577 35.9465 86.6705 35.8157 86.6456 35.6896C86.6206 35.5634 86.559 35.4475 86.4685 35.3565C86.378 35.2656 86.2628 35.2036 86.1372 35.1785C86.0117 35.1534 85.8816 35.1663 85.7634 35.2155C85.6452 35.2648 85.5441 35.3481 85.473 35.4551C85.4019 35.5621 85.364 35.6878 85.364 35.8165C85.364 35.989 85.4322 36.1544 85.5535 36.2764C85.6749 36.3984 85.8394 36.4669 86.011 36.4669Z" fill="#DFF848"/>
<path d="M133.079 36.4669C133.207 36.4669 133.332 36.4287 133.438 36.3573C133.545 36.2858 133.628 36.1842 133.677 36.0654C133.726 35.9465 133.739 35.8157 133.714 35.6896C133.689 35.5634 133.627 35.4475 133.537 35.3565C133.446 35.2656 133.331 35.2036 133.205 35.1785C133.08 35.1534 132.95 35.1663 132.831 35.2155C132.713 35.2648 132.612 35.3481 132.541 35.4551C132.47 35.5621 132.432 35.6878 132.432 35.8165C132.432 35.989 132.5 36.1544 132.621 36.2764C132.743 36.3984 132.907 36.4669 133.079 36.4669Z" fill="#DFF848"/>
<path d="M130.61 36.4669C130.738 36.4669 130.863 36.4287 130.969 36.3573C131.076 36.2858 131.159 36.1842 131.208 36.0654C131.257 35.9465 131.27 35.8157 131.245 35.6896C131.22 35.5634 131.158 35.4475 131.068 35.3565C130.977 35.2656 130.862 35.2036 130.736 35.1785C130.611 35.1534 130.481 35.1663 130.362 35.2155C130.244 35.2648 130.143 35.3481 130.072 35.4551C130.001 35.5621 129.963 35.6878 129.963 35.8165C129.963 35.989 130.031 36.1544 130.153 36.2764C130.274 36.3984 130.438 36.4669 130.61 36.4669Z" fill="#DFF848"/>
<path d="M128.141 36.4669C128.269 36.4669 128.394 36.4287 128.5 36.3573C128.607 36.2858 128.69 36.1842 128.739 36.0654C128.788 35.9465 128.8 35.8157 128.775 35.6896C128.751 35.5634 128.689 35.4475 128.598 35.3565C128.508 35.2656 128.393 35.2036 128.267 35.1785C128.142 35.1534 128.012 35.1663 127.893 35.2155C127.775 35.2648 127.674 35.3481 127.603 35.4551C127.532 35.5621 127.494 35.6878 127.494 35.8165C127.494 35.9019 127.511 35.9865 127.543 36.0654C127.576 36.1443 127.623 36.216 127.683 36.2764C127.743 36.3368 127.815 36.3847 127.893 36.4174C127.972 36.4501 128.056 36.4669 128.141 36.4669Z" fill="#DFF848"/>
<path d="M142.055 108.516H144L140.743 44.9487H135.994L142.055 108.516Z" fill="#2A2A2A"/>
<path d="M109.694 99.7314H141.561V97.5222H109.694V99.7314Z" fill="#2A2A2A"/>
<path d="M53.9397 99.7314H85.8066V97.5222H53.9397V99.7314Z" fill="#2A2A2A"/>
<path d="M86.1635 108.516H88.1082L84.8509 44.9487H80.1024L86.1635 108.516Z" fill="#2A2A2A"/>
<path d="M53.7798 108.516H51.8387L55.0924 44.9487H59.8445L53.7798 108.516Z" fill="#434244"/>
<path d="M64.5743 54.1109L118.042 54.2305L118.034 51.5054L64.5669 51.3857L64.5743 54.1109Z" fill="#7F603D"/>
<path d="M98.36 54.1895L42.71 54.1035L42.684 51.3784L98.3377 51.4644L98.36 54.1895Z" fill="#AA8357"/>
<path d="M109.72 108.516H107.779L111.032 44.9487H115.784L109.72 108.516Z" fill="#2E2D2F"/>
<path d="M119.116 46.2724L143.952 46.3098L143.944 42.4856L119.086 42.4482L119.116 46.2724Z" fill="#7F603D"/>
<path d="M119.116 46.2723L50.4591 46.2162L50.4331 42.3921L119.087 42.4482L119.116 46.2723Z" fill="#AA8357"/>
<path d="M107.448 49.3824C107.448 49.1993 107.299 48.6685 107.117 48.6685H105.023C104.841 48.6685 104.693 49.1993 104.693 49.3824H107.455H107.448Z" fill="#DFF848"/>
<path d="M104.44 49.3824C104.44 49.1993 104.291 48.6685 104.109 48.6685H102.008C101.826 48.6685 101.677 49.1993 101.677 49.3824H104.44Z" fill="#DFF848"/>
<path d="M101.431 49.3824C101.431 49.1993 101.283 48.6685 101.1 48.6685H98.9995C98.8173 48.6685 98.6686 49.1993 98.6686 49.3824H101.431Z" fill="#DFF848"/>
<path d="M75.67 49.3824C75.67 49.1993 75.5213 48.6685 75.3391 48.6685H73.2382C73.056 48.6685 72.9072 49.1993 72.9072 49.3824H75.67Z" fill="#DFF848"/>
<path d="M72.6731 49.3824C72.6731 49.1993 72.5243 48.6685 72.3421 48.6685H70.2412C70.059 48.6685 69.9103 49.1993 69.9103 49.3824H72.6731Z" fill="#DFF848"/>
<path d="M69.6537 49.3824C69.6537 49.1993 69.5049 48.6685 69.3227 48.6685H67.2218C67.0396 48.6685 66.8909 49.1993 66.8909 49.3824H69.6537Z" fill="#DFF848"/>
<path d="M64.5371 49.3824C64.5371 49.1993 64.3884 48.6685 64.2061 48.6685H62.1052C61.923 48.6685 61.7743 49.1993 61.7743 49.3824H64.5371Z" fill="#DFF848"/>
<path d="M61.5178 49.3824C61.5178 49.1993 61.3691 48.6685 61.1869 48.6685H59.0859C58.9037 48.6685 58.755 49.1993 58.755 49.3824H61.5178Z" fill="#DFF848"/>
<path d="M58.5207 49.3824C58.5207 49.1993 58.372 48.6685 58.1898 48.6685H56.0889C55.9067 48.6685 55.7579 49.1993 55.7579 49.3824H58.5207Z" fill="#DFF848"/>
<path d="M54.62 49.3824C54.62 49.1993 54.4712 48.6685 54.289 48.6685H52.1881C52.0022 48.6685 51.8572 49.1993 51.8572 49.3824H54.62Z" fill="#DFF848"/>
<path d="M51.6119 49.3824C51.6119 49.1993 51.4632 48.6685 51.281 48.6685H49.1801C48.9941 48.6685 48.8491 49.1993 48.8491 49.3824H51.6119Z" fill="#DFF848"/>
<path d="M97.1924 49.3824C97.1924 49.1993 97.0437 48.6685 96.8615 48.6685H77.0497C76.8675 48.6685 76.7188 49.1993 76.7188 49.3824H97.1924Z" fill="#DFF848"/>
<path d="M47.6368 51.5469L109.121 51.5469V49.3862L47.6368 49.3862V51.5469Z" fill="#3B3E4C"/>
<path d="M94.6452 51.5469H109.121V49.3862H94.6452V51.5469Z" fill="#292B38"/>
<path d="M137.805 40.9639V42.3919H124.791C125.661 40.7807 127.765 39.7751 130.149 39.4013C131.515 39.1955 132.906 39.2182 134.265 39.4686C135.547 39.6767 136.76 40.1893 137.805 40.9639Z" fill="#3B3E4C"/>
<path d="M137.805 40.964V41.5247C137.805 41.5247 133.715 39.3491 130.16 39.4052C132.874 38.9977 135.92 39.4762 137.805 40.964Z" fill="#DFF848"/>
<g style="mix-blend-mode:multiply">
<path d="M137.805 40.9642V42.3922H127.914C128.732 40.8969 130.71 39.9287 132.93 39.596C133.376 39.5285 133.826 39.4873 134.276 39.4727C135.554 39.6813 136.763 40.1926 137.805 40.9642Z" fill="#CFD1D2"/>
</g>
<path d="M70.6751 80.3003C70.6751 80.3003 70.5938 75.3872 65.3001 74.7334C60.0064 74.0795 44.782 76.0441 44.782 76.0441V80.3003H70.6751Z" fill="#3B3E4C"/>
<path d="M39.304 33.3158C39.304 33.3158 43.2344 33.8062 43.7222 40.1935C44.2099 46.5809 41.3552 51.8021 42.0931 54.0244C42.8811 56.3977 45.3231 59.4531 45.8953 62.4016C46.3174 64.5799 44.8885 68.0754 45.8671 70.2318C47.6682 74.1924 47.3868 80.2906 47.3868 80.2906H38.5098L35.63 53.4492L34.4199 33.3032L39.304 33.3158Z" fill="#292B38"/>
<path d="M37.3622 33.6267H11.885C11.885 33.6267 9.76815 25.2213 16.0093 21.3486H33.2379C39.479 25.2213 37.3622 33.6267 37.3622 33.6267Z" fill="#292B38"/>
<path d="M33.2317 21.3486H16.0092C10.6655 24.6618 11.5035 31.3603 11.7318 32.8346H29.0074C28.6697 30.9831 27.8848 24.6618 33.2317 21.3486Z" fill="#3B3E4C"/>
<path d="M39.8262 80.2999H18.0793C17.5209 80.302 16.9709 80.1637 16.4794 79.8974C15.9878 79.6311 15.5704 79.2454 15.2651 78.7753C2.52967 59.0097 6.62578 41.6111 8.69885 35.5726C8.88636 35.0328 9.2095 34.551 9.63689 34.1738C10.2525 33.6178 11.0513 33.311 11.8788 33.3125H34.4231C34.9416 33.3116 35.4532 33.4315 35.9179 33.6628C36.3825 33.894 36.7876 34.2305 37.1011 34.6456C37.4147 35.0607 37.6283 35.5433 37.7251 36.0553C37.822 36.5674 37.7994 37.0951 37.6593 37.5969C35.7238 44.4653 33.6257 58.8368 42.7591 75.2705C43.0464 75.7846 43.1947 76.3654 43.1893 76.955C43.1839 77.5447 43.025 78.1226 42.7283 78.6313C42.4317 79.14 42.0077 79.5617 41.4985 79.8545C40.9893 80.1472 40.4128 80.3008 39.8262 80.2999Z" fill="#3B3E4C"/>
<path d="M32.8753 77.4518C23.7294 61.0056 26.2308 43.2077 28.1569 36.3551C28.7666 34.205 27.0313 33.3154 24.8081 33.3154H15.7873C14.9597 33.3139 14.161 33.6208 13.5454 34.1767C13.118 34.5539 12.7948 35.0358 12.6073 35.5755C10.5249 41.614 6.42876 59.0126 19.1736 78.7783C19.4789 79.2483 19.8963 79.634 20.3878 79.9003C20.8794 80.1666 21.4294 80.305 21.9877 80.3028H31.4182C33.9728 80.2997 34.126 79.7024 32.8753 77.4518Z" fill="#DFF848"/>
<path d="M22.8538 33.3155C22.6599 34.2397 22.4504 35.2519 22.2284 36.3552C21.4854 39.815 20.987 43.3235 20.7369 46.8541C20.6807 47.6914 20.3105 48.476 19.7011 49.0496C19.0917 49.6231 18.2886 49.9428 17.4538 49.9441C17.0086 49.9449 16.5679 49.855 16.1584 49.6796C15.7488 49.5043 15.3789 49.2472 15.0711 48.9239C14.7632 48.6006 14.5239 48.2179 14.3675 47.7989C14.2111 47.3799 14.141 46.9334 14.1613 46.4863C14.3356 42.0181 15.0603 37.5888 16.3188 33.2998L22.8538 33.3155Z" fill="#3B3E4C"/>
<path d="M71.1629 84.0719H16.9004C16.4028 84.0719 15.9256 83.8732 15.5738 83.5195C15.2219 83.1658 15.0243 82.686 15.0243 82.1858C15.0243 81.6856 15.2219 81.2059 15.5738 80.8522C15.9256 80.4985 16.4028 80.2998 16.9004 80.2998H71.1629C71.6605 80.2998 72.1377 80.4985 72.4895 80.8522C72.8414 81.2059 73.039 81.6856 73.039 82.1858C73.039 82.686 72.8414 83.1658 72.4895 83.5195C72.1377 83.8732 71.6605 84.0719 71.1629 84.0719Z" fill="#292B38"/>
<path d="M36.4773 85.3354L39.9762 88.7743H45.4074L48.8532 85.3354H36.4773Z" fill="#3B3E4C"/>
<path d="M44.7821 91.7607H40.9111V101.012H44.7821V91.7607Z" fill="#292B38"/>
<path d="M45.4575 88.7739H39.9762V93.6713H45.4575V88.7739Z" fill="#3B3E4C"/>
<path d="M51.3359 84.0654H34.4199V85.3354H51.3359V84.0654Z" fill="#292B38"/>
<path d="M25.3055 111.2C26.413 110.087 26.4131 108.281 25.3055 107.168C24.198 106.055 22.4023 106.055 21.2948 107.168C20.1873 108.281 20.1873 110.087 21.2948 111.2C22.4023 112.313 24.198 112.313 25.3055 111.2Z" fill="#292B38"/>
<path d="M65.1634 109.854C65.5248 108.322 64.5823 106.785 63.0583 106.422C61.5343 106.059 60.0059 107.006 59.6445 108.538C59.2831 110.07 60.2256 111.607 61.7496 111.97C63.2736 112.334 64.8021 111.386 65.1634 109.854Z" fill="#292B38"/>
<path d="M62.6956 105.023C59.5187 105.104 50.8137 106.742 49.1784 106.17C47.5431 105.598 46.1641 104.859 45.6764 104.124C45.1886 103.388 45.3637 101.012 45.3637 101.012H40.3014C40.3014 101.012 40.464 103.385 39.9887 104.124C39.5134 104.862 38.1126 105.595 36.4867 106.17C34.8607 106.745 26.1463 105.104 22.9726 105.023C19.7989 104.941 20.121 109.279 20.121 109.279C20.121 109.279 22.8069 110.137 24.6799 108.707C26.1193 107.572 27.9008 106.966 29.7297 106.987H55.9354C57.7643 106.966 59.5457 107.572 60.9852 108.707C62.8613 110.137 65.5441 109.279 65.5441 109.279C65.5441 109.279 65.8693 104.941 62.6956 105.023Z" fill="#3B3E4C"/>
<path d="M43.6159 106.987H41.9305V110.917H43.6159V106.987Z" fill="#3B3E4C"/>
<path d="M44.2098 108.597H41.3613V114H44.2098V108.597Z" fill="#292B38"/>
<path d="M73.727 66.7297C73.8765 66.9053 73.9672 67.1238 73.9862 67.3542C74.0052 67.5845 73.9516 67.8151 73.8328 68.0131C73.7141 68.2111 73.5364 68.3664 73.3249 68.4571C73.1133 68.5478 72.8788 68.5692 72.6545 68.5182C67.9955 67.5438 63.8244 69.1281 55.2694 70.2188C47.2367 71.2436 43.1718 70.3257 41.6428 69.8039C41.428 69.73 41.2418 69.5901 41.1105 69.4039C40.9792 69.2178 40.9094 68.9948 40.9112 68.7666V67.8236C40.9104 67.6552 40.9482 67.489 41.0216 67.3377C41.095 67.1865 41.2021 67.0542 41.3345 66.9512C41.4669 66.8481 41.6211 66.7771 41.7852 66.7436C41.9493 66.7101 42.1188 66.715 42.2807 66.758C44.1568 67.2735 48.1716 67.8833 55.2694 66.978C65.8412 65.6295 67.0106 63.5203 73.3299 66.4342C73.4747 66.5016 73.6036 66.5991 73.7082 66.7202L73.727 66.7297Z" fill="#292B38"/>
<path d="M55.4789 68.5342H55.3632C54.6154 68.5342 54.0093 69.1436 54.0093 69.8953V81.7207C54.0093 82.4724 54.6154 83.0818 55.3632 83.0818H55.4789C56.2266 83.0818 56.8328 82.4724 56.8328 81.7207V69.8953C56.8328 69.1436 56.2266 68.5342 55.4789 68.5342Z" fill="#292B38"/>
</g>
<defs>
<clipPath id="clip0_893_4512">
<rect width="144" height="113.86" fill="white" transform="translate(0 0.139648)"/>
</clipPath>
</defs>
</svg>
