<svg width="26" height="37" viewBox="0 0 26 37" fill="none" xmlns="http://www.w3.org/2000/svg">
<g clip-path="url(#clip0_1165_28281)" filter="url(#filter0_d_1165_28281)">
<path d="M19.6079 6.45925C19.5484 6.74888 19.3399 6.93618 19.1314 7.13505C18.6772 7.56563 18.1373 7.88809 17.5882 8.17579C13.7423 10.1897 9.02893 10.572 5.10114 8.73573C4.42541 8.41907 3.77015 8.03483 3.21356 7.52123C2.9939 7.31849 2.43545 6.85122 2.3796 6.5307C2.31072 6.15418 3.07767 6.24107 3.32711 6.17928C3.35503 6.17156 3.38482 6.16577 3.41274 6.15804C3.84834 6.05378 4.2951 5.99006 4.74 5.94758C7.73146 5.65409 10.7825 6.25072 13.7367 5.6734C15.1701 5.39342 16.5885 4.8354 18.0405 4.9725C18.4333 5.00918 18.8335 5.10186 19.15 5.34515C19.1742 5.36446 19.1965 5.38184 19.2189 5.40501C19.4981 5.65988 19.6824 6.08853 19.6061 6.45732L19.6079 6.45925Z" fill="#75B8EB"/>
<g style="mix-blend-mode:multiply" opacity="0.5">
<path d="M19.6079 6.45901C19.5484 6.74864 19.3399 6.93593 19.1314 7.13481C18.6772 7.56539 18.1373 7.88784 17.5882 8.17554C13.7423 10.1894 9.02893 10.5717 5.10114 8.73549C4.42541 8.41883 3.77015 8.03459 3.21356 7.52098C2.9939 7.31824 2.43545 6.85097 2.3796 6.53045C2.31072 6.15394 3.07767 6.24082 3.32711 6.17904C3.35503 6.17131 3.38482 6.16552 3.41274 6.1578C3.55236 6.1829 3.69197 6.20607 3.82414 6.22151C4.50545 6.30454 5.1849 6.38371 5.86436 6.45901C6.62944 6.54397 7.39452 6.62313 8.16147 6.69264C11.8715 7.02861 15.7695 7.1155 19.1295 5.44917C19.1593 5.43566 19.1891 5.42021 19.2207 5.40283C19.5 5.65771 19.6842 6.08635 19.6079 6.45515V6.45901Z" fill="#75B8EB"/>
</g>
<path d="M19.619 6.36475L19.3082 10.9235L18.3588 24.8121C18.3067 25.5806 17.8078 26.2371 17.1023 26.4785C11.8342 28.2877 7.24555 27.2643 4.85909 26.4302C4.16102 26.185 3.67516 25.5304 3.6249 24.7697L2.4931 8.20485L2.37769 6.53273C2.79839 6.58293 3.22095 6.69685 3.63793 6.74319C4.42349 6.82622 5.21464 6.86484 5.99833 6.93049C7.47638 7.05406 8.94883 7.24522 10.4287 7.31087C13.1484 7.43058 15.9053 7.29928 18.5654 6.65051C18.9191 6.56362 19.2691 6.46901 19.6172 6.36475H19.619Z" fill="#3BBFFF"/>
<g style="mix-blend-mode:multiply" opacity="0.5">
<path d="M19.3085 10.9232L18.3591 24.8119C18.307 25.5804 17.8081 26.2369 17.1026 26.4782C11.8345 28.2874 7.24586 27.2641 4.85939 26.4299C4.16133 26.1847 3.67547 25.5302 3.62521 24.7694L2.49341 8.20459C2.97926 10.1683 3.36646 12.159 3.64941 14.1651C3.87838 15.7851 4.04405 17.4186 4.45172 19C4.86126 20.5794 5.53326 22.1261 6.64459 23.2884C7.75405 24.4508 9.34937 25.1845 10.913 24.9702C12.123 24.8042 13.2176 24.0936 14.0609 23.1784C14.9041 22.2632 15.524 21.1529 16.0806 20.0272C17.5084 17.1445 18.5936 14.0802 19.3085 10.9252V10.9232Z" fill="#68CEFF"/>
</g>
<g style="mix-blend-mode:screen" opacity="0.5">
<path d="M12.391 7.90365C10.4326 7.91523 8.47992 7.72408 6.53464 7.48658C5.86449 7.40549 5.18318 7.31667 4.51862 7.44024C4.19657 7.5001 3.86522 7.61981 3.65115 7.87662C3.42777 8.14307 3.36261 8.52152 3.40729 8.87101C3.45383 9.22049 3.59903 9.54681 3.76098 9.85767C4.41809 11.1224 5.38422 12.2519 6.6333 12.8756C7.61804 13.368 8.72564 13.5244 9.81835 13.5823C10.764 13.6306 11.7301 13.6055 12.633 13.312C13.7461 12.949 14.703 12.194 15.5574 11.3676C16.4118 10.5412 17.1862 9.6279 18.0816 8.84977C18.3273 8.63737 18.5861 8.42884 18.7518 8.145C18.8802 7.92875 19.0719 7.16992 18.6419 7.16992C18.4092 7.16992 18.1412 7.27805 17.9122 7.32632C17.6646 7.37652 17.4152 7.42479 17.1657 7.4692C16.1494 7.64877 15.1255 7.77428 14.098 7.84379C13.5302 7.88241 12.9624 7.90172 12.3928 7.90558L12.391 7.90365Z" fill="#9CF1FF"/>
</g>
<g style="mix-blend-mode:screen" opacity="0.5">
<path d="M7.07831 7.91696C6.49566 7.84938 5.8888 7.77987 5.33407 7.97682C5.19074 8.02895 5.03251 8.12549 5.02134 8.28189C5.01017 8.44408 5.16095 8.56573 5.29684 8.64682C6.37838 9.29752 7.62373 9.6219 8.87095 9.70493C10.1182 9.78796 11.3728 9.63542 12.5977 9.37862C13.2511 9.24153 13.9101 9.06968 14.4964 8.73371C14.6435 8.64875 14.9693 8.45374 14.7031 8.30506C14.4834 8.18342 14.1763 8.23555 13.9417 8.251C12.4693 8.34561 10.9931 8.28961 9.52434 8.16797C8.70714 8.10039 7.89179 8.01157 7.07831 7.91503V7.91696Z" fill="#9CF1FF"/>
</g>
<g style="mix-blend-mode:screen" opacity="0.5">
<path d="M15.6336 8.16199C15.5535 8.19674 15.4735 8.23922 15.4176 8.30873C15.3618 8.37825 15.3357 8.48058 15.3767 8.55974C15.4288 8.66015 15.5573 8.68332 15.6671 8.68911C15.8253 8.69684 15.9854 8.69684 16.1455 8.68718C16.4154 8.6698 16.6853 8.62539 16.9385 8.52885C17.0874 8.47286 17.4783 8.32804 17.5156 8.13882C17.5751 7.82023 16.7486 7.89746 16.596 7.91677C16.2684 7.95925 15.9389 8.02876 15.6336 8.16392V8.16199Z" fill="#9CF1FF"/>
</g>
<path opacity="0.19" d="M11.0001 0.318848C6.06992 0.318848 2.07227 1.15798 2.07227 2.19308C2.07227 2.21151 2.07227 2.22993 2.07578 2.24668L3.72447 25.987L3.81948 27.3353C3.81948 27.3353 3.90922 28.1728 4.3315 28.4307C4.3579 28.4491 4.38781 28.4625 4.41772 28.4742C4.68341 28.5764 8.24998 28.9801 11.0019 28.9282C13.7538 28.9801 17.3221 28.5764 17.586 28.4742C17.6582 28.4474 17.7215 28.4039 17.7778 28.3486C18.1104 28.0287 18.186 27.3336 18.186 27.3336L18.2723 26.0908L19.9245 2.24668C19.928 2.22826 19.928 2.20983 19.928 2.19308C19.9297 1.15798 15.9321 0.318848 11.0001 0.318848Z" fill="#9CCAFF"/>
<path opacity="0.33" d="M19.9139 2.41942L18.2899 25.8097L18.2705 26.0927L18.1843 27.3355C18.1843 27.3355 18.1843 27.3389 18.1843 27.3439C18.1843 27.3472 18.1843 27.3506 18.1843 27.354C18.1843 27.359 18.1843 27.3623 18.1843 27.369C18.1843 27.3741 18.1843 27.3807 18.1808 27.3891C18.1808 27.3941 18.1808 27.4008 18.1773 27.4075C18.1773 27.4176 18.1738 27.426 18.172 27.4377C18.172 27.4444 18.1685 27.4528 18.1685 27.4611C18.1685 27.4729 18.165 27.4863 18.1615 27.4997C18.1615 27.508 18.1579 27.5164 18.1579 27.5248C18.1544 27.5399 18.1527 27.5533 18.1474 27.57C18.1474 27.575 18.1439 27.5817 18.1439 27.5884C18.1368 27.6219 18.1263 27.6571 18.1175 27.694C18.1175 27.704 18.1139 27.7141 18.1104 27.7241C18.1069 27.7409 18.0999 27.7559 18.0946 27.7744C18.0946 27.7794 18.0911 27.7861 18.0893 27.7928C18.0893 27.7995 18.0858 27.8062 18.084 27.8129C18.0788 27.8296 18.0735 27.8447 18.0664 27.8631C18.0612 27.8765 18.0559 27.8899 18.0506 27.905C18.0453 27.9217 18.0383 27.9368 18.0313 27.9519C18.0242 27.967 18.0189 27.982 18.0119 27.9988C18.0066 28.0139 17.9996 28.0289 17.9925 28.044L17.9661 28.0926C17.9591 28.106 17.9538 28.1177 17.9468 28.1328C17.931 28.1613 17.9134 28.1881 17.8958 28.2149C17.8922 28.2199 17.8887 28.2249 17.8852 28.2299C17.8694 28.2517 17.8518 28.2735 17.8359 28.2919C17.8289 28.3003 17.8219 28.3087 17.8148 28.3154C17.8025 28.3271 17.7937 28.3405 17.7814 28.3505V28.3472C17.7251 28.4008 17.6635 28.4477 17.5896 28.4745C17.3257 28.5766 13.7574 28.9803 11.0054 28.9284C8.25354 28.9803 4.68697 28.5766 4.42128 28.4745C4.33858 28.4426 4.26644 28.3874 4.20486 28.3204C4.20134 28.317 4.1943 28.3103 4.19078 28.307C4.17495 28.2886 4.16087 28.2685 4.14503 28.25C4.13976 28.2417 4.13448 28.235 4.1292 28.2283C4.11512 28.2098 4.10281 28.1881 4.08873 28.168C4.08521 28.1579 4.07817 28.1495 4.07289 28.1428C4.06234 28.1227 4.05002 28.101 4.03946 28.0809C4.03594 28.0708 4.03067 28.0624 4.02539 28.0524C4.01483 28.0306 4.00603 28.0088 3.99723 27.9871C3.99372 27.977 3.98844 27.9686 3.98492 27.9586L3.95852 27.8933C3.95501 27.8832 3.95149 27.8732 3.94797 27.8631C3.93917 27.8414 3.93213 27.8196 3.92685 27.7995C3.92333 27.7894 3.91981 27.7794 3.9163 27.7693C3.91278 27.7593 3.91102 27.7492 3.9075 27.7392C3.90398 27.7275 3.90046 27.7157 3.8987 27.7074C3.89518 27.699 3.89342 27.6889 3.8899 27.6806C3.88638 27.6605 3.87935 27.6404 3.87583 27.6219C3.87583 27.6136 3.87231 27.6052 3.87055 27.5968C3.86703 27.5784 3.86175 27.56 3.85999 27.5432C3.85647 27.5348 3.85647 27.5281 3.85471 27.5214C3.85119 27.5047 3.84943 27.4896 3.84591 27.4745C3.84591 27.4678 3.8424 27.4628 3.8424 27.4561C3.83888 27.4427 3.83712 27.4293 3.83536 27.4176C3.83536 27.4109 3.83536 27.4075 3.83184 27.4008C3.83184 27.3908 3.82832 27.3807 3.82832 27.3724C3.82832 27.3673 3.82832 27.364 3.82832 27.359C3.82832 27.3556 3.82832 27.3489 3.82832 27.3456C3.82832 27.3389 3.82832 27.3355 3.82832 27.3355L3.7333 25.9872L3.71571 25.7377L2.07935 2.31055C2.10574 2.38927 2.14445 2.46464 2.19723 2.53164C2.20251 2.53666 2.20779 2.54336 2.21483 2.55006L2.21835 2.55341C2.2641 2.60031 2.3116 2.64386 2.35735 2.69075C2.35735 2.69075 2.35735 2.69075 2.36087 2.6941C2.36087 2.6941 2.36439 2.6941 2.36439 2.69745C2.36791 2.69745 2.38902 2.71085 2.41542 2.7276L4.08521 25.1297C4.13448 25.7896 4.59371 26.3574 5.25178 26.5701C7.5075 27.2937 11.8447 28.1814 16.8242 26.612C17.4911 26.4026 17.9609 25.8331 18.0119 25.1665L19.694 2.58188C19.7591 2.54671 19.8225 2.50651 19.8752 2.45291C19.8876 2.44287 19.9016 2.43114 19.9139 2.42109V2.41942Z" fill="#A7C0FF"/>
<path opacity="0.33" d="M9.90576 28.1913C9.66822 28.3404 9.37086 28.3605 9.08757 28.3722C7.95092 28.4158 6.81074 28.3806 5.67936 28.2684C5.16558 28.2165 4.63948 28.1461 4.18376 27.9133C4.08523 27.8631 3.99197 27.8044 3.90224 27.7408C3.89872 27.7291 3.8952 27.7173 3.89344 27.709C3.88992 27.7006 3.88816 27.6905 3.88464 27.6822C3.88112 27.6621 3.87409 27.642 3.87057 27.6235C3.87057 27.6152 3.86705 27.6068 3.86529 27.5984C3.86177 27.58 3.85649 27.5616 3.85473 27.5448C3.85121 27.5364 3.85121 27.5297 3.84945 27.523C3.84593 27.5063 3.84417 27.4912 3.84065 27.4762C3.84065 27.4695 3.83714 27.4644 3.83714 27.4577C3.83362 27.4443 3.83186 27.4309 3.8301 27.4192C3.8301 27.4125 3.8301 27.4092 3.82658 27.4025C3.82658 27.3924 3.82306 27.3824 3.82306 27.374C3.82306 27.369 3.82306 27.3656 3.82306 27.3606C3.82306 27.3572 3.82306 27.3505 3.82306 27.3472C3.82306 27.3405 3.82306 27.3371 3.82306 27.3371L3.72804 25.9888L3.71045 25.7393C3.77203 25.8079 3.83538 25.8733 3.904 25.9369C4.5128 26.5131 5.29755 26.9033 6.10517 27.1646C7.25942 27.5398 8.4823 27.6838 9.6647 27.9703C9.78611 28.0004 9.93567 28.0758 9.90752 28.1913H9.90576Z" fill="#A7FFFF"/>
<path opacity="0.33" d="M18.2899 25.8096L18.2706 26.0926L18.1844 27.3354C18.1844 27.3354 18.1844 27.3388 18.1844 27.3438C18.1844 27.3471 18.1844 27.3505 18.1844 27.3538C18.1844 27.3589 18.1844 27.3622 18.1844 27.3689C18.1844 27.3739 18.1844 27.3806 18.1808 27.389C18.1808 27.394 18.1809 27.4007 18.1773 27.4074C18.1773 27.4175 18.1738 27.4259 18.1721 27.4376C18.1721 27.4443 18.1685 27.4527 18.1685 27.461C18.1685 27.4728 18.165 27.4862 18.1615 27.4996C18.1615 27.5079 18.158 27.5163 18.158 27.5247C18.1545 27.5398 18.1527 27.5532 18.1474 27.5699C18.1474 27.5749 18.1439 27.5816 18.1439 27.5883C18.1369 27.6218 18.1263 27.657 18.1175 27.6939C18.1175 27.7039 18.114 27.714 18.1105 27.724C18.1069 27.7408 18.0999 27.7558 18.0946 27.7743C18.0946 27.7793 18.0911 27.786 18.0894 27.7927C18.0243 27.8362 17.9574 27.8764 17.887 27.9116C17.4313 28.1461 16.9052 28.2164 16.3914 28.2667C15.26 28.3772 14.1199 28.4141 12.9814 28.3705C12.6982 28.3605 12.4008 28.3387 12.1633 28.1896C12.1333 28.0741 12.2847 27.9987 12.4061 27.9685C13.5885 27.6821 14.8113 27.5381 15.9656 27.1629C16.7715 26.8999 17.5562 26.5114 18.1668 25.9352C18.209 25.895 18.253 25.8531 18.2935 25.8096H18.2899Z" fill="#A7FFFF"/>
<path d="M19.9297 2.19308C19.9297 2.21151 19.9297 2.22993 19.9262 2.24668C19.7907 3.25666 15.8476 4.06899 11.0019 4.06899C6.15614 4.06899 2.21127 3.25833 2.07578 2.24668C2.07227 2.22826 2.07227 2.20983 2.07227 2.19308C2.07227 1.15798 6.06992 0.318848 11.0001 0.318848C15.9303 0.318848 19.928 1.15798 19.928 2.19308H19.9297Z" stroke="white" stroke-width="0.81" stroke-miterlimit="10"/>
<path d="M11.0001 0.318848C6.06992 0.318848 2.07227 1.15798 2.07227 2.19308C2.07227 2.21151 2.07227 2.22993 2.07578 2.24668L3.72447 25.987L3.81948 27.3353C3.81948 27.3353 3.90922 28.1728 4.3315 28.4307C4.3579 28.4491 4.38781 28.4625 4.41772 28.4742C4.68341 28.5764 8.24998 28.9801 11.0019 28.9282C13.7538 28.9801 17.3221 28.5764 17.586 28.4742C17.6582 28.4475 17.7215 28.4039 17.7778 28.3486C18.1104 28.0287 18.186 27.3336 18.186 27.3336L18.2723 26.0908L19.9245 2.24668C19.928 2.22826 19.928 2.20983 19.928 2.19308C19.9297 1.15798 15.9321 0.318848 11.0001 0.318848Z" stroke="white" stroke-width="0.81" stroke-miterlimit="10"/>
<path opacity="0.19" d="M19.0711 2.99533L17.7321 25.9501C17.521 26.2549 17.2043 26.4911 16.8242 26.61C16.1644 26.8177 15.5134 26.9835 14.8782 27.1108L16.0131 3.74402C18.589 3.6653 19.0711 2.99365 19.0711 2.99365V2.99533Z" fill="#9CCAFF"/>
<path opacity="0.19" d="M7.10454 27.0572C6.61715 26.9534 6.17375 26.8412 5.77786 26.7273C5.59311 26.6737 5.41715 26.6218 5.25352 26.5682C5.18138 26.5447 5.11451 26.5179 5.04765 26.4861L3.25293 3.12598L4.18372 3.34204L5.80073 3.7189L7.10454 27.0589V27.0572Z" fill="#9CCAFF"/>
<path opacity="0.19" d="M5.77786 26.7273C5.59311 26.6737 5.41715 26.6218 5.25352 26.5682C5.18138 26.5447 5.11451 26.5179 5.04765 26.4861L3.25293 3.12598L4.18372 3.34204C4.26994 4.22472 5.39252 20.8399 5.77786 26.7273Z" fill="#9CCAFF"/>
<line x1="11.125" y1="16.061" x2="11.125" y2="20.0123" stroke="white" stroke-linecap="round"/>
<line x1="8.875" y1="17.8901" x2="13.125" y2="17.8901" stroke="white" stroke-linecap="round"/>
</g>
<defs>
<filter id="filter0_d_1165_28281" x="0" y="0" width="26" height="37" filterUnits="userSpaceOnUse" color-interpolation-filters="sRGB">
<feFlood flood-opacity="0" result="BackgroundImageFix"/>
<feColorMatrix in="SourceAlpha" type="matrix" values="0 0 0 0 0 0 0 0 0 0 0 0 0 0 0 0 0 0 127 0" result="hardAlpha"/>
<feOffset dx="2" dy="4"/>
<feGaussianBlur stdDeviation="2"/>
<feComposite in2="hardAlpha" operator="out"/>
<feColorMatrix type="matrix" values="0 0 0 0 0 0 0 0 0 0 0 0 0 0 0 0 0 0 0.25 0"/>
<feBlend mode="normal" in2="BackgroundImageFix" result="effect1_dropShadow_1165_28281"/>
<feBlend mode="normal" in="SourceGraphic" in2="effect1_dropShadow_1165_28281" result="shape"/>
</filter>
<clipPath id="clip0_1165_28281">
<rect width="18" height="29" fill="white" transform="translate(2)"/>
</clipPath>
</defs>
</svg>
