<svg width="21" height="21" viewBox="0 0 21 21" fill="none" xmlns="http://www.w3.org/2000/svg">
<g clip-path="url(#clip0_864_4975)">
<path d="M9.08753 14.9095C9.28088 15.1028 9.54595 15.1995 9.88275 15.1995C10.2196 15.1995 10.4877 15.0997 10.6873 14.9001L14.3734 11.4479C14.6229 11.2234 14.7866 10.9536 14.8646 10.6386C14.9426 10.3237 14.9426 10.0087 14.8646 9.69372C14.7866 9.37875 14.6229 9.109 14.3734 8.88446L10.6873 5.44161C10.4628 5.21708 10.1977 5.10637 9.89211 5.10949C9.5865 5.11261 9.33078 5.21396 9.12495 5.41355C8.89418 5.63808 8.77412 5.90939 8.76476 6.22748C8.75541 6.54557 8.86923 6.81376 9.10624 7.03206L12.4555 10.1568L9.10624 13.3003C8.88171 13.5061 8.76476 13.7681 8.75541 14.0862C8.74605 14.4043 8.85676 14.6787 9.08753 14.9095H9.08753ZM10.809 20.2609C9.41185 20.2609 8.10363 19.9989 6.88429 19.475C5.66494 18.9511 4.59217 18.226 3.66597 17.2998C2.73977 16.3736 2.01315 15.2993 1.48612 14.0768C0.959087 12.8544 0.695572 11.5477 0.695572 10.1568C0.695572 8.76597 0.959087 7.46087 1.48612 6.24153C2.01315 5.02218 2.73977 3.94785 3.66597 3.01853C4.59217 2.08921 5.66494 1.36103 6.88429 0.834003C8.10363 0.306972 9.41185 0.043457 10.809 0.043457C12.1998 0.043457 13.5049 0.306972 14.7243 0.834003C15.9436 1.36103 17.0179 2.08921 17.9473 3.01853C18.8766 3.94785 19.6032 5.02218 20.1271 6.24153C20.651 7.46087 20.913 8.76598 20.913 10.1568C20.913 11.5477 20.651 12.8544 20.1271 14.0768C19.6032 15.2993 18.8766 16.3736 17.9473 17.2998C17.0179 18.226 15.942 18.9511 14.7196 19.475C13.4971 19.9989 12.1936 20.2609 10.809 20.2609Z" fill="white"/>
</g>
<defs>
<clipPath id="clip0_864_4975">
<rect width="20.2174" height="20.2174" fill="white" transform="matrix(-1 0 0 1 20.913 0.043457)"/>
</clipPath>
</defs>
</svg>
