<svg width="36" height="36" viewBox="0 0 36 36" fill="none" xmlns="http://www.w3.org/2000/svg">
<circle cx="18" cy="18" r="18" fill="#45ACFF"/>
<path d="M18.5608 10.2357C18.5495 10.2214 18.5345 10.2107 18.527 10.2L18.5233 10.1964C18.3882 10.075 18.2044 10 18.0019 10C17.7956 10 17.6118 10.075 17.4805 10.1964L17.4767 10.2C17.4655 10.2107 17.4542 10.2214 17.443 10.2357C17.2141 10.4607 16.9253 10.75 16.6027 11.0964C15.95 11.8 15.1547 12.7393 14.4083 13.8393C13.1554 15.6893 12.0488 17.9857 12.0038 20.3786C12.0038 20.425 12 20.475 12 20.5214C12 21.225 12.1463 21.8964 12.4089 22.5143C12.5627 22.8714 12.754 23.2071 12.9791 23.5214C14.0481 25.0143 15.8975 26 17.9981 26C21.3142 26 24 23.5464 24 20.5214C24 15.9536 20.0538 11.6857 18.5608 10.2357ZM17.9981 24C17.4054 24 16.8465 23.8679 16.3514 23.6393C18.8234 23.125 20.7927 21.3286 21.4455 19.0143C21.6405 19.4464 21.753 19.925 21.753 20.4286C21.7493 22.4 20.0688 24 17.9981 24Z" fill="white"/>
</svg>
