<svg width="25" height="25" viewBox="0 0 25 25" fill="none" xmlns="http://www.w3.org/2000/svg">
<rect opacity="0.2" width="25" height="25" rx="4" fill="#FF365A"/>
<path d="M12.5073 19.6406C12.5806 19.6406 12.6709 19.6162 12.7783 19.5674C12.8906 19.5186 12.9907 19.4648 13.0786 19.4062C14.3774 18.5762 15.5029 17.7046 16.4551 16.7915C17.4072 15.8735 18.1421 14.9336 18.6597 13.9717C19.1821 13.0049 19.4434 12.0283 19.4434 11.042C19.4434 10.417 19.3433 9.8457 19.1431 9.32812C18.9478 8.81055 18.6694 8.36133 18.3081 7.98047C17.9517 7.59473 17.5366 7.29932 17.063 7.09424C16.5894 6.88916 16.0767 6.78662 15.5249 6.78662C14.8413 6.78662 14.2432 6.95996 13.7305 7.30664C13.2227 7.65332 12.8149 8.11475 12.5073 8.69092C12.1948 8.11963 11.7822 7.66064 11.2695 7.31396C10.7568 6.9624 10.1587 6.78662 9.4751 6.78662C8.92822 6.78662 8.41553 6.88916 7.93701 7.09424C7.46338 7.29932 7.04834 7.59473 6.69189 7.98047C6.33545 8.36133 6.05713 8.81055 5.85693 9.32812C5.65674 9.8457 5.55664 10.417 5.55664 11.042C5.55664 12.0283 5.81543 13.0049 6.33301 13.9717C6.85547 14.9336 7.59277 15.8735 8.54492 16.7915C9.50195 17.7046 10.6274 18.5762 11.9214 19.4062C12.0142 19.4648 12.1143 19.5186 12.2217 19.5674C12.3291 19.6162 12.4243 19.6406 12.5073 19.6406Z" fill="#EA0F36"/>
</svg>
