<svg width="80" height="22" viewBox="0 0 80 22" fill="none" xmlns="http://www.w3.org/2000/svg">
<g style="mix-blend-mode:multiply" opacity="0.8">
<path d="M78.7554 7.95378C78.438 6.57518 77.6957 5.33107 76.6332 4.39698C76.7132 4.6054 76.778 4.81937 76.8269 5.03721C77.2497 7.05273 75.7954 8.17114 73.9261 8.34898C72.78 8.45964 71.6063 8.53868 70.4523 8.56634C69.4406 8.59005 68.2194 8.56634 67.3342 8.00121C66.4489 7.43607 66.0498 6.48364 65.7731 5.43241C65.487 4.20037 64.7513 3.11946 63.7102 2.40122L63.556 2.42889C64.1726 4.14011 63.7774 6.26233 62.9751 8.02887C62.3723 9.4715 61.476 10.7729 60.3431 11.8505C59.4104 12.6685 58.209 13.5775 56.9562 13.7751C56.0315 13.9213 55.6442 13.1467 56.0315 12.4077C56.7744 10.9889 57.8415 9.74404 58.7267 8.41617C59.1901 7.81508 59.5629 7.14934 59.8333 6.44017C59.9702 5.9024 59.9515 5.3368 59.7794 4.80925C59.6073 4.28169 59.2888 3.8139 58.8611 3.46036C58.2587 2.94181 57.5494 2.56246 56.7836 2.34934C56.0179 2.13622 55.2146 2.09456 54.4309 2.22734C53.9477 2.32435 53.4722 2.45643 53.0082 2.62254C56.7705 2.1562 59.276 2.85571 56.8219 8.42407C54.2531 14.2533 39.7295 20.6753 39.7295 20.6753C25.9963 16.9209 18.3887 6.94207 19.0803 4.17567C19.7719 1.40928 25.0083 2.59487 25.0083 2.59487C24.933 2.28343 24.773 1.99891 24.5459 1.77286C24.2777 1.5374 23.9682 1.35381 23.633 1.23143C22.6462 0.893377 21.5788 0.869904 20.5781 1.16425C19.4162 1.52388 18.2069 2.2471 17.8986 3.53545C17.6546 4.59695 17.7038 5.70482 18.0409 6.74052C18.4361 7.90241 19.349 9.62943 18.5942 10.8229C18.1634 11.5066 17.5192 11.3841 17.0411 10.7953C15.2982 8.64538 14.8082 5.39684 15.401 2.749C15.4365 2.59092 15.48 2.42889 15.5235 2.27081C15.2034 2.36961 14.8042 2.49607 14.3379 2.66601C12.4607 3.89903 12.4172 7.40841 11.6821 9.30142C11.1526 10.649 10.0342 11.4473 8.76161 12.0678C7.13083 12.8436 5.40265 13.3953 3.62402 13.7079C2.46617 13.8887 1.28071 13.7223 0.217398 13.2297C-0.723177 17.7389 7.53255 17.5334 17.7959 18.2606C25.3627 18.7965 32.8871 19.8196 40.3223 21.3234C43.8791 20.2366 60.9715 17.3714 65.5162 16.8774C70.061 16.3834 80.8302 16.4506 78.7554 7.95378Z" fill="#EDEBEC"/>
</g>
</svg>
