<svg width="185" height="224" viewBox="0 0 185 224" fill="none" xmlns="http://www.w3.org/2000/svg">
<g clip-path="url(#clip0_893_4114)">
<path d="M332 0H-6V224H332V0Z" fill="url(#paint0_radial_893_4114)"/>
<path d="M260 155.882H-76V162.558H260V155.882Z" fill="#222222"/>
<path d="M260 162.521H-76V233.964H260V162.521Z" fill="url(#paint1_radial_893_4114)"/>
<path d="M254.763 159.828C254.763 161.531 238.922 162.915 219.371 162.915C199.82 162.915 183.979 161.531 183.979 159.828C183.979 158.126 199.825 156.742 219.371 156.742C238.917 156.742 254.763 158.144 254.763 159.828Z" fill="#F9D4B2"/>
<g clip-path="url(#clip1_893_4114)">
<path d="M34.5854 67.5873C34.5886 68.4726 34.3497 69.3418 33.8946 70.1011C33.4394 70.8603 32.7854 71.4807 32.0031 71.8951C31.2209 72.3095 30.3402 72.5021 29.4564 72.4521C28.5726 72.4022 27.7192 72.1115 26.9887 71.6116C26.2581 71.1116 25.6781 70.4215 25.3115 69.6158C24.9448 68.81 24.8055 67.9194 24.9085 67.0402C25.0114 66.1609 25.3528 65.3266 25.8957 64.6274C26.4387 63.9282 27.1624 63.3907 27.9887 63.0731V59.7832H31.3544V63.01C32.2995 63.3462 33.1175 63.9666 33.696 64.7861C34.2745 65.6057 34.5852 66.5842 34.5854 67.5873Z" fill="#B7EDED"/>
<path d="M22.7676 72.4378H13.449C12.7927 72.4378 12.1869 72.2569 11.926 71.8236C11.7157 71.4744 11.7283 70.9822 12.1153 70.2586C12.9862 68.6683 16.3224 62.9929 16.3224 61.8444V58.1548H19.8942V61.8318C19.8942 62.9929 23.2262 68.6683 24.1013 70.2459C24.9764 71.8236 23.9456 72.4378 22.7676 72.4378Z" fill="#B7EDED"/>
<path d="M29.5663 57.6038C29.5663 55.1174 29.457 54.4695 26.7812 54.4695H24.114V54.8902C24.114 57.3892 23.2978 57.5701 21.9515 57.5701C21.7442 57.5686 21.5393 57.5253 21.3492 57.4427C21.159 57.3602 20.9875 57.2401 20.8449 57.0896C20.7023 56.9391 20.5915 56.7614 20.5193 56.5671C20.447 56.3728 20.4147 56.1659 20.4244 55.9588C20.4218 55.7289 20.4664 55.5009 20.5554 55.2889C20.6444 55.0769 20.7759 54.8853 20.9418 54.7261C21.3872 54.3368 21.9666 54.1361 22.5573 54.1666H23.7858C23.7353 52.3744 23.3651 51.6423 20.7946 51.6423C18.1189 51.6423 18.0095 52.2902 18.0095 54.7766V70.7635H17.6855V54.7556C17.6855 51.9999 17.9926 51.2974 20.7946 51.2974C23.5965 51.2974 24.0467 52.2776 24.1056 54.1582H26.7812C29.5832 54.1582 29.8861 54.8608 29.8861 57.6164V70.7383H29.5663V57.6038ZM22.5573 54.4695C22.0502 54.4388 21.5509 54.6063 21.1648 54.9365C21.0306 55.0662 20.9241 55.2219 20.8518 55.394C20.7795 55.5661 20.7428 55.7511 20.7441 55.9378C20.7344 56.1043 20.7587 56.2711 20.8155 56.4279C20.8724 56.5847 20.9605 56.7283 21.0747 56.85C21.1889 56.9716 21.3266 57.0687 21.4795 57.1354C21.6324 57.2021 21.7973 57.2369 21.9641 57.2378C23.1716 57.2378 23.8068 57.1326 23.8068 54.8818C23.8068 54.743 23.8068 54.6083 23.8068 54.4611L22.5573 54.4695Z" fill="white"/>
<path opacity="0.2" d="M17.0041 58.6851C17.0598 58.6851 17.1133 58.7072 17.1528 58.7467C17.1922 58.7861 17.2144 58.8396 17.2144 58.8954V61.8109C17.2144 61.8667 17.1922 61.9202 17.1528 61.9597C17.1133 61.9991 17.0598 62.0213 17.0041 62.0213C16.9486 62.0202 16.8957 61.9977 16.8565 61.9585C16.8173 61.9193 16.7948 61.8664 16.7937 61.8109V58.8954C16.7937 58.8396 16.8159 58.7861 16.8553 58.7467C16.8948 58.7072 16.9483 58.6851 17.0041 58.6851Z" fill="white"/>
<path opacity="0.2" d="M16.1668 66.7539C15.5147 68.1002 14.7196 69.0636 14.3915 68.9037C14.0633 68.7439 14.3284 67.528 14.9805 66.1818C15.6326 64.8355 16.4277 63.8721 16.7516 64.0277C17.0756 64.1834 16.8189 65.4076 16.1668 66.7539Z" fill="white"/>
<path d="M14.3915 70.0735C13.8403 70.0735 13.285 70.0735 12.7381 70.0735C12.0776 71.3987 12.9611 71.8951 14.0002 71.8951H22.2755C23.2979 71.8951 24.1855 71.3945 23.5082 70.0566L14.3915 70.0735Z" fill="#CDB45F"/>
<g style="mix-blend-mode:multiply">
<path d="M22.7678 72.4378H13.4491C12.7928 72.4378 12.187 72.2569 11.9261 71.8236C19.8775 71.9456 19.116 64.579 19.116 63.4936V58.6849L16.6465 58.3399L16.7138 58.1548H19.8944V61.8318C19.8944 62.9929 23.2264 68.6683 24.1014 70.2459C24.9765 71.8236 23.9458 72.4378 22.7678 72.4378Z" fill="#F1F1F2"/>
</g>
<path d="M16.2551 57.793H20.1004C20.1729 57.793 20.2425 57.8218 20.2938 57.8731C20.345 57.9243 20.3739 57.9939 20.3739 58.0664C20.3739 58.139 20.345 58.2085 20.2938 58.2598C20.2425 58.3111 20.1729 58.3399 20.1004 58.3399H16.2551C16.1826 58.3399 16.1131 58.3111 16.0618 58.2598C16.0105 58.2085 15.9817 58.139 15.9817 58.0664C15.9817 57.9939 16.0105 57.9243 16.0618 57.8731C16.1131 57.8218 16.1826 57.793 16.2551 57.793Z" fill="#B7EDED"/>
<path opacity="0.2" d="M26.5162 64.8484C26.0955 65.5047 26.0534 66.2367 26.432 66.4849C26.8107 66.7331 27.4712 66.4008 27.8961 65.7487C28.321 65.0966 28.3631 64.3604 27.9802 64.1121C27.5974 63.8639 26.9453 64.1921 26.5162 64.8484Z" fill="white"/>
<path d="M34.0132 68.5129C33.8227 69.2862 33.4264 69.9936 32.8663 70.56C32.3063 71.1264 31.6034 71.5306 30.8322 71.7299C30.0611 71.9292 29.2503 71.916 28.486 71.6918C27.7217 71.4676 27.0323 71.0408 26.491 70.4565C25.9602 69.888 25.5913 69.1879 25.4224 68.4287C28.2748 68.5423 31.1482 68.5423 34.0132 68.5129Z" fill="#5FCDCB"/>
<g style="mix-blend-mode:multiply">
<path d="M31.3376 63.0102V59.7876H28.359L28.2916 59.9601L30.6097 60.2798V63.1701C30.6097 63.1701 32.6754 65.7616 31.5858 68.6898C30.6813 71.1046 28.0013 71.4917 26.1713 70.8901C26.672 71.4313 27.2895 71.8514 27.9768 72.1185C28.6641 72.3855 29.4032 72.4925 30.138 72.4313C30.8729 72.3701 31.5841 72.1423 32.2178 71.7652C32.8515 71.3882 33.3909 70.8717 33.7952 70.255C34.1995 69.6384 34.458 68.9377 34.5511 68.2063C34.6443 67.4748 34.5696 66.7317 34.3327 66.0335C34.0958 65.3352 33.703 64.7 33.184 64.1762C32.6651 63.6523 32.0336 63.2536 31.3376 63.0102Z" fill="#F1F1F2"/>
</g>
<path d="M27.9256 59.4463H31.531C31.5984 59.4474 31.6626 59.4749 31.7098 59.5229C31.757 59.5709 31.7835 59.6356 31.7835 59.7029C31.784 59.7364 31.7779 59.7697 31.7655 59.8008C31.753 59.8319 31.7345 59.8603 31.711 59.8841C31.6875 59.908 31.6595 59.927 31.6286 59.9399C31.5977 59.9529 31.5645 59.9596 31.531 59.9596H27.9256C27.8575 59.9596 27.7922 59.9325 27.7441 59.8844C27.696 59.8363 27.6689 59.771 27.6689 59.7029C27.6689 59.6349 27.696 59.5696 27.7441 59.5215C27.7922 59.4733 27.8575 59.4463 27.9256 59.4463Z" fill="#B7EDED"/>
<path d="M53.8664 72.1141H39.5034L44.7496 68.4287H49.3143L53.8664 72.1141Z" fill="#DBDBDB"/>
<path d="M47.6189 63.5903H45.9991V70.8097H47.6189V63.5903Z" fill="#DBDBDB"/>
<path d="M46.8491 67.9153V67.0738C50.4454 67.0991 53.9061 65.7025 56.4775 63.1882C59.049 60.6739 60.5229 57.2454 60.5784 53.6494C60.6339 50.0534 59.2664 46.5811 56.7738 43.9886C54.2811 41.3961 50.8652 39.8934 47.2698 39.8078V41.7725H46.4283V39H46.8491C50.6407 39.0647 54.2553 40.6163 56.9138 43.3206C59.5724 46.0249 61.0621 49.6654 61.0621 53.4576C61.0621 57.2499 59.5724 60.8903 56.9138 63.5946C54.2553 66.2989 50.6407 67.8506 46.8491 67.9153Z" fill="#DBDBDB"/>
<path d="M59.0327 57.2795C58.7388 58.3748 58.2577 59.4109 57.6107 60.3423C57.285 60.815 56.922 61.2609 56.5253 61.6759C54.2515 63.9433 51.2947 65.3996 48.1112 65.8199C47.762 65.862 47.4296 65.8872 47.1183 65.8956C46.3687 65.9127 45.6189 65.8705 44.8759 65.7694C41.6743 65.3487 37.7239 63.7795 35.5867 59.6691C35.2299 58.9716 34.9397 58.242 34.72 57.4899C34.1958 55.809 33.9764 54.048 34.0722 52.2899C34.1042 51.8255 34.1632 51.3634 34.2488 50.9058C34.7579 48.2091 36.0452 46.8333 36.0452 46.8333C37.1328 45.3534 38.4679 44.0725 39.9915 43.047C40.3667 42.8002 40.7543 42.5728 41.1526 42.3654C45.1073 40.3208 49.2849 40.8383 52.638 42.3654C52.9619 42.5127 53.2817 42.6725 53.5888 42.8366L53.9632 43.047C55.3986 43.8925 56.6229 45.0535 57.5434 46.4421V46.4715C57.758 46.7997 57.9641 47.1363 58.1408 47.4897C58.2208 47.6411 58.2965 47.801 58.3722 47.9566C58.6101 48.4517 58.8153 48.9619 58.9865 49.4838C59.7394 52.0256 59.7554 54.7289 59.0327 57.2795Z" fill="#9FE2E2"/>
<path d="M49.3355 58.3567C49.5753 59.3958 48.6582 59.4421 48.3553 59.4379C48.0523 59.4337 47.72 59.745 47.9345 60.2793C48.1491 60.8136 47.9345 60.9524 47.619 61.2385C47.5012 61.3437 47.4045 61.4194 47.3245 61.4909C47.2446 61.5625 47.1646 61.7392 47.1184 61.8317C47.0721 61.9243 47.0595 61.9874 47.0258 62.0799C46.9249 62.5932 46.7608 62.8751 45.7847 62.8709C45.7271 62.8782 45.6737 62.9049 45.6333 62.9466C45.6156 62.9796 45.6063 63.0164 45.6063 63.0539C45.6063 63.0913 45.6156 63.1281 45.6333 63.1611C45.6922 63.2285 45.953 63.1611 46.0119 63.2116C46.0708 63.2621 46.0119 63.3883 46.0119 63.443C46.0119 63.4977 45.7132 63.6786 45.7174 63.7922C45.7216 63.9058 45.8689 63.9773 45.9446 64.0026C46.0203 64.0278 46.2686 63.9016 46.3443 63.9605C46.42 64.0194 46.3653 64.1835 46.3443 64.255C46.3232 64.3265 46.2812 64.4822 46.2728 64.5537C46.2644 64.6252 46.2349 64.743 46.2728 64.7935C46.3653 64.9534 46.8449 65.0207 46.9206 65.1847C46.9314 65.2286 46.9324 65.2743 46.9237 65.3186C46.9149 65.3629 46.8967 65.4048 46.8702 65.4414C46.6198 65.56 46.3368 65.5911 46.0666 65.5297C46.0334 65.5232 46.001 65.5133 45.9698 65.5003L45.8857 65.4624C45.6814 65.3717 45.4832 65.2677 45.2925 65.1511L45.1747 65.0712L45.0611 64.987C43.9883 64.1793 44.2197 63.2789 43.8621 62.8498C43.4119 62.3239 43.8621 61.7981 43.576 61.5877C43.2899 61.3773 43.3951 60.7799 43.4456 60.3761C43.5033 60.1829 43.4972 59.9763 43.4282 59.7868C43.3593 59.5974 43.2311 59.4352 43.0628 59.3243C42.6715 59.135 42.011 59.3495 41.889 58.9036C41.767 58.4576 41.4683 58.201 40.7657 57.4143C40.6535 57.3067 40.567 57.1752 40.5126 57.0296C40.4582 56.884 40.4373 56.728 40.4514 56.5732C40.4656 56.4184 40.5144 56.2688 40.5943 56.1354C40.6742 56.0021 40.7831 55.8884 40.9129 55.803C40.9677 55.7567 41.0269 55.7158 41.0896 55.681C41.5104 55.4412 41.4094 55.1172 41.4094 55.1172C41.2874 54.9026 41.0349 54.8564 40.6731 54.9742C40.3113 55.092 39.8317 55.1046 39.7476 54.8438C39.6642 54.5057 39.4511 54.214 39.1544 54.0318C39.0113 54.0318 38.8262 54.0065 38.7337 53.9981C38.6411 53.9897 38.4181 54.0444 38.355 53.9981C38.2919 53.9518 38.4224 53.7331 38.355 53.6742C38.2816 53.6337 38.1991 53.6124 38.1152 53.6124C38.0314 53.6124 37.9489 53.6337 37.8754 53.6742C37.846 53.712 37.9343 53.8214 37.9007 53.8551C37.8091 53.9209 37.6978 53.9535 37.5851 53.9476C37.2768 53.9343 36.9739 53.8614 36.6932 53.7331C36.4429 53.5945 36.2471 53.3749 36.1379 53.1104C36.1379 53.0137 36.3062 52.8454 36.2894 52.7528C36.2389 52.4415 35.5826 52.0923 35.4227 51.8189C35.3301 51.6548 35.3764 51.1878 35.2081 51.0868C35.1584 51.0678 35.1048 51.0612 35.052 51.0678C34.9991 51.0744 34.9487 51.094 34.9052 51.1247C34.7958 51.2804 35.0062 51.68 35.0946 51.8399C35.1829 51.9998 35.6246 52.3153 35.6962 52.5257C35.7214 52.6014 35.734 52.7781 35.6751 52.8328C35.6162 52.8875 35.3302 52.8706 35.2544 52.8328C34.9566 52.6209 34.7247 52.3292 34.5855 51.9914C34.4845 51.7558 34.6318 51.1752 34.4635 50.9817C34.411 50.9353 34.3441 50.9085 34.2742 50.9059C34.7832 48.2092 36.0706 46.8335 36.0706 46.8335C37.1593 45.3546 38.4942 44.0738 40.0168 43.0471C40.1111 43.1116 40.1913 43.1946 40.2524 43.2911C40.3281 43.3963 40.4039 43.5141 40.488 43.5435C40.687 43.5887 40.8948 43.5741 41.0854 43.5015C41.1948 43.4426 41.2832 43.1565 41.401 43.1228C41.5188 43.0892 41.666 43.1481 41.687 43.2154C41.7333 43.3753 41.401 43.6361 41.2663 43.7371L41.1864 43.7665L41.0728 43.7918C40.9424 43.8254 40.7489 43.9096 40.7447 44.0905C40.7405 44.2714 40.9718 44.3176 41.0433 44.3134C41.2247 44.299 41.3996 44.2397 41.5524 44.1409C41.5945 44.0989 41.5524 43.9558 41.6155 43.918C41.6786 43.8801 42.0825 43.918 42.1793 43.8128C42.2118 43.7653 42.232 43.7103 42.2379 43.653C42.2437 43.5957 42.2352 43.5378 42.2129 43.4846C42.154 43.4257 41.9226 43.5393 41.8679 43.4846C41.8133 43.4299 41.8974 43.2448 41.9479 43.1859C42.0223 43.1329 42.1068 43.0957 42.1961 43.0766C42.4149 43.0261 42.9954 42.8157 43.0964 43.005C43.1974 43.1943 42.6757 43.3374 42.6505 43.4931C42.6473 43.5519 42.6565 43.6108 42.6775 43.6659C42.6985 43.721 42.7309 43.771 42.7725 43.8128C42.8777 43.8843 43.1932 43.9138 43.2941 43.8128C43.3951 43.7118 43.1763 43.4257 43.1805 43.2701C43.1805 43.2701 43.1805 43.2448 43.1805 43.2364C43.2353 43.1012 43.3208 42.9805 43.4304 42.8841C43.5399 42.7877 43.6705 42.7182 43.8116 42.6811C43.9854 42.5898 44.18 42.5453 44.3762 42.5519C44.5724 42.5586 44.7635 42.6161 44.9307 42.7189C45.0321 42.7925 45.1475 42.8447 45.2697 42.8722C45.392 42.8997 45.5186 42.9019 45.6417 42.8788C45.7805 42.8367 45.8731 42.9419 45.8689 43.1439C45.8726 43.1859 45.8726 43.2281 45.8689 43.2701C45.8668 43.3079 45.8668 43.3458 45.8689 43.3837C45.8689 43.5351 46.0161 43.5562 46.1003 43.5562H46.1255C46.2096 43.5562 46.2938 43.5562 46.319 43.5856C46.3443 43.6151 46.2433 43.9053 46.1592 43.9727C46.075 44.04 45.8142 44.0147 45.7006 44.0316C45.6711 44.0316 45.608 44.0316 45.587 44.0316C45.4987 44.1073 45.587 44.4018 45.4692 44.4523C45.1915 44.6374 44.3291 44.549 44.2491 44.2377C44.1692 43.9264 45.0906 43.9558 45.0906 43.6782C45.0906 43.5562 44.7876 43.4342 44.6698 43.4131C44.4646 43.4062 44.26 43.4405 44.0682 43.5141C43.9884 43.5482 43.9174 43.6 43.8605 43.6656C43.8037 43.7312 43.7625 43.8089 43.7401 43.8927C43.6433 44.2335 43.2226 44.873 42.7809 44.9024C42.3391 44.9319 42.4948 44.3976 42.0278 44.5869L41.9521 44.6332C41.6492 44.8057 40.9255 45.1338 40.833 45.4746C40.7951 45.5924 40.934 45.8364 41.0223 45.9247C41.129 46.0061 41.2527 46.0622 41.3841 46.0888C41.5482 46.1267 41.9353 45.9836 42.0615 46.0888C42.1877 46.194 41.9899 46.7157 42.1498 46.8124C42.2129 46.8545 42.3938 46.7788 42.4527 46.7241C42.5116 46.6694 42.5579 46.2403 42.6715 46.1225C42.7851 46.0047 43.2647 45.9752 43.3615 45.8154C43.4582 45.6555 43.1763 45.1548 43.2563 44.9487C43.3385 44.8013 43.4651 44.6835 43.6181 44.6121C43.9459 44.5153 44.2985 44.5484 44.6025 44.7047C44.7035 44.8099 44.489 45.1927 44.6025 45.2853C44.6488 45.3231 44.7961 45.2853 44.8592 45.2516C45.0443 45.1843 45.343 44.7594 45.5239 44.8309C45.7048 44.9024 45.5239 45.4325 45.6459 45.5798C45.688 45.6302 45.8352 45.6597 45.8983 45.6849C45.9614 45.7102 46.0329 45.7228 46.1003 45.7523C46.563 45.8827 46.4789 46.5011 46.4789 47.0396C46.4789 47.5781 45.1537 47.7801 44.7961 47.5529C44.6399 47.455 44.4651 47.3905 44.2828 47.3636H44.2155H44.1229H44.0724C43.8453 47.3636 43.7443 47.5571 43.799 47.9105C43.8537 48.2639 43.4456 48.5289 42.7388 48.7267C42.6054 48.7568 42.4801 48.8152 42.3712 48.8979C42.2623 48.9806 42.1725 49.0858 42.1077 49.2063C42.0531 49.308 42.0188 49.4195 42.0068 49.5344C42.018 49.5772 42.018 49.6221 42.0068 49.6648C41.8974 49.8794 41.4136 50.115 41.2369 50.2875C41.0889 50.4116 40.9661 50.563 40.8751 50.7334C40.8204 50.927 41.1696 51.3771 41.0097 51.5117C40.8498 51.6464 40.4754 51.4192 40.3576 51.293C40.2398 51.1668 40.4039 50.9017 40.3071 50.8344C39.9958 50.603 39.0955 50.9017 38.7211 51.0406C38.4345 51.16 38.1733 51.3327 37.9512 51.5496C37.8209 51.756 37.7243 51.9818 37.6651 52.2185C37.6089 52.3838 37.5805 52.5572 37.5809 52.7318C37.6261 52.9095 37.728 53.0675 37.8712 53.182C38.0848 53.2491 38.3139 53.2491 38.5275 53.182C38.822 53.0768 39.1796 52.3405 39.4783 52.3952C39.5667 52.4163 39.6087 52.6224 39.6087 52.7066C39.6087 52.8664 39.268 53.1777 39.3605 53.3124C39.4531 53.447 39.8485 53.2829 40.0589 53.3124C40.7615 53.3124 40.3744 54.0781 40.955 54.2548C41.1311 54.2833 41.3116 54.2618 41.476 54.1926C41.6405 54.1234 41.7821 54.0094 41.8848 53.8635C41.913 53.8185 41.9454 53.7762 41.9815 53.7373C42.0581 53.6448 42.1547 53.571 42.2641 53.5215C42.3734 53.4719 42.4926 53.4479 42.6126 53.4512C43.1048 53.4512 42.9365 53.9687 43.3446 53.9771C43.6349 53.9771 43.8242 53.6489 44.1061 53.6489C44.1873 53.6535 44.2666 53.6749 44.3391 53.7119C44.4115 53.7488 44.4755 53.8005 44.5268 53.8635C44.5959 53.9244 44.6554 53.9953 44.7035 54.0739C44.8096 54.197 44.9491 54.2868 45.1052 54.3323C45.2612 54.3778 45.4271 54.3772 45.5828 54.3305C46.1844 54.2001 46.5084 54.2716 46.5252 54.9279C46.542 55.5842 46.9459 55.6768 47.4844 55.5547C47.7383 55.4493 47.9999 55.3635 48.2669 55.2981C48.4268 55.2981 48.574 55.3949 48.7171 55.7188C48.818 55.8492 48.9064 56.047 49.0074 56.1059C49.0471 56.124 49.09 56.134 49.1336 56.1353C49.2085 56.1126 49.2872 56.1056 49.3649 56.1148C49.4426 56.1239 49.5176 56.149 49.5852 56.1885C49.6527 56.228 49.7114 56.2811 49.7574 56.3443C49.8035 56.4076 49.8361 56.4796 49.853 56.556C49.9371 57.124 49.0915 57.3217 49.3355 58.3567Z" fill="#428184"/>
<path d="M57.5517 46.4426C57.5427 46.4298 57.5292 46.4208 57.5139 46.4173C57.4171 46.3837 57.232 46.5646 57.1773 46.6487C57.1226 46.7329 57.1773 47.019 57.1563 47.2041C57.1663 47.2574 57.163 47.3125 57.1468 47.3643C57.1306 47.4161 57.1019 47.4632 57.0633 47.5014C57.0247 47.5396 56.9773 47.5677 56.9253 47.5834C56.8733 47.599 56.8183 47.6017 56.765 47.5911C56.6972 47.5863 56.6313 47.5668 56.5719 47.5339C56.5124 47.501 56.4609 47.4555 56.4208 47.4006C56.3808 47.3457 56.3532 47.2828 56.34 47.2161C56.3267 47.1495 56.3282 47.0808 56.3443 47.0148C56.4122 46.8321 56.4311 46.6348 56.399 46.4426C56.3106 46.3122 55.9783 46.1902 55.8521 46.0976C55.7974 46.064 55.709 45.963 55.6459 45.9504C55.5029 45.9125 55.1327 45.8999 55.0611 46.0261C54.9896 46.1523 55.2042 46.4047 55.3052 46.4931C55.546 46.6044 55.7949 46.6972 56.0498 46.7707C56.0877 46.7707 56.1887 46.8338 56.1844 46.8801C56.1802 46.9264 56.0582 46.9348 56.0414 46.9727C56.0246 47.0105 56.1424 47.2714 56.0961 47.3597C56.0075 47.4519 55.8931 47.515 55.7679 47.5406C55.6677 47.5555 55.5655 47.5469 55.4692 47.5154C55.4019 47.4817 55.2294 47.3639 55.2589 47.2966C55.2883 47.2293 55.6333 47.2966 55.7343 47.2588C55.8353 47.2209 55.8605 47.1283 55.8437 47.0779C55.7553 46.7876 54.9265 46.7623 54.7162 46.5436C54.6615 46.4889 54.6783 46.2785 54.5984 46.2659C54.5184 46.2533 54.3501 46.6319 54.2155 46.6866C54.0809 46.7413 53.8705 46.6109 53.7948 46.6614C53.5508 46.7834 53.3405 47.3177 53.2311 47.5575C53.1837 47.6608 53.1137 47.7523 53.0264 47.8251C52.939 47.8979 52.8364 47.9502 52.7262 47.9782C52.6168 47.9782 52.4275 48.0371 52.2718 48.0539C52.2145 48.0598 52.1567 48.0598 52.0994 48.0539C51.9743 48.0599 51.8499 48.0317 51.7396 47.9724C51.6293 47.9131 51.5372 47.8249 51.4732 47.7173C51.4092 47.6096 51.3757 47.4865 51.3764 47.3613C51.377 47.2361 51.4117 47.1134 51.4767 47.0063C51.6997 46.6445 51.9479 46.6992 52.2298 46.6866H52.255C52.5201 46.6866 52.722 46.5604 52.4948 46.35C52.4459 46.3107 52.4076 46.2597 52.3836 46.2017C52.3595 46.1437 52.3504 46.0806 52.3571 46.0182C52.3638 45.9558 52.3861 45.896 52.4219 45.8445C52.4578 45.7929 52.506 45.7512 52.5621 45.7232C52.79 45.6594 53.0242 45.6213 53.2605 45.6096C53.3051 45.5997 53.3477 45.5827 53.3867 45.5591C53.5508 45.4287 53.6265 44.9701 53.8074 44.8439C53.881 44.7948 53.9642 44.7618 54.0515 44.7471L54.2954 44.7009C54.409 44.7009 54.6404 44.7009 54.7582 44.7009C54.8003 44.7009 54.9013 44.7009 54.9223 44.6798C54.9592 44.5754 54.9632 44.4622 54.9339 44.3554C54.9046 44.2486 54.8433 44.1534 54.7582 44.0824C54.7078 44.0614 54.6404 44.0824 54.5689 44.1581L54.5142 44.2002C54.3039 44.4274 54.043 44.5873 53.9589 44.2297C53.8747 43.8721 53.6349 44.095 53.5045 43.7837C53.3741 43.4724 53.5887 43.1527 53.9883 43.0391C55.4186 43.8891 56.637 45.0529 57.5517 46.4426Z" fill="#428184"/>
<path d="M58.1703 47.5069C58.078 47.4957 57.9883 47.4686 57.9052 47.4269C57.838 47.3872 57.78 47.3337 57.735 47.2699C57.6901 47.206 57.6592 47.1334 57.6444 47.0567C57.624 46.9741 57.6127 46.8894 57.6107 46.8043C57.6154 46.6978 57.6026 46.5912 57.5729 46.4888C57.7874 46.8001 57.9852 47.1367 58.1703 47.5069Z" fill="#428184"/>
<path d="M51.4809 45.4829C51.6867 45.3813 51.8622 45.2275 51.99 45.037C52.0087 44.9931 52.0184 44.9458 52.0184 44.8981C52.0184 44.8504 52.0087 44.8032 51.99 44.7593C51.9102 44.7073 51.8158 44.6822 51.7207 44.6878C51.5941 44.699 51.4724 44.7424 51.3673 44.814C51.2617 44.9352 51.1854 45.0792 51.1444 45.2347C51.1444 45.302 51.1233 45.4619 51.178 45.4997C51.2327 45.5376 51.4136 45.5124 51.4809 45.4829Z" fill="#428184"/>
<path d="M52.1079 44.5619C52.192 44.5956 52.3771 44.6335 52.4318 44.7008C52.4553 44.7283 52.4724 44.7607 52.4819 44.7956C52.4914 44.8305 52.4929 44.8671 52.4865 44.9027C52.4444 44.9742 52.2172 44.9448 52.171 45.0079C52.1314 45.0755 52.1106 45.1525 52.1106 45.2309C52.1106 45.3092 52.1314 45.3862 52.171 45.4538C52.2467 45.517 52.4655 45.4202 52.5622 45.4034C52.7382 45.3926 52.9114 45.3543 53.0755 45.2898C53.1638 45.2309 53.349 45.0458 53.3111 44.9532C53.2732 44.8607 53.0797 44.9153 53.0124 44.8817C52.9488 44.8385 52.8896 44.7892 52.8357 44.7344C52.7331 44.634 52.6401 44.5241 52.558 44.4063C52.4949 44.2885 52.5075 43.9645 52.3855 43.9099C52.2635 43.8552 52.0405 43.9814 51.9648 44.0529C51.9132 44.1069 51.8769 44.1737 51.8596 44.2464C51.8486 44.3148 51.8573 44.3848 51.8849 44.4484C51.9185 44.4988 52.0532 44.5325 52.1079 44.5619Z" fill="#428184"/>
<path d="M59.0327 57.2796C58.7387 58.3748 58.2577 59.411 57.6107 60.3423V60.2498C57.6486 59.3074 56.559 59.4336 56.7693 58.7142C56.9797 57.9948 56.5632 58.222 56.2561 57.41C55.9489 56.598 56.8871 56.0806 56.4075 55.4958C56.3402 55.4201 56.2645 55.3443 56.1845 55.2686C55.7344 54.8773 55.2127 54.7469 55.3431 54.322C55.482 53.8214 55.2464 53.5942 54.7583 53.813C54.2703 54.0317 54.0179 53.346 53.7444 53.813C53.471 54.2799 52.394 54.3641 51.3548 53.6531C50.7995 53.3754 50.425 53.1735 49.7267 53.3838C49.0283 53.5942 48.3468 53.0346 48.9273 51.8483C49.2689 51.1595 49.7927 50.5774 50.4419 50.1654L50.4755 50.1444H50.5176C50.5549 50.1233 50.5944 50.1064 50.6354 50.0939C51.5988 49.7742 51.5231 49.2946 51.5021 49.2062C51.481 49.1347 51.46 49.0632 51.4474 48.9959C51.4076 48.8783 51.4108 48.7505 51.4562 48.635C51.5016 48.5195 51.5864 48.4238 51.6956 48.3648C52.027 48.2168 52.3974 48.1799 52.7516 48.2596C52.8682 48.2698 52.9857 48.2554 53.0965 48.2175C53.1699 48.1686 53.2401 48.1152 53.3069 48.0577C53.6105 47.7805 53.9752 47.5787 54.3713 47.4687C54.4836 47.4362 54.6031 47.4376 54.7146 47.4728C54.8261 47.508 54.9248 47.5753 54.9981 47.6664C55.023 47.699 55.0363 47.739 55.036 47.78C55.0401 47.8304 55.0401 47.8811 55.036 47.9315C55.036 48.0997 55.1454 48.3522 55.5451 48.3059C56.1509 48.2554 56.8703 47.6538 57.5434 48.1082L57.6654 48.1797L57.7243 48.2091C57.8417 48.2644 57.9753 48.2744 58.0996 48.2371C58.2238 48.1998 58.3299 48.1179 58.3974 48.0072C59.6858 50.9289 59.9105 54.2095 59.0327 57.2796Z" fill="#428184"/>
<g style="mix-blend-mode:multiply">
<path d="M59.0285 57.2802C58.7346 58.3754 58.2535 59.4116 57.6065 60.3429C57.2808 60.8156 56.9178 61.2616 56.5211 61.6766C54.2464 63.9427 51.2901 65.3987 48.107 65.8205C47.762 65.8626 47.4296 65.8879 47.1183 65.8963C46.3673 65.9133 45.6161 65.8711 44.8717 65.7701C41.6701 65.3493 37.7197 63.7801 35.5867 59.6698C35.2655 59.0414 34.9981 58.387 34.7874 57.7135C36.9582 59.9853 39.8358 60.9698 42.2802 61.2937C43.0245 61.3949 43.7757 61.4371 44.5268 61.4199C44.8381 61.4199 45.1704 61.3863 45.5154 61.3442C48.7035 60.9192 51.6632 59.4571 53.938 57.1834C54.3347 56.7684 54.6976 56.3225 55.0234 55.8498C55.67 54.9177 56.1524 53.8818 56.4496 52.787C57.1711 50.2361 57.1536 47.5327 56.3991 44.9913V44.9492C56.8318 45.407 57.2245 45.9011 57.5729 46.4259C57.5751 46.4356 57.5751 46.4457 57.5729 46.4554C57.784 46.7945 57.975 47.1457 58.1451 47.5071C58.2292 47.6586 58.3049 47.8142 58.3807 47.9741C58.615 48.4639 58.8174 48.9685 58.9865 49.4845C59.738 52.0267 59.7526 54.73 59.0285 57.2802Z" fill="#E6E6E7"/>
</g>
<path d="M-4.94434 54.9279L-4.64143 55.235L-4.30906 55.5716L-3.5013 56.3836L-2.83238 57.0567L-2.50423 57.3891L-2.19711 57.6962L7.74421 47.8264L6.40636 46.4759L4.99699 45.0581L-4.94434 54.9279Z" fill="white"/>
<path d="M7.04163 44.2421V44.2463L7.83676 45.0457L8.5688 45.7861H8.573L9.55746 44.8101L9.59111 44.7764L8.05973 43.2324L7.04163 44.2421Z" fill="white"/>
<path d="M4.99695 45.0581L6.40632 46.4758L7.74417 47.8263L8.56877 45.7859L7.83673 45.0454L7.04159 44.2461L4.99695 45.0581Z" fill="#A6A8AA"/>
<g style="mix-blend-mode:multiply">
<path d="M-4.88538 57.7637L-4.22066 58.4326L-3.476 57.6922L-3.14365 58.0246L-2.50417 57.3893L-2.19705 57.6964L7.74427 47.8266L8.56887 45.7862H8.57306L9.55753 44.8101L8.77922 44.0991L7.83683 45.0457L6.40642 46.4761L-1.05273 53.9311L-3.22358 56.1019L-3.50124 56.3838L-4.14072 57.0233L-4.88538 57.7637Z" fill="#E6E6E7"/>
</g>
<path d="M7.12539 42.9442L9.92334 45.7627L10.4608 45.2292L7.66282 42.4107L7.12539 42.9442Z" fill="#6D6E70"/>
<path d="M0.353728 53.8941L2.36328 55.9185L6.77322 51.5407L4.76366 49.5164L0.353728 53.8941Z" fill="#929496"/>
<path d="M-9.75308 63.3927C-9.27704 64.1136 -8.69072 64.7553 -8.01556 65.2943C-6.4336 66.5562 -4.44033 67.1875 -2.42033 67.0665C-0.400318 66.9454 1.50328 66.0805 2.92318 64.6386C4.34309 63.1968 5.17868 61.2801 5.26874 59.2585C5.3588 57.2369 4.69695 55.2535 3.41088 53.6911C3.19766 53.4398 2.9701 53.201 2.72934 52.9759L3.69696 51.9578L4.11767 51.5371C4.79876 52.1861 5.38634 52.9266 5.86359 53.7374C6.23687 54.3722 6.54151 55.0449 6.77234 55.7442C6.94483 56.1649 8.95159 61.672 4.97169 69.9347H-6.95536V68.2939H-6.93012C-8.16745 67.7635 -9.28715 66.9928 -10.2243 66.0263C-10.4455 65.793 -10.6547 65.5487 -10.8511 65.2943C-11.0531 65.0418 -11.2466 64.781 -11.4275 64.5033L-9.75308 63.3927Z" fill="white"/>
<g style="mix-blend-mode:multiply">
<path d="M2.33813 69.922H2.75884V72.2611H7.23939V69.922H4.99701C8.97691 61.6593 6.97014 56.1732 6.79765 55.7315C6.56682 55.0322 6.26218 54.3595 5.88891 53.7247C5.41165 52.914 4.82407 52.1734 4.14299 51.5244L3.72228 51.9451L3.43199 53.6953C3.71115 53.7992 4.01222 53.8302 4.30671 53.7853C4.6012 53.7404 4.87935 53.6211 5.11482 53.4386C5.93259 54.8978 6.41006 56.523 6.51158 58.1926C6.67566 60.4491 6.30372 62.7124 5.42614 64.7977C4.65007 66.6462 3.6099 68.3722 2.33813 69.922Z" fill="#E6E6E7"/>
</g>
<path d="M7.24352 69.9219H-9.19775V72.261H7.24352V69.9219Z" fill="#A6A8AA"/>
<g style="mix-blend-mode:multiply">
<path d="M2.33813 69.922H2.75884V72.2611H7.23939V69.922H4.99701C8.97691 61.6593 6.97014 56.1732 6.79765 55.7315C6.56682 55.0322 6.26218 54.3595 5.88891 53.7247C5.41165 52.914 4.82407 52.1734 4.14299 51.5244L3.72228 51.9451L3.43199 53.6953C3.71115 53.7992 4.01222 53.8302 4.30671 53.7853C4.6012 53.7404 4.87935 53.6211 5.11482 53.4386C5.93259 54.8978 6.41006 56.523 6.51158 58.1926C6.67566 60.4491 6.30372 62.7124 5.42614 64.7977C4.65007 66.6462 3.6099 68.3722 2.33813 69.922Z" fill="#E6E6E7"/>
</g>
<path d="M1.9763 50.8724C1.74352 51.1047 1.5849 51.4008 1.52049 51.7232C1.45607 52.0457 1.48875 52.38 1.61442 52.6839C1.74009 52.9878 1.95309 53.2475 2.22645 53.4303C2.49981 53.613 2.82126 53.7106 3.15009 53.7106C3.47891 53.7106 3.80034 53.613 4.0737 53.4303C4.34706 53.2475 4.56006 52.9878 4.68573 52.6839C4.8114 52.38 4.84408 52.0457 4.77966 51.7232C4.71525 51.4008 4.55662 51.1047 4.32385 50.8724C4.16987 50.718 3.98693 50.5955 3.78551 50.5119C3.5841 50.4283 3.36817 50.3853 3.15009 50.3853C2.93201 50.3853 2.71605 50.4283 2.51463 50.5119C2.31322 50.5955 2.13028 50.718 1.9763 50.8724Z" fill="#6D6E70"/>
<path d="M2.50212 51.4024C2.37452 51.5301 2.28765 51.6928 2.25248 51.8699C2.21731 52.0469 2.23541 52.2304 2.30453 52.3972C2.37365 52.564 2.49067 52.7065 2.64078 52.8068C2.7909 52.9071 2.96739 52.9606 3.14792 52.9606C3.32846 52.9606 3.50492 52.9071 3.65504 52.8068C3.80516 52.7065 3.92217 52.564 3.99129 52.3972C4.06041 52.2304 4.07854 52.0469 4.04337 51.8699C4.0082 51.6928 3.92131 51.5301 3.7937 51.4024C3.70892 51.3176 3.60823 51.2502 3.49743 51.2043C3.38662 51.1584 3.26787 51.1348 3.14792 51.1348C3.02798 51.1348 2.9092 51.1584 2.7984 51.2043C2.68759 51.2502 2.58691 51.3176 2.50212 51.4024Z" fill="#929496"/>
<path d="M63 76.8132L62.9873 72.1517L32.5197 72.1055L-21.5834 72.2401L-21.575 76.9015L32.5533 76.7669L63 76.8132Z" fill="#AA8357"/>
</g>
</g>
<defs>
<radialGradient id="paint0_radial_893_4114" cx="0" cy="0" r="1" gradientUnits="userSpaceOnUse" gradientTransform="translate(71.4583 115) scale(184.089 183)">
<stop stop-color="#313131"/>
<stop offset="0.760653" stop-color="#4D4D4D"/>
<stop offset="1" stop-color="#343434"/>
</radialGradient>
<radialGradient id="paint1_radial_893_4114" cx="0" cy="0" r="1" gradientUnits="userSpaceOnUse" gradientTransform="translate(89.5494 -4.90059) scale(308.39 308.39)">
<stop stop-color="#333333"/>
<stop offset="0.44" stop-color="#333333"/>
<stop offset="1" stop-color="#333333"/>
</radialGradient>
<clipPath id="clip0_893_4114">
<rect width="336" height="224" fill="white" transform="translate(-76)"/>
</clipPath>
<clipPath id="clip1_893_4114">
<rect width="167" height="37.9352" fill="white" transform="translate(-104 39)"/>
</clipPath>
</defs>
</svg>
