<svg width="36" height="6" viewBox="0 0 36 6" fill="none" xmlns="http://www.w3.org/2000/svg">
<path opacity="0.9" d="M0.362092 2.63853C0.362092 1.90385 0.372587 1.1167 0.393578 0.277066C0.642844 0.265258 0.859312 0.259355 1.04298 0.259355C1.26338 0.259355 1.49035 0.265258 1.72387 0.277066C1.76192 0.278378 1.79078 0.304616 1.81046 0.355781L2.79834 2.3709L3.78622 0.355781C3.82295 0.30724 3.8551 0.281658 3.88265 0.279034C4.04664 0.265914 4.23096 0.259355 4.43562 0.259355C4.65603 0.259355 4.89873 0.265258 5.16374 0.277066C5.18604 0.278378 5.20441 0.286905 5.21884 0.302648C5.23459 0.31708 5.24246 0.334791 5.24246 0.355781C5.26345 1.34235 5.27394 2.10327 5.27394 2.63853C5.27394 3.37321 5.26345 4.16037 5.24246 5C5.01681 5.01181 4.81346 5.01771 4.63241 5.01771C4.46842 5.01771 4.22571 5.01181 3.90429 5C3.8833 5 3.86493 4.99213 3.84919 4.97639C3.83345 4.96064 3.82558 4.94228 3.82558 4.92128C3.82164 4.77435 3.81574 4.5546 3.80787 4.26204C3.79999 3.96817 3.79343 3.70185 3.78819 3.46308C3.78294 3.223 3.77966 2.99341 3.77835 2.77432L2.88099 4.60642L2.7944 4.62217L2.71569 4.60642L1.86162 2.86287L1.88917 5C1.63991 5.01181 1.42344 5.01771 1.23977 5.01771C1.04954 5.01771 0.793715 5.01181 0.472293 5C0.451303 5 0.432936 4.99213 0.417193 4.97639C0.401449 4.96064 0.393578 4.94228 0.393578 4.92128C0.372587 3.93472 0.362092 3.1738 0.362092 2.63853ZM5.54158 0.304616C5.78297 0.275754 6.05782 0.261323 6.36612 0.261323C6.58915 0.261323 6.79971 0.267882 6.99781 0.281002C7.02274 0.282313 7.04701 0.290185 7.07063 0.304616C7.09424 0.319047 7.10998 0.337414 7.11786 0.359717C7.24249 0.741488 7.41042 1.31349 7.62164 2.07572C7.82498 1.33973 7.99357 0.767726 8.12738 0.359717C8.13525 0.337414 8.151 0.319047 8.17461 0.304616C8.19823 0.290185 8.2225 0.282313 8.24742 0.281002C8.44552 0.267882 8.65609 0.261323 8.87912 0.261323C9.18742 0.261323 9.46227 0.275754 9.70366 0.304616C9.49638 1.18754 9.27729 1.85662 9.04639 2.31186C8.8824 2.59262 8.67052 2.83991 8.41076 3.05376C8.42125 3.92094 8.42781 4.56969 8.43044 5C8.18117 5.01181 7.94634 5.01771 7.72593 5.01771C7.49897 5.01771 7.22478 5.01181 6.90336 5C6.88236 5 6.864 4.99213 6.84825 4.97639C6.83251 4.96064 6.82464 4.94228 6.82464 4.92128C6.82464 4.52902 6.82858 3.90651 6.83645 3.05376C6.57275 2.83598 6.35956 2.58868 6.19688 2.31186C5.96861 1.86187 5.75017 1.19279 5.54158 0.304616ZM12.3347 2.63853C12.3347 1.90385 12.3452 1.1167 12.3662 0.277066C12.6155 0.265258 13.1599 0.259355 13.9996 0.259355C14.5939 0.259355 15.0517 0.265258 15.3732 0.277066C15.3941 0.277066 15.4125 0.284937 15.4283 0.30068C15.444 0.316424 15.4519 0.334791 15.4519 0.355781C15.4571 0.675891 15.4597 0.902855 15.4597 1.03667C15.4597 1.24264 15.4571 1.4355 15.4519 1.61523C15.2302 1.62573 14.813 1.63097 14.2003 1.63097C14.0901 1.63097 13.9904 1.63032 13.9012 1.62901C13.8985 1.81005 13.8966 1.9478 13.8953 2.04226C14.3649 2.04489 14.6791 2.04948 14.8379 2.05604C14.8589 2.05604 14.8772 2.06391 14.893 2.07965C14.9087 2.0954 14.9166 2.11376 14.9166 2.13475C14.9205 2.34991 14.9225 2.54735 14.9225 2.72709C14.9225 2.88845 14.9205 3.0636 14.9166 3.25251H13.8953C13.8966 3.34435 13.8985 3.48079 13.9012 3.66184H13.9956C14.6385 3.66184 15.1029 3.66708 15.3889 3.67758C15.4099 3.67758 15.4283 3.68545 15.444 3.70119C15.4597 3.71694 15.4676 3.7353 15.4676 3.75629C15.4729 4.0764 15.4755 4.30337 15.4755 4.43718C15.4755 4.64316 15.4729 4.83601 15.4676 5.01574C15.2183 5.02755 14.7684 5.03345 14.1176 5.03345C13.9878 5.03345 13.7109 5.02886 13.2872 5.01968C12.8647 5.01181 12.584 5.00525 12.4449 5C12.4239 5 12.4056 4.99213 12.3898 4.97639C12.3741 4.96064 12.3662 4.94228 12.3662 4.92128C12.3452 3.93472 12.3347 3.1738 12.3347 2.63853ZM15.9084 2.63853C15.9084 1.90385 15.9189 1.1167 15.9399 0.277066C16.1892 0.265258 16.4056 0.259355 16.5893 0.259355C16.7454 0.259355 16.9724 0.265258 17.2702 0.277066C17.3082 0.278378 17.3371 0.304616 17.3568 0.355781L18.1715 2.3709L18.1439 0.277066C18.3945 0.265258 18.6241 0.259355 18.8327 0.259355C19.0374 0.259355 19.2801 0.265258 19.5608 0.277066C19.5831 0.278378 19.6015 0.286905 19.6159 0.302648C19.6317 0.31708 19.6395 0.334791 19.6395 0.355781C19.6605 1.34235 19.671 2.10327 19.671 2.63853C19.671 3.37321 19.6605 4.16037 19.6395 5C19.4218 5.01181 19.2184 5.01771 19.0295 5.01771C18.8052 5.01771 18.5651 5.01181 18.3092 5C18.2699 4.99869 18.241 4.97245 18.2227 4.92128L17.4079 2.90617L17.4355 5C17.1862 5.01181 16.9698 5.01771 16.7861 5.01771C16.5788 5.01771 16.323 5.01181 16.0186 5C15.9963 4.99869 15.9773 4.99082 15.9616 4.97639C15.9471 4.96064 15.9399 4.94228 15.9399 4.92128C15.9189 3.93472 15.9084 3.1738 15.9084 2.63853ZM20.2378 2.63853C20.2378 1.90385 20.2483 1.1167 20.2693 0.277066C20.5185 0.265258 21.063 0.259355 21.9026 0.259355C22.4969 0.259355 22.9548 0.265258 23.2762 0.277066C23.2972 0.277066 23.3156 0.284937 23.3313 0.30068C23.347 0.316424 23.3549 0.334791 23.3549 0.355781C23.3602 0.675891 23.3628 0.902855 23.3628 1.03667C23.3628 1.24264 23.3602 1.4355 23.3549 1.61523C23.1332 1.62573 22.716 1.63097 22.1033 1.63097C21.9931 1.63097 21.8934 1.63032 21.8042 1.62901C21.8016 1.81005 21.7996 1.9478 21.7983 2.04226C22.268 2.04489 22.5822 2.04948 22.7409 2.05604C22.7619 2.05604 22.7803 2.06391 22.796 2.07965C22.8118 2.0954 22.8196 2.11376 22.8196 2.13475C22.8236 2.34991 22.8255 2.54735 22.8255 2.72709C22.8255 2.88845 22.8236 3.0636 22.8196 3.25251H21.7983C21.7996 3.34435 21.8016 3.48079 21.8042 3.66184H21.8987C22.5415 3.66184 23.0059 3.66708 23.2919 3.67758C23.3129 3.67758 23.3313 3.68545 23.347 3.70119C23.3628 3.71694 23.3707 3.7353 23.3707 3.75629C23.3759 4.0764 23.3785 4.30337 23.3785 4.43718C23.3785 4.64316 23.3759 4.83601 23.3707 5.01574C23.1214 5.02755 22.6714 5.03345 22.0207 5.03345C21.8908 5.03345 21.614 5.02886 21.1902 5.01968C20.7678 5.01181 20.487 5.00525 20.348 5C20.327 5 20.3086 4.99213 20.2929 4.97639C20.2771 4.96064 20.2693 4.94228 20.2693 4.92128C20.2483 3.93472 20.2378 3.1738 20.2378 2.63853ZM23.8272 2.5362C23.8272 2.27382 23.8298 1.91041 23.8351 1.44599C23.8403 0.98157 23.8429 0.618167 23.8429 0.355781C24.1053 0.315112 24.3841 0.282969 24.6793 0.259355C24.9758 0.234428 25.2349 0.221965 25.4566 0.221965C25.6482 0.221965 25.8089 0.225245 25.9387 0.231804C26.0686 0.237052 26.2083 0.250171 26.3579 0.271162C26.5088 0.290841 26.6328 0.319703 26.7298 0.357749C26.8269 0.395795 26.924 0.448272 27.0211 0.51518C27.1182 0.582089 27.1936 0.663428 27.2474 0.759199C27.3025 0.854969 27.3471 0.972387 27.3812 1.11145C27.4153 1.25052 27.4324 1.40991 27.4324 1.58965C27.4324 1.87434 27.3589 2.12491 27.212 2.34138C27.065 2.55785 26.8604 2.72774 26.598 2.85106C26.7764 2.91273 26.9214 3.03867 27.0329 3.2289C27.294 3.74186 27.5026 4.33223 27.6587 5C27.4173 5.02886 27.1424 5.04329 26.8341 5.04329C26.6111 5.04329 26.4005 5.03673 26.2024 5.02361C26.1775 5.0223 26.1532 5.01443 26.1296 5C26.106 4.98557 26.0903 4.9672 26.0824 4.9449C25.8266 4.16824 25.6278 3.54114 25.4861 3.0636H25.3818C25.3845 3.21053 25.3904 3.51162 25.3995 3.96686C25.41 4.4221 25.4159 4.76648 25.4173 5C25.2021 5.00918 24.9719 5.01378 24.7265 5.01378C24.5048 5.01378 24.2365 5.00918 23.9217 5C23.8994 5 23.8803 4.99278 23.8646 4.97835C23.8502 4.96261 23.8429 4.94359 23.8429 4.92128C23.8429 4.67858 23.8403 4.28697 23.8351 3.74645C23.8298 3.20594 23.8272 2.80252 23.8272 2.5362ZM25.3779 2.0954H25.5117C25.6363 2.0954 25.7367 2.06457 25.8128 2.0029C25.8902 1.93993 25.9289 1.85728 25.9289 1.75495C25.9289 1.62638 25.9027 1.53127 25.8502 1.46961C25.7977 1.40663 25.7046 1.37515 25.5708 1.37515C25.5025 1.37515 25.4396 1.37712 25.3818 1.38105C25.3792 1.68804 25.3779 1.92616 25.3779 2.0954ZM27.7945 2.63657C27.7945 2.27185 27.8273 1.95174 27.8929 1.67624C27.9598 1.39942 28.0529 1.16983 28.1723 0.987474C28.2917 0.803804 28.4419 0.654901 28.6229 0.540763C28.8053 0.425313 29.0047 0.343318 29.2212 0.294777C29.4377 0.246236 29.6836 0.221965 29.9591 0.221965C30.3435 0.221965 30.8132 0.26657 31.3682 0.355781L31.2029 1.59949H29.8017C29.7545 1.59949 29.7145 1.60539 29.6817 1.6172C29.6489 1.62901 29.6161 1.65524 29.5833 1.69591C29.5505 1.73658 29.5242 1.79365 29.5046 1.86712C29.4862 1.94059 29.4705 2.04161 29.4573 2.17018C29.4455 2.29874 29.4396 2.45421 29.4396 2.63657C29.4396 2.78875 29.4442 2.92322 29.4534 3.03998C29.4626 3.15543 29.4764 3.25055 29.4947 3.32533C29.5144 3.39879 29.5354 3.4598 29.5577 3.50834C29.58 3.55688 29.6075 3.59296 29.6403 3.61657C29.6731 3.64019 29.7046 3.65659 29.7348 3.66577C29.765 3.67364 29.8004 3.67758 29.8411 3.67758H29.9985C29.9985 3.42044 29.988 3.02162 29.967 2.4811C30.1979 2.47061 30.4052 2.46536 30.5889 2.46536C30.783 2.46536 31.0113 2.47061 31.2737 2.4811C31.2947 2.48241 31.3124 2.49094 31.3268 2.50668C31.3426 2.52112 31.3511 2.53883 31.3524 2.55982C31.3734 3.04523 31.3839 3.41257 31.3839 3.66184C31.3839 4.09346 31.3734 4.49491 31.3524 4.86618C31.1294 4.90554 30.9641 4.93375 30.8565 4.9508C30.7489 4.96786 30.6151 4.98294 30.4551 4.99606C30.295 5.00918 30.1244 5.01574 29.9434 5.01574C29.7899 5.01574 29.6489 5.0105 29.5203 5C29.3917 4.98819 29.2645 4.96917 29.1385 4.94293C29.0139 4.91538 28.9004 4.87996 28.7981 4.83667C28.6958 4.79337 28.5974 4.73827 28.5029 4.67136C28.4098 4.60445 28.3271 4.52705 28.255 4.43915C28.1828 4.34994 28.1172 4.2463 28.0582 4.12823C27.9991 4.01015 27.9506 3.87765 27.9125 3.73071C27.8745 3.58378 27.845 3.41913 27.824 3.23677C27.8043 3.0531 27.7945 2.85303 27.7945 2.63657ZM31.6043 0.304616C31.8457 0.275754 32.1205 0.261323 32.4288 0.261323C32.6519 0.261323 32.8624 0.267882 33.0605 0.281002C33.0855 0.282313 33.1097 0.290185 33.1334 0.304616C33.157 0.319047 33.1727 0.337414 33.1806 0.359717C33.3052 0.741488 33.4731 1.31349 33.6844 2.07572C33.8877 1.33973 34.0563 0.767726 34.1901 0.359717C34.198 0.337414 34.2137 0.319047 34.2373 0.304616C34.261 0.290185 34.2852 0.282313 34.3101 0.281002C34.5082 0.267882 34.7188 0.261323 34.9418 0.261323C35.2501 0.261323 35.525 0.275754 35.7664 0.304616C35.5591 1.18754 35.34 1.85662 35.1091 2.31186C34.9451 2.59262 34.7332 2.83991 34.4735 3.05376C34.484 3.92094 34.4905 4.56969 34.4932 5C34.2439 5.01181 34.0091 5.01771 33.7887 5.01771C33.5617 5.01771 33.2875 5.01181 32.9661 5C32.9451 5 32.9267 4.99213 32.911 4.97639C32.8952 4.96064 32.8874 4.94228 32.8874 4.92128C32.8874 4.52902 32.8913 3.90651 32.8992 3.05376C32.6355 2.83598 32.4223 2.58868 32.2596 2.31186C32.0313 1.86187 31.8129 1.19279 31.6043 0.304616Z" fill="#D5F82C"/>
</svg>
