<svg width="184" height="224" viewBox="0 0 184 224" fill="none" xmlns="http://www.w3.org/2000/svg">
<g clip-path="url(#clip0_893_5947)">
<path d="M332 0H-6V224H332V0Z" fill="url(#paint0_radial_893_5947)"/>
<path d="M260 155.882H-76V162.558H260V155.882Z" fill="#222222"/>
<path opacity="0.1" d="M23.5475 37L-28 164H143L89.1071 37H23.5475Z" fill="#F9F5DE"/>
<path d="M93.4157 36.2388H89.6525V108.425H93.4157V36.2388Z" fill="#344266"/>
<path d="M93.4291 36.2388H89.6659V108.425H93.4291V36.2388Z" fill="#333333"/>
<path d="M89.6615 38.2817H24.3027V105.312H89.6615V38.2817Z" fill="white"/>
<path d="M93 34H18V38H93V34Z" fill="#333333"/>
<path d="M95 105H19V112H95V105Z" fill="#333333"/>
<path d="M24.8672 36.2388H21.104V108.425H24.8672V36.2388Z" fill="#333333"/>
<path d="M89.6659 72.3342L24.8672 88.6728L89.6659 41.3013V72.3342Z" fill="#E3FBFF"/>
<path d="M58.0551 36.2388H55.9181V108.425H58.0551V36.2388Z" fill="#333333"/>
<path d="M95.7721 42.6405H18.7475L19.8944 39.9614H94.6252L95.7721 42.6405Z" fill="#D78D2B"/>
<path d="M95.7721 45.9109H18.7475L19.8944 43.2363H94.6252L95.7721 45.9109Z" fill="#D78D2B"/>
<path d="M95.7721 49.1859H18.7475L19.8944 46.5068H94.6252L95.7721 49.1859Z" fill="#D78D2B"/>
<path d="M95.7721 59.0062H18.7475L19.8944 56.3271H94.6252L95.7721 59.0062Z" fill="#D78D2B"/>
<path d="M95.7721 62.2767H18.7475L19.8944 59.5977H94.6252L95.7721 62.2767Z" fill="#D78D2B"/>
<path d="M95.7721 65.5466H18.7475L19.8944 62.8721H94.6252L95.7721 65.5466Z" fill="#D78D2B"/>
<path d="M95.7721 68.8215H18.7475L19.8944 66.147H94.6252L95.7721 68.8215Z" fill="#D78D2B"/>
<path d="M95.7721 52.4563H18.7475L19.8944 49.7817H94.6252L95.7721 52.4563Z" fill="#D78D2B"/>
<path d="M95.7721 55.7313H18.7475L19.8944 53.0522H94.6252L95.7721 55.7313Z" fill="#D78D2B"/>
<path opacity="0.3" d="M95 105H19V107H95V105Z" fill="#F9F5DE"/>
<path d="M260 162.521H-76V233.964H260V162.521Z" fill="url(#paint1_radial_893_5947)"/>
<path d="M254.763 159.828C254.763 161.531 238.922 162.915 219.371 162.915C199.82 162.915 183.979 161.531 183.979 159.828C183.979 158.126 199.825 156.742 219.371 156.742C238.917 156.742 254.763 158.144 254.763 159.828Z" fill="#F9D4B2"/>
<g clip-path="url(#clip1_893_5947)">
<path d="M196.96 122.139C196.738 119.867 195.694 117.762 194.032 116.235C193.228 115.506 192.298 114.939 191.288 114.562C191.041 114.468 190.782 114.403 190.529 114.315L189.747 114.151L188.976 114.063H188.136H187.302L186.531 114.145L185.749 114.309C185.496 114.397 185.237 114.468 184.99 114.556C183.98 114.933 183.049 115.5 182.246 116.229C180.587 117.759 179.546 119.863 179.324 122.133C179.216 120.934 179.366 119.726 179.763 118.593C180.16 117.459 180.796 116.428 181.625 115.571C182.465 114.683 183.478 113.983 184.598 113.517C184.875 113.4 185.174 113.318 185.455 113.218C185.737 113.118 186.031 113.083 186.347 113.012C186.663 112.942 186.963 112.93 187.267 112.901H188.993C189.298 112.93 189.609 112.971 189.913 113.012C190.218 113.053 190.489 113.142 190.805 113.218C191.121 113.294 191.38 113.4 191.662 113.523C192.782 113.987 193.795 114.685 194.636 115.571C195.468 116.428 196.107 117.459 196.508 118.593C196.91 119.728 197.064 120.938 196.96 122.139Z" fill="#565656"/>
<mask id="mask0_893_5947" style="mask-type:luminance" maskUnits="userSpaceOnUse" x="181" y="127" width="14" height="7">
<path d="M194.026 127.849H181.97V134H194.026V127.849Z" fill="white"/>
</mask>
<g mask="url(#mask0_893_5947)">
<path d="M194.026 127.849H181.97V127.954H194.026V127.849Z" fill="#FFA733"/>
<path d="M194.026 127.955H181.97V128.059H194.026V127.955Z" fill="#FFA733"/>
<path d="M194.026 128.061H181.97V128.165H194.026V128.061Z" fill="#FFA733"/>
<path d="M194.026 128.166H181.97V128.271H194.026V128.166Z" fill="#FFA733"/>
<path d="M194.026 128.266H181.97V128.371H194.026V128.266Z" fill="#FFA733"/>
<path d="M194.026 128.372H181.97V128.476H194.026V128.372Z" fill="#FFA733"/>
<path d="M194.026 128.477H181.97V128.582H194.026V128.477Z" fill="#FFA733"/>
<path d="M194.026 128.583H181.97V128.687H194.026V128.583Z" fill="#FFA733"/>
<path d="M194.026 128.688H181.97V128.793H194.026V128.688Z" fill="#FFA733"/>
<path d="M194.026 128.794H181.97V128.899H194.026V128.794Z" fill="#FFA733"/>
<path d="M194.026 128.9H181.97V129.005H194.026V128.9Z" fill="#FFA733"/>
<path d="M194.026 129.005H181.97V129.11H194.026V129.005Z" fill="#FFA733"/>
<path d="M194.026 129.111H181.97V129.216H194.026V129.111Z" fill="#FFA733"/>
<path d="M194.026 129.211H181.97V129.316H194.026V129.211Z" fill="#FFA733"/>
<path d="M194.026 129.316H181.97V129.421H194.026V129.316Z" fill="#FFA733"/>
<path d="M194.026 129.422H181.97V129.527H194.026V129.422Z" fill="#FFA733"/>
<path d="M194.026 129.528H181.97V129.633H194.026V129.528Z" fill="#FFA733"/>
<path d="M194.026 129.633H181.97V129.738H194.026V129.633Z" fill="#FFA733"/>
<path d="M194.026 129.739H181.97V129.844H194.026V129.739Z" fill="#FFA733"/>
<path d="M194.026 129.845H181.97V129.95H194.026V129.845Z" fill="#FFA733"/>
<path d="M194.026 129.95H181.97V130.049H194.026V129.95Z" fill="#FFA733"/>
<path d="M194.026 130.05H181.97V130.149H194.026V130.05Z" fill="#FFA733"/>
<path d="M194.026 130.15H181.97V130.249H194.026V130.15Z" fill="#FFA733"/>
<path d="M194.026 130.25H181.97V130.349H194.026V130.25Z" fill="#FFA733"/>
<path d="M194.026 130.349H181.97V130.448H194.026V130.349Z" fill="#FFA733"/>
<path d="M194.026 130.455H181.97V130.554H194.026V130.455Z" fill="#FFA733"/>
<path d="M194.026 130.555H181.97V130.654H194.026V130.555Z" fill="#FFA733"/>
<path d="M194.026 130.654H181.97V130.753H194.026V130.654Z" fill="#FFA733"/>
<path d="M194.026 130.754H181.97V130.853H194.026V130.754Z" fill="#FFA733"/>
<path d="M194.026 130.86H181.97V130.959H194.026V130.86Z" fill="#FFA733"/>
<path d="M194.026 130.96H181.97V131.059H194.026V130.96Z" fill="#FFA733"/>
<path d="M194.026 131.06H181.97V131.159H194.026V131.06Z" fill="#FFA733"/>
<path d="M194.026 131.159H181.97V131.258H194.026V131.159Z" fill="#FFA733"/>
<path d="M194.026 131.259H181.97V131.358H194.026V131.259Z" fill="#FFA733"/>
<path d="M194.026 131.365H181.97V131.464H194.026V131.365Z" fill="#FFA733"/>
<path d="M194.026 131.464H181.97V131.563H194.026V131.464Z" fill="#FFA733"/>
<path d="M194.026 131.564H181.97V131.663H194.026V131.564Z" fill="#FFA733"/>
<path d="M194.026 131.664H181.97V131.763H194.026V131.664Z" fill="#FFA733"/>
<path d="M194.026 131.77H181.97V131.869H194.026V131.77Z" fill="#FFA733"/>
<path d="M194.026 131.87H181.97V131.969H194.026V131.87Z" fill="#FFA733"/>
<path d="M194.026 131.969H181.97V132.068H194.026V131.969Z" fill="#FFA733"/>
<path d="M194.026 132.069H181.97V132.168H194.026V132.069Z" fill="#FFA733"/>
<path d="M194.026 132.169H181.97V132.268H194.026V132.169Z" fill="#FFA733"/>
<path d="M194.026 132.274H181.97V132.373H194.026V132.274Z" fill="#FFA733"/>
<path d="M194.026 132.374H181.97V132.473H194.026V132.374Z" fill="#FFA733"/>
<path d="M194.026 132.474H181.97V132.573H194.026V132.474Z" fill="#FFA733"/>
<path d="M194.026 132.574H181.97V132.673H194.026V132.574Z" fill="#FFA733"/>
<path d="M194.026 132.679H181.97V132.778H194.026V132.679Z" fill="#FFA733"/>
<path d="M194.026 132.779H181.97V132.878H194.026V132.779Z" fill="#FFA733"/>
<path d="M194.026 132.879H181.97V132.978H194.026V132.879Z" fill="#FFA733"/>
<path d="M194.026 132.979H181.97V134H194.026V132.979Z" fill="#FFA733"/>
</g>
<path d="M189.028 113.488V4H187.262V113.488C185.112 113.638 183.098 114.614 181.626 116.219C180.154 117.825 179.333 119.94 179.329 122.139V134H182.171V122.139C182.173 120.604 182.771 119.133 183.834 118.048C184.897 116.963 186.339 116.353 187.843 116.352H188.447C189.95 116.353 191.392 116.963 192.455 118.048C193.519 119.133 194.117 120.604 194.118 122.139V134H196.96V122.139C196.956 119.94 196.135 117.825 194.663 116.219C193.191 114.614 191.177 113.638 189.028 113.488Z" fill="url(#paint2_linear_893_5947)"/>
<path d="M182.171 134C181.929 132.239 181.803 130.508 181.722 128.765C181.642 127.022 181.607 125.243 181.596 123.524V122.215C181.596 121.992 181.596 121.739 181.63 121.505C181.665 121.27 181.699 121.029 181.757 120.8C181.976 119.872 182.41 119.01 183.022 118.288C183.603 117.584 184.347 117.038 185.187 116.699C186.026 116.361 186.935 116.242 187.831 116.352C187.016 116.461 186.231 116.74 185.525 117.17C184.819 117.6 184.206 118.172 183.724 118.852C183.276 119.507 182.969 120.251 182.821 121.035L182.74 121.622V122.209V123.518C182.74 125.279 182.706 127.01 182.614 128.759C182.522 130.508 182.407 132.257 182.171 134Z" fill="#565656"/>
<mask id="mask1_893_5947" style="mask-type:luminance" maskUnits="userSpaceOnUse" x="166" y="96" width="13" height="7">
<path d="M178.743 96.8428H166.686V102.994H178.743V96.8428Z" fill="white"/>
</mask>
<g mask="url(#mask1_893_5947)">
<path d="M178.743 96.8428H166.686V96.9476H178.743V96.8428Z" fill="#FFA733"/>
<path d="M178.743 96.9482H166.686V97.0531H178.743V96.9482Z" fill="#FFA733"/>
<path d="M178.743 97.0542H166.686V97.1591H178.743V97.0542Z" fill="#FFA733"/>
<path d="M178.743 97.1597H166.686V97.2645H178.743V97.1597Z" fill="#FFA733"/>
<path d="M178.743 97.2651H166.686V97.37H178.743V97.2651Z" fill="#FFA733"/>
<path d="M178.743 97.3711H166.686V97.476H178.743V97.3711Z" fill="#FFA733"/>
<path d="M178.743 97.4766H166.686V97.5814H178.743V97.4766Z" fill="#FFA733"/>
<path d="M178.743 97.5825H166.686V97.6874H178.743V97.5825Z" fill="#FFA733"/>
<path d="M178.743 97.6821H166.686V97.787H178.743V97.6821Z" fill="#FFA733"/>
<path d="M178.743 97.7876H166.686V97.8925H178.743V97.7876Z" fill="#FFA733"/>
<path d="M178.743 97.8936H166.686V97.9984H178.743V97.8936Z" fill="#FFA733"/>
<path d="M178.743 97.999H166.686V98.1039H178.743V97.999Z" fill="#FFA733"/>
<path d="M178.743 98.1045H166.686V98.2094H178.743V98.1045Z" fill="#FFA733"/>
<path d="M178.743 98.2104H166.686V98.3153H178.743V98.2104Z" fill="#FFA733"/>
<path d="M178.743 98.3159H166.686V98.4208H178.743V98.3159Z" fill="#FFA733"/>
<path d="M178.743 98.4214H166.686V98.5263H178.743V98.4214Z" fill="#FFA733"/>
<path d="M178.743 98.5273H166.686V98.6322H178.743V98.5273Z" fill="#FFA733"/>
<path d="M178.743 98.627H166.686V98.7318H178.743V98.627Z" fill="#FFA733"/>
<path d="M178.743 98.7324H166.686V98.8373H178.743V98.7324Z" fill="#FFA733"/>
<path d="M178.743 98.8384H166.686V98.9433H178.743V98.8384Z" fill="#FFA733"/>
<path d="M178.743 98.9438H166.686V99.0429H178.743V98.9438Z" fill="#FFA733"/>
<path d="M178.743 99.0435H166.686V99.1425H178.743V99.0435Z" fill="#FFA733"/>
<path d="M178.743 99.1494H166.686V99.2485H178.743V99.1494Z" fill="#FFA733"/>
<path d="M178.743 99.249H166.686V99.3481H178.743V99.249Z" fill="#FFA733"/>
<path d="M178.743 99.3486H166.686V99.4477H178.743V99.3486Z" fill="#FFA733"/>
<path d="M178.743 99.4487H166.686V99.5478H178.743V99.4487Z" fill="#FFA733"/>
<path d="M178.743 99.5483H166.686V99.6474H178.743V99.5483Z" fill="#FFA733"/>
<path d="M178.743 99.6543H166.686V99.7533H178.743V99.6543Z" fill="#FFA733"/>
<path d="M178.743 99.7539H166.686V99.853H178.743V99.7539Z" fill="#FFA733"/>
<path d="M178.743 99.8535H166.686V99.9526H178.743V99.8535Z" fill="#FFA733"/>
<path d="M178.743 99.9536H166.686V100.053H178.743V99.9536Z" fill="#FFA733"/>
<path d="M178.743 100.053H166.686V100.152H178.743V100.053Z" fill="#FFA733"/>
<path d="M178.743 100.159H166.686V100.258H178.743V100.159Z" fill="#FFA733"/>
<path d="M178.743 100.259H166.686V100.358H178.743V100.259Z" fill="#FFA733"/>
<path d="M178.743 100.358H166.686V100.457H178.743V100.358Z" fill="#FFA733"/>
<path d="M178.743 100.458H166.686V100.557H178.743V100.458Z" fill="#FFA733"/>
<path d="M178.743 100.564H166.686V100.663H178.743V100.564Z" fill="#FFA733"/>
<path d="M178.743 100.664H166.686V100.763H178.743V100.664Z" fill="#FFA733"/>
<path d="M178.743 100.763H166.686V100.862H178.743V100.763Z" fill="#FFA733"/>
<path d="M178.743 100.863H166.686V100.962H178.743V100.863Z" fill="#FFA733"/>
<path d="M178.743 100.969H166.686V101.068H178.743V100.969Z" fill="#FFA733"/>
<path d="M178.743 101.068H166.686V101.167H178.743V101.068Z" fill="#FFA733"/>
<path d="M178.743 101.168H166.686V101.268H178.743V101.168Z" fill="#FFA733"/>
<path d="M178.743 101.268H166.686V101.367H178.743V101.268Z" fill="#FFA733"/>
<path d="M178.743 101.368H166.686V101.467H178.743V101.368Z" fill="#FFA733"/>
<path d="M178.743 101.474H166.686V101.573H178.743V101.474Z" fill="#FFA733"/>
<path d="M178.743 101.573H166.686V101.672H178.743V101.573Z" fill="#FFA733"/>
<path d="M178.743 101.673H166.686V101.772H178.743V101.673Z" fill="#FFA733"/>
<path d="M178.743 101.773H166.686V101.872H178.743V101.773Z" fill="#FFA733"/>
<path d="M178.743 101.873H166.686V101.972H178.743V101.873Z" fill="#FFA733"/>
<path d="M178.743 101.978H166.686V102.999H178.743V101.978Z" fill="#FFA733"/>
</g>
<path d="M164.046 91.1384C163.936 89.9378 164.085 88.7272 164.483 87.5917C164.88 86.4561 165.517 85.423 166.347 84.565C167.189 83.6803 168.202 82.983 169.321 82.5167C171.604 81.6481 174.118 81.6481 176.402 82.5167C177.525 82.9786 178.54 83.6765 179.381 84.565C180.212 85.423 180.848 86.4561 181.245 87.5917C181.643 88.7272 181.792 89.9378 181.682 91.1384C181.468 88.8629 180.425 86.752 178.76 85.2223C177.106 83.8154 175.02 83.0448 172.867 83.0448C170.713 83.0448 168.628 83.8154 166.974 85.2223C165.305 86.75 164.26 88.8615 164.046 91.1384Z" fill="#565656"/>
<path d="M173.744 82.4813V4H171.972V82.4813C169.823 82.6328 167.809 83.6104 166.338 85.217C164.867 86.8236 164.048 88.9395 164.046 91.1382V102.994H166.882V91.1382C166.883 89.6033 167.481 88.1317 168.544 87.0458C169.607 85.96 171.049 85.3485 172.553 85.3454H173.157C174.663 85.3469 176.106 85.9577 177.17 87.0437C178.235 88.1298 178.833 89.6023 178.835 91.1382V102.994H181.671V91.1382C181.667 88.94 180.847 86.8247 179.377 85.2185C177.906 83.6122 175.893 82.6341 173.744 82.4813Z" fill="url(#paint3_linear_893_5947)"/>
<path d="M166.882 102.994C166.64 101.233 166.519 99.5077 166.433 97.7587C166.347 96.0097 166.318 94.2666 166.307 92.5235V91.2147C166.307 90.9858 166.307 90.7393 166.347 90.5045C166.375 90.2659 166.416 90.0289 166.468 89.7944C166.69 88.8672 167.124 88.0066 167.733 87.2824C168.315 86.5784 169.059 86.0329 169.898 85.6948C170.737 85.3568 171.646 85.2368 172.542 85.3456C171.727 85.4549 170.943 85.733 170.238 86.163C169.533 86.593 168.921 87.1657 168.441 87.8458C167.992 88.5012 167.683 89.2448 167.532 90.0291L167.451 90.616V91.2029V92.5117C167.451 94.2725 167.411 96.0038 167.325 97.747C167.238 99.4901 167.118 101.251 166.882 102.994Z" fill="#565656"/>
<path d="M173.24 -4.04102V69.1246L171.92 71.0105V-4.04102H173.24Z" fill="#28292B"/>
</g>
<g clip-path="url(#clip2_893_5947)">
<path d="M124.981 43.7769V115.273H141.095V43.7769H124.981Z" fill="#414B54"/>
<g style="mix-blend-mode:multiply" opacity="0.7">
<path d="M124.981 115.273H128.946V47.7757H137.131V115.273H141.09V43.7764H124.981V115.273Z" fill="#333333"/>
</g>
<path d="M137.082 66.7759H128.99V74.8481H137.082V66.7759Z" fill="#FFB612"/>
<g style="mix-blend-mode:multiply" opacity="0.5">
<path d="M128.995 74.8534H137.086V66.7812H136.486C136.35 66.927 136.237 67.0924 136.152 67.272C135.871 67.8314 135.851 68.5331 135.409 68.9796C135.035 69.3526 134.464 69.436 134.012 69.7157C133.573 70.0537 133.198 70.4675 132.905 70.9376C132.008 72.085 130.807 72.9588 129.437 73.4598L128.995 73.6217V74.8534Z" fill="#FFB612"/>
</g>
<g style="mix-blend-mode:screen">
<path d="M128.99 72.419L129.477 67.1783L137.082 66.9084V66.7759H128.99V72.419Z" fill="#FFB612"/>
</g>
<g style="mix-blend-mode:screen">
<path d="M129.885 69.1015C130.141 69.2487 130.554 69.0132 130.81 68.5765C131.066 68.1397 131.066 67.6588 130.81 67.5116C130.554 67.3644 130.141 67.6 129.885 68.0367C129.629 68.4734 129.629 68.9494 129.885 69.1015Z" fill="#FF5766"/>
</g>
<path d="M137.082 76.2812H128.99V84.3534H137.082V76.2812Z" fill="#FFB612"/>
<g style="mix-blend-mode:multiply" opacity="0.5">
<path d="M128.995 84.3534H137.086V76.2812H136.486C136.35 76.427 136.237 76.5924 136.152 76.772C135.871 77.3314 135.851 78.038 135.409 78.4796C134.966 78.9213 134.464 78.936 134.012 79.2157C133.573 79.5537 133.198 79.9675 132.905 80.4376C132.008 81.5864 130.807 82.4619 129.437 82.9647L128.995 83.1218V84.3534Z" fill="#FFB612"/>
</g>
<g style="mix-blend-mode:screen">
<path d="M128.99 81.9244L129.477 76.6787L137.082 76.4088V76.2812H128.99V81.9244Z" fill="#FFB612"/>
</g>
<g style="mix-blend-mode:screen">
<path d="M129.885 78.6029C130.141 78.7502 130.554 78.5146 130.81 78.0779C131.066 77.6412 131.066 77.1652 130.81 77.013C130.554 76.8609 130.141 77.1014 129.885 77.5381C129.629 77.9748 129.629 78.4557 129.885 78.6029Z" fill="#FF5766"/>
</g>
<path d="M137.082 85.7808H128.99V93.853H137.082V85.7808Z" fill="#FFB612"/>
<g style="mix-blend-mode:multiply" opacity="0.5">
<path d="M128.995 93.853H137.086V85.7808H136.486C136.35 85.9265 136.237 86.0919 136.152 86.2715C135.871 86.8358 135.851 87.5375 135.409 87.9841C135.035 88.3521 134.464 88.4355 134.012 88.7152C133.573 89.0532 133.198 89.4671 132.905 89.9371C132.008 91.086 130.807 91.9614 129.437 92.4642L128.995 92.6262V93.853Z" fill="#FFB612"/>
</g>
<g style="mix-blend-mode:screen">
<path d="M128.99 91.4239L129.477 86.1782L137.082 85.9083V85.7808H128.99V91.4239Z" fill="#FFB612"/>
</g>
<g style="mix-blend-mode:screen">
<path d="M129.885 88.103C130.141 88.2502 130.554 88.0146 130.81 87.5779C131.066 87.1412 131.066 86.6652 130.81 86.518C130.554 86.3708 130.141 86.6014 129.885 87.043C129.629 87.4847 129.629 87.9558 129.885 88.103Z" fill="#FF5766"/>
</g>
<g style="mix-blend-mode:multiply" opacity="0.5">
<path d="M137.082 57.2778H128.99V65.35H137.082V57.2778Z" fill="#8D949E"/>
</g>
<g style="mix-blend-mode:multiply" opacity="0.5">
<path d="M128.995 65.3534H137.086V57.2812H136.486C136.349 57.4263 136.236 57.5919 136.152 57.772C135.871 58.3314 135.851 59.0331 135.409 59.4796C135.035 59.8526 134.464 59.9311 134.012 60.2157C133.573 60.5519 133.198 60.9641 132.905 61.4327C132.008 62.5815 130.807 63.457 129.437 63.9598L128.995 64.1218V65.3534Z" fill="#8D949E"/>
</g>
<g style="mix-blend-mode:multiply" opacity="0.5">
<path d="M137.082 47.7764H128.99V55.8486H137.082V47.7764Z" fill="#8D949E"/>
</g>
<g style="mix-blend-mode:multiply" opacity="0.5">
<path d="M128.995 55.8485H137.086V47.7764H136.486C136.35 47.9217 136.237 48.0872 136.152 48.2671C135.871 48.8265 135.851 49.5282 135.409 49.9748C135.035 50.3428 134.464 50.4262 134.012 50.7059C133.573 51.0439 133.198 51.4577 132.905 51.9278C132.008 53.0767 130.807 53.9521 129.437 54.4549L128.995 54.6169V55.8485Z" fill="#8D949E"/>
</g>
<path d="M150.34 111.698L133.036 94.4351L115.733 111.698L133.036 128.96L150.34 111.698Z" fill="#414B54"/>
<g style="mix-blend-mode:multiply" opacity="0.7">
<path d="M133.038 94.438L115.734 111.696L133.038 128.959L150.343 111.696L133.038 94.438ZM133.038 123.763L120.943 111.696L133.038 99.6297L145.134 111.696L133.038 123.763Z" fill="#333333"/>
</g>
<g clip-path="url(#clip3_893_5947)">
<path d="M130.128 119.667L132.136 112.781L128.978 113.512L131.201 105.128H136.797L135.02 109.496L137.788 108.684L130.128 119.667Z" fill="#E88D1E"/>
<path d="M136.343 105.478H131.401L129.39 113.062L132.573 112.325L130.731 118.329L137.014 109.27L134.5 110.007L136.343 105.478Z" fill="url(#paint4_radial_893_5947)"/>
<path style="mix-blend-mode:screen" d="M129.294 121.279L129.265 121.138L129.244 121.212C129.259 121.233 129.275 121.256 129.294 121.279Z" fill="url(#paint5_radial_893_5947)"/>
</g>
</g>
<path opacity="0.9" d="M115.362 35.6385C115.362 34.9039 115.373 34.1167 115.394 33.2771C115.643 33.2653 115.859 33.2594 116.043 33.2594C116.263 33.2594 116.49 33.2653 116.724 33.2771C116.762 33.2784 116.791 33.3046 116.81 33.3558L117.798 35.3709L118.786 33.3558C118.823 33.3072 118.855 33.2817 118.883 33.279C119.047 33.2659 119.231 33.2594 119.436 33.2594C119.656 33.2594 119.899 33.2653 120.164 33.2771C120.186 33.2784 120.204 33.2869 120.219 33.3026C120.235 33.3171 120.242 33.3348 120.242 33.3558C120.263 34.3423 120.274 35.1033 120.274 35.6385C120.274 36.3732 120.263 37.1604 120.242 38C120.017 38.0118 119.813 38.0177 119.632 38.0177C119.468 38.0177 119.226 38.0118 118.904 38C118.883 38 118.865 37.9921 118.849 37.9764C118.833 37.9606 118.826 37.9423 118.826 37.9213C118.822 37.7743 118.816 37.5546 118.808 37.262C118.8 36.9682 118.793 36.7018 118.788 36.4631C118.783 36.223 118.78 35.9934 118.778 35.7743L117.881 37.6064L117.794 37.6222L117.716 37.6064L116.862 35.8629L116.889 38C116.64 38.0118 116.423 38.0177 116.24 38.0177C116.05 38.0177 115.794 38.0118 115.472 38C115.451 38 115.433 37.9921 115.417 37.9764C115.401 37.9606 115.394 37.9423 115.394 37.9213C115.373 36.9347 115.362 36.1738 115.362 35.6385ZM120.542 33.3046C120.783 33.2758 121.058 33.2613 121.366 33.2613C121.589 33.2613 121.8 33.2679 121.998 33.281C122.023 33.2823 122.047 33.2902 122.071 33.3046C122.094 33.319 122.11 33.3374 122.118 33.3597C122.242 33.7415 122.41 34.3135 122.622 35.0757C122.825 34.3397 122.994 33.7677 123.127 33.3597C123.135 33.3374 123.151 33.319 123.175 33.3046C123.198 33.2902 123.222 33.2823 123.247 33.281C123.446 33.2679 123.656 33.2613 123.879 33.2613C124.187 33.2613 124.462 33.2758 124.704 33.3046C124.496 34.1875 124.277 34.8566 124.046 35.3119C123.882 35.5926 123.671 35.8399 123.411 36.0538C123.421 36.9209 123.428 37.5697 123.43 38C123.181 38.0118 122.946 38.0177 122.726 38.0177C122.499 38.0177 122.225 38.0118 121.903 38C121.882 38 121.864 37.9921 121.848 37.9764C121.833 37.9606 121.825 37.9423 121.825 37.9213C121.825 37.529 121.829 36.9065 121.836 36.0538C121.573 35.836 121.36 35.5887 121.197 35.3119C120.969 34.8619 120.75 34.1928 120.542 33.3046ZM127.335 35.6385C127.335 34.9039 127.345 34.1167 127.366 33.2771C127.615 33.2653 128.16 33.2594 129 33.2594C129.594 33.2594 130.052 33.2653 130.373 33.2771C130.394 33.2771 130.413 33.2849 130.428 33.3007C130.444 33.3164 130.452 33.3348 130.452 33.3558C130.457 33.6759 130.46 33.9029 130.46 34.0367C130.46 34.2426 130.457 34.4355 130.452 34.6152C130.23 34.6257 129.813 34.631 129.2 34.631C129.09 34.631 128.99 34.6303 128.901 34.629C128.899 34.8101 128.897 34.9478 128.895 35.0423C129.365 35.0449 129.679 35.0495 129.838 35.056C129.859 35.056 129.877 35.0639 129.893 35.0797C129.909 35.0954 129.917 35.1138 129.917 35.1348C129.921 35.3499 129.923 35.5474 129.923 35.7271C129.923 35.8885 129.921 36.0636 129.917 36.2525H128.895C128.897 36.3443 128.899 36.4808 128.901 36.6618H128.996C129.638 36.6618 130.103 36.6671 130.389 36.6776C130.41 36.6776 130.428 36.6854 130.444 36.7012C130.46 36.7169 130.468 36.7353 130.468 36.7563C130.473 37.0764 130.475 37.3034 130.475 37.4372C130.475 37.6432 130.473 37.836 130.468 38.0157C130.218 38.0276 129.768 38.0335 129.118 38.0335C128.988 38.0335 128.711 38.0289 128.287 38.0197C127.865 38.0118 127.584 38.0052 127.445 38C127.424 38 127.406 37.9921 127.39 37.9764C127.374 37.9606 127.366 37.9423 127.366 37.9213C127.345 36.9347 127.335 36.1738 127.335 35.6385ZM130.908 35.6385C130.908 34.9039 130.919 34.1167 130.94 33.2771C131.189 33.2653 131.406 33.2594 131.589 33.2594C131.745 33.2594 131.972 33.2653 132.27 33.2771C132.308 33.2784 132.337 33.3046 132.357 33.3558L133.171 35.3709L133.144 33.2771C133.395 33.2653 133.624 33.2594 133.833 33.2594C134.037 33.2594 134.28 33.2653 134.561 33.2771C134.583 33.2784 134.601 33.2869 134.616 33.3026C134.632 33.3171 134.64 33.3348 134.64 33.3558C134.661 34.3423 134.671 35.1033 134.671 35.6385C134.671 36.3732 134.661 37.1604 134.64 38C134.422 38.0118 134.218 38.0177 134.029 38.0177C133.805 38.0177 133.565 38.0118 133.309 38C133.27 37.9987 133.241 37.9724 133.223 37.9213L132.408 35.9062L132.435 38C132.186 38.0118 131.97 38.0177 131.786 38.0177C131.579 38.0177 131.323 38.0118 131.019 38C130.996 37.9987 130.977 37.9908 130.962 37.9764C130.947 37.9606 130.94 37.9423 130.94 37.9213C130.919 36.9347 130.908 36.1738 130.908 35.6385ZM135.238 35.6385C135.238 34.9039 135.248 34.1167 135.269 33.2771C135.519 33.2653 136.063 33.2594 136.903 33.2594C137.497 33.2594 137.955 33.2653 138.276 33.2771C138.297 33.2771 138.316 33.2849 138.331 33.3007C138.347 33.3164 138.355 33.3348 138.355 33.3558C138.36 33.6759 138.363 33.9029 138.363 34.0367C138.363 34.2426 138.36 34.4355 138.355 34.6152C138.133 34.6257 137.716 34.631 137.103 34.631C136.993 34.631 136.893 34.6303 136.804 34.629C136.802 34.8101 136.8 34.9478 136.798 35.0423C137.268 35.0449 137.582 35.0495 137.741 35.056C137.762 35.056 137.78 35.0639 137.796 35.0797C137.812 35.0954 137.82 35.1138 137.82 35.1348C137.824 35.3499 137.826 35.5474 137.826 35.7271C137.826 35.8885 137.824 36.0636 137.82 36.2525H136.798C136.8 36.3443 136.802 36.4808 136.804 36.6618H136.899C137.542 36.6618 138.006 36.6671 138.292 36.6776C138.313 36.6776 138.331 36.6854 138.347 36.7012C138.363 36.7169 138.371 36.7353 138.371 36.7563C138.376 37.0764 138.379 37.3034 138.379 37.4372C138.379 37.6432 138.376 37.836 138.371 38.0157C138.121 38.0276 137.671 38.0335 137.021 38.0335C136.891 38.0335 136.614 38.0289 136.19 38.0197C135.768 38.0118 135.487 38.0052 135.348 38C135.327 38 135.309 37.9921 135.293 37.9764C135.277 37.9606 135.269 37.9423 135.269 37.9213C135.248 36.9347 135.238 36.1738 135.238 35.6385ZM138.827 35.5362C138.827 35.2738 138.83 34.9104 138.835 34.446C138.84 33.9816 138.843 33.6182 138.843 33.3558C139.105 33.3151 139.384 33.283 139.679 33.2594C139.976 33.2344 140.235 33.222 140.457 33.222C140.648 33.222 140.809 33.2252 140.939 33.2318C141.069 33.2371 141.208 33.2502 141.358 33.2712C141.509 33.2908 141.633 33.3197 141.73 33.3577C141.827 33.3958 141.924 33.4483 142.021 33.5152C142.118 33.5821 142.194 33.6634 142.247 33.7592C142.302 33.855 142.347 33.9724 142.381 34.1115C142.415 34.2505 142.432 34.4099 142.432 34.5896C142.432 34.8743 142.359 35.1249 142.212 35.3414C142.065 35.5578 141.86 35.7277 141.598 35.8511C141.776 35.9127 141.921 36.0387 142.033 36.2289C142.294 36.7419 142.503 37.3322 142.659 38C142.417 38.0289 142.142 38.0433 141.834 38.0433C141.611 38.0433 141.401 38.0367 141.202 38.0236C141.178 38.0223 141.153 38.0144 141.13 38C141.106 37.9856 141.09 37.9672 141.082 37.9449C140.827 37.1682 140.628 36.5411 140.486 36.0636H140.382C140.384 36.2105 140.39 36.5116 140.4 36.9669C140.41 37.4221 140.416 37.7665 140.417 38C140.202 38.0092 139.972 38.0138 139.727 38.0138C139.505 38.0138 139.237 38.0092 138.922 38C138.899 38 138.88 37.9928 138.865 37.9784C138.85 37.9626 138.843 37.9436 138.843 37.9213C138.843 37.6786 138.84 37.287 138.835 36.7465C138.83 36.2059 138.827 35.8025 138.827 35.5362ZM140.378 35.0954H140.512C140.636 35.0954 140.737 35.0646 140.813 35.0029C140.89 34.9399 140.929 34.8573 140.929 34.755C140.929 34.6264 140.903 34.5313 140.85 34.4696C140.798 34.4066 140.705 34.3751 140.571 34.3751C140.503 34.3751 140.44 34.3771 140.382 34.3811C140.379 34.688 140.378 34.9262 140.378 35.0954ZM142.794 35.6366C142.794 35.2718 142.827 34.9517 142.893 34.6762C142.96 34.3994 143.053 34.1698 143.172 33.9875C143.292 33.8038 143.442 33.6549 143.623 33.5408C143.805 33.4253 144.005 33.3433 144.221 33.2948C144.438 33.2462 144.684 33.222 144.959 33.222C145.344 33.222 145.813 33.2666 146.368 33.3558L146.203 34.5995H144.802C144.754 34.5995 144.714 34.6054 144.682 34.6172C144.649 34.629 144.616 34.6552 144.583 34.6959C144.55 34.7366 144.524 34.7937 144.505 34.8671C144.486 34.9406 144.47 35.0416 144.457 35.1702C144.446 35.2987 144.44 35.4542 144.44 35.6366C144.44 35.7887 144.444 35.9232 144.453 36.04C144.463 36.1554 144.476 36.2505 144.495 36.3253C144.514 36.3988 144.535 36.4598 144.558 36.5083C144.58 36.5569 144.608 36.593 144.64 36.6166C144.673 36.6402 144.705 36.6566 144.735 36.6658C144.765 36.6736 144.8 36.6776 144.841 36.6776H144.999C144.999 36.4204 144.988 36.0216 144.967 35.4811C145.198 35.4706 145.405 35.4654 145.589 35.4654C145.783 35.4654 146.011 35.4706 146.274 35.4811C146.295 35.4824 146.312 35.4909 146.327 35.5067C146.343 35.5211 146.351 35.5388 146.352 35.5598C146.373 36.0452 146.384 36.4126 146.384 36.6618C146.384 37.0935 146.373 37.4949 146.352 37.8662C146.129 37.9055 145.964 37.9337 145.857 37.9508C145.749 37.9679 145.615 37.9829 145.455 37.9961C145.295 38.0092 145.124 38.0157 144.943 38.0157C144.79 38.0157 144.649 38.0105 144.52 38C144.392 37.9882 144.264 37.9692 144.139 37.9429C144.014 37.9154 143.9 37.88 143.798 37.8367C143.696 37.7934 143.597 37.7383 143.503 37.6714C143.41 37.6045 143.327 37.5271 143.255 37.4392C143.183 37.3499 143.117 37.2463 143.058 37.1282C142.999 37.0102 142.951 36.8776 142.913 36.7307C142.874 36.5838 142.845 36.4191 142.824 36.2368C142.804 36.0531 142.794 35.853 142.794 35.6366ZM146.604 33.3046C146.846 33.2758 147.121 33.2613 147.429 33.2613C147.652 33.2613 147.862 33.2679 148.061 33.281C148.085 33.2823 148.11 33.2902 148.133 33.3046C148.157 33.319 148.173 33.3374 148.181 33.3597C148.305 33.7415 148.473 34.3135 148.684 35.0757C148.888 34.3397 149.056 33.7677 149.19 33.3597C149.198 33.3374 149.214 33.319 149.237 33.3046C149.261 33.2902 149.285 33.2823 149.31 33.281C149.508 33.2679 149.719 33.2613 149.942 33.2613C150.25 33.2613 150.525 33.2758 150.766 33.3046C150.559 34.1875 150.34 34.8566 150.109 35.3119C149.945 35.5926 149.733 35.8399 149.473 36.0538C149.484 36.9209 149.491 37.5697 149.493 38C149.244 38.0118 149.009 38.0177 148.789 38.0177C148.562 38.0177 148.288 38.0118 147.966 38C147.945 38 147.927 37.9921 147.911 37.9764C147.895 37.9606 147.887 37.9423 147.887 37.9213C147.887 37.529 147.891 36.9065 147.899 36.0538C147.635 35.836 147.422 35.5887 147.26 35.3119C147.031 34.8619 146.813 34.1928 146.604 33.3046Z" fill="#FFA41D"/>
</g>
<defs>
<radialGradient id="paint0_radial_893_5947" cx="0" cy="0" r="1" gradientUnits="userSpaceOnUse" gradientTransform="translate(71.4583 115) scale(184.089 183)">
<stop stop-color="#313131"/>
<stop offset="0.595986" stop-color="#4D4D4D"/>
<stop offset="1" stop-color="#343434"/>
</radialGradient>
<radialGradient id="paint1_radial_893_5947" cx="0" cy="0" r="1" gradientUnits="userSpaceOnUse" gradientTransform="translate(89.5494 -4.90059) scale(308.39 308.39)">
<stop stop-color="#333333"/>
<stop offset="0.44" stop-color="#333333"/>
<stop offset="1" stop-color="#333333"/>
</radialGradient>
<linearGradient id="paint2_linear_893_5947" x1="196.96" y1="69" x2="179.329" y2="69" gradientUnits="userSpaceOnUse">
<stop offset="0.15" stop-color="#222222"/>
<stop offset="0.64" stop-color="#333333"/>
</linearGradient>
<linearGradient id="paint3_linear_893_5947" x1="181.671" y1="53.4998" x2="164.046" y2="53.4998" gradientUnits="userSpaceOnUse">
<stop offset="0.21" stop-color="#222222"/>
<stop offset="0.67" stop-color="#333333"/>
</linearGradient>
<radialGradient id="paint4_radial_893_5947" cx="0" cy="0" r="1" gradientUnits="userSpaceOnUse" gradientTransform="translate(128.978 113.204) rotate(-30.2564) scale(10.1988 12.8244)">
<stop offset="0.42" stop-color="#FFB612"/>
<stop offset="0.695" stop-color="#FF9C0A"/>
</radialGradient>
<radialGradient id="paint5_radial_893_5947" cx="0" cy="0" r="1" gradientUnits="userSpaceOnUse" gradientTransform="translate(111.001 86.9179) scale(64.7475 81.4183)">
<stop stop-color="#FFFD9E"/>
<stop offset="1"/>
</radialGradient>
<clipPath id="clip0_893_5947">
<rect width="336" height="224" fill="white" transform="translate(-76)"/>
</clipPath>
<clipPath id="clip1_893_5947">
<rect width="33" height="130" fill="white" transform="translate(164 4)"/>
</clipPath>
<clipPath id="clip2_893_5947">
<rect width="34.6034" height="85.1775" fill="white" transform="translate(115.734 43.7764)"/>
</clipPath>
<clipPath id="clip3_893_5947">
<rect width="8.80952" height="16.1508" fill="white" transform="translate(128.978 105.128)"/>
</clipPath>
</defs>
</svg>
